solid OpenSCAD_Model
  facet normal -0.866025 -0.441474 0.234736
    outer loop
      vertex 0 32.966 62
      vertex -46.5874 110 35.002
      vertex -46.5874 91.3891 0
    endloop
  endfacet
  facet normal -0.866025 -0.441474 0.234736
    outer loop
      vertex -46.5874 110 35.002
      vertex 0 32.966 62
      vertex -39.2696 110 62
    endloop
  endfacet
  facet normal -0.866025 -0.441474 0.234736
    outer loop
      vertex 0 32.966 62
      vertex -46.5874 91.3891 0
      vertex 0 0 0
    endloop
  endfacet
  facet normal 0.866025 -0.441474 0.234736
    outer loop
      vertex 0 32.966 62
      vertex 46.5874 110 35.002
      vertex 39.2696 110 62
    endloop
  endfacet
  facet normal 0.866025 -0.441474 0.234736
    outer loop
      vertex 46.5874 110 35.002
      vertex 0 32.966 62
      vertex 46.5874 91.3891 0
    endloop
  endfacet
  facet normal 0.866025 -0.441474 0.234736
    outer loop
      vertex 46.5874 91.3891 0
      vertex 0 32.966 62
      vertex 0 0 0
    endloop
  endfacet
  facet normal 0.707108 0.624337 -0.331966
    outer loop
      vertex 46.5874 91.3891 0
      vertex 30.155 110 0
      vertex 46.5874 110 35.002
    endloop
  endfacet
  facet normal -0.707108 0.624337 -0.331966
    outer loop
      vertex -30.155 110 0
      vertex -46.5874 91.3891 0
      vertex -46.5874 110 35.002
    endloop
  endfacet
  facet normal 0 0 -1
    outer loop
      vertex 12.5729 98.2366 0
      vertex -12.5729 98.2366 0
      vertex -12 100 0
    endloop
  endfacet
  facet normal 0 0 -1
    outer loop
      vertex 14.0729 97.1468 0
      vertex -14.0729 97.1468 0
      vertex -12.5729 98.2366 0
    endloop
  endfacet
  facet normal 0 0 -1
    outer loop
      vertex 0 0 0
      vertex -15.9271 97.1468 0
      vertex -14.0729 97.1468 0
    endloop
  endfacet
  facet normal 0 0 -1
    outer loop
      vertex -46.5874 91.3891 0
      vertex -15.9271 97.1468 0
      vertex 0 0 0
    endloop
  endfacet
  facet normal -0 0 -1
    outer loop
      vertex -15.9271 97.1468 0
      vertex -46.5874 91.3891 0
      vertex -17.4271 98.2366 0
    endloop
  endfacet
  facet normal -0 0 -1
    outer loop
      vertex -17.4271 98.2366 0
      vertex -46.5874 91.3891 0
      vertex -18 100 0
    endloop
  endfacet
  facet normal -0 0 -1
    outer loop
      vertex -18 100 0
      vertex -46.5874 91.3891 0
      vertex -30.155 110 0
    endloop
  endfacet
  facet normal 0 0 -1
    outer loop
      vertex 46.5874 91.3891 0
      vertex 18 100 0
      vertex 30.155 110 0
    endloop
  endfacet
  facet normal 0 0 -1
    outer loop
      vertex 46.5874 91.3891 0
      vertex 17.4271 98.2366 0
      vertex 18 100 0
    endloop
  endfacet
  facet normal 0 0 -1
    outer loop
      vertex 46.5874 91.3891 0
      vertex 15.9271 97.1468 0
      vertex 17.4271 98.2366 0
    endloop
  endfacet
  facet normal 0 0 -1
    outer loop
      vertex 0 0 0
      vertex 15.9271 97.1468 0
      vertex 46.5874 91.3891 0
    endloop
  endfacet
  facet normal 0 0 -1
    outer loop
      vertex -12.5729 98.2366 0
      vertex 12.5729 98.2366 0
      vertex 14.0729 97.1468 0
    endloop
  endfacet
  facet normal 0 0 -1
    outer loop
      vertex -14.0729 97.1468 0
      vertex 14.0729 97.1468 0
      vertex 0 0 0
    endloop
  endfacet
  facet normal -0 0 -1
    outer loop
      vertex 15.9271 97.1468 0
      vertex 0 0 0
      vertex 14.0729 97.1468 0
    endloop
  endfacet
  facet normal 0 0 -1
    outer loop
      vertex 17.4271 101.763 0
      vertex 30.155 110 0
      vertex 18 100 0
    endloop
  endfacet
  facet normal 0 0 -1
    outer loop
      vertex 15.9271 102.853 0
      vertex 30.155 110 0
      vertex 17.4271 101.763 0
    endloop
  endfacet
  facet normal 0 0 -1
    outer loop
      vertex 14.0729 102.853 0
      vertex 30.155 110 0
      vertex 15.9271 102.853 0
    endloop
  endfacet
  facet normal 0 0 -1
    outer loop
      vertex 12.5729 98.2366 0
      vertex -12 100 0
      vertex 12 100 0
    endloop
  endfacet
  facet normal 0 0 -1
    outer loop
      vertex -12 100 0
      vertex 12.5729 101.763 0
      vertex 12 100 0
    endloop
  endfacet
  facet normal 0 0 -1
    outer loop
      vertex -12.5729 101.763 0
      vertex 12.5729 101.763 0
      vertex -12 100 0
    endloop
  endfacet
  facet normal 0 0 -1
    outer loop
      vertex 12.5729 101.763 0
      vertex -12.5729 101.763 0
      vertex 14.0729 102.853 0
    endloop
  endfacet
  facet normal 0 0 -1
    outer loop
      vertex -14.0729 102.853 0
      vertex 14.0729 102.853 0
      vertex -12.5729 101.763 0
    endloop
  endfacet
  facet normal 0 0 -1
    outer loop
      vertex 14.0729 102.853 0
      vertex -14.0729 102.853 0
      vertex 30.155 110 0
    endloop
  endfacet
  facet normal 0 0 -1
    outer loop
      vertex -30.155 110 0
      vertex -14.0729 102.853 0
      vertex -15.9271 102.853 0
    endloop
  endfacet
  facet normal 0 0 -1
    outer loop
      vertex -14.0729 102.853 0
      vertex -30.155 110 0
      vertex 30.155 110 0
    endloop
  endfacet
  facet normal 0 0 -1
    outer loop
      vertex -17.4271 101.763 0
      vertex -30.155 110 0
      vertex -15.9271 102.853 0
    endloop
  endfacet
  facet normal 0 0 -1
    outer loop
      vertex -30.155 110 0
      vertex -17.4271 101.763 0
      vertex -18 100 0
    endloop
  endfacet
  facet normal 0 0 -1
    outer loop
      vertex 55.9049 109.667 62
      vertex 39.2696 110 62
      vertex 55.6108 110 62
    endloop
  endfacet
  facet normal 0 0 -1
    outer loop
      vertex 0 32.966 62
      vertex 55.9049 109.667 62
      vertex 0 0 62
    endloop
  endfacet
  facet normal -0 0 -1
    outer loop
      vertex 55.9049 109.667 62
      vertex 0 32.966 62
      vertex 39.2696 110 62
    endloop
  endfacet
  facet normal 0 0 -1
    outer loop
      vertex -55.9049 109.667 62
      vertex 0 32.966 62
      vertex 0 0 62
    endloop
  endfacet
  facet normal 0 0 -1
    outer loop
      vertex 0 32.966 62
      vertex -55.9049 109.667 62
      vertex -39.2696 110 62
    endloop
  endfacet
  facet normal -0 0 -1
    outer loop
      vertex -39.2696 110 62
      vertex -55.9049 109.667 62
      vertex -55.6108 110 62
    endloop
  endfacet
  facet normal 0 0 1
    outer loop
      vertex 18 100 62
      vertex 17.8375 100.974 62
      vertex 17.4522 101.686 62
    endloop
  endfacet
  facet normal 0 0 1
    outer loop
      vertex 14.7523 102.99 62
      vertex 15.8619 102.853 62
      vertex 15.7365 102.908 62
    endloop
  endfacet
  facet normal 0 0 1
    outer loop
      vertex 15.8619 102.853 62
      vertex 14.7523 102.99 62
      vertex 14.2129 102.853 62
    endloop
  endfacet
  facet normal 0 0 1
    outer loop
      vertex 16.6408 102.511 62
      vertex 17.3995 101.783 62
      vertex 17.3674 101.843 62
    endloop
  endfacet
  facet normal 0 0 1
    outer loop
      vertex 17.3995 101.783 62
      vertex 16.6408 102.511 62
      vertex 16.0263 102.781 62
    endloop
  endfacet
  facet normal 0 0 1
    outer loop
      vertex 17.3995 98.2166 62
      vertex 16.6408 97.4885 62
      vertex 17.3674 98.1574 62
    endloop
  endfacet
  facet normal 0 -0 1
    outer loop
      vertex 16.6408 97.4885 62
      vertex 17.3995 98.2166 62
      vertex 16.0263 97.2189 62
    endloop
  endfacet
  facet normal 0 0 1
    outer loop
      vertex 12.0409 100.494 62
      vertex 12.5373 101.654 62
      vertex 12.3616 101.428 62
    endloop
  endfacet
  facet normal 0 0 1
    outer loop
      vertex 12.5373 101.654 62
      vertex 12.0409 100.494 62
      vertex 12.0409 100.126 62
    endloop
  endfacet
  facet normal 0 0 1
    outer loop
      vertex 13.9981 97.2012 62
      vertex 12.9682 97.7928 62
      vertex 13.7949 97.2527 62
    endloop
  endfacet
  facet normal -0 -0 1
    outer loop
      vertex 12.9682 97.7928 62
      vertex 13.9981 97.2012 62
      vertex 12.6875 98.1534 62
    endloop
  endfacet
  facet normal 0 0 1
    outer loop
      vertex 12.9682 102.207 62
      vertex 13.9981 102.799 62
      vertex 13.7949 102.747 62
    endloop
  endfacet
  facet normal 0 0 1
    outer loop
      vertex 13.9981 102.799 62
      vertex 12.9682 102.207 62
      vertex 12.6875 101.847 62
    endloop
  endfacet
  facet normal 0 -0 1
    outer loop
      vertex 17.8375 99.0259 62
      vertex 18 100 62
      vertex 17.4522 98.314 62
    endloop
  endfacet
  facet normal -0 0 1
    outer loop
      vertex 12.0409 99.5062 62
      vertex 12.5373 98.3464 62
      vertex 12.0409 99.8741 62
    endloop
  endfacet
  facet normal 0 0 1
    outer loop
      vertex 12.5373 98.3464 62
      vertex 12.0409 99.5062 62
      vertex 12.3616 98.5722 62
    endloop
  endfacet
  facet normal 0 0 1
    outer loop
      vertex 15.8619 97.1468 62
      vertex 14.7523 97.0102 62
      vertex 15.7365 97.0918 62
    endloop
  endfacet
  facet normal 0 -0 1
    outer loop
      vertex 14.7523 97.0102 62
      vertex 15.8619 97.1468 62
      vertex 14.2129 97.1468 62
    endloop
  endfacet
  facet normal 0 0 1
    outer loop
      vertex -12 100 62
      vertex -12.1625 100.974 62
      vertex -12.5478 101.686 62
    endloop
  endfacet
  facet normal 0 0 1
    outer loop
      vertex -15.2477 102.99 62
      vertex -14.1381 102.853 62
      vertex -14.2635 102.908 62
    endloop
  endfacet
  facet normal 0 0 1
    outer loop
      vertex -14.1381 102.853 62
      vertex -15.2477 102.99 62
      vertex -15.7871 102.853 62
    endloop
  endfacet
  facet normal 0 0 1
    outer loop
      vertex -13.3592 102.511 62
      vertex -12.6005 101.783 62
      vertex -12.6326 101.843 62
    endloop
  endfacet
  facet normal 0 0 1
    outer loop
      vertex -12.6005 101.783 62
      vertex -13.3592 102.511 62
      vertex -13.9737 102.781 62
    endloop
  endfacet
  facet normal 0 0 1
    outer loop
      vertex -12.6005 98.2166 62
      vertex -13.3592 97.4885 62
      vertex -12.6326 98.1574 62
    endloop
  endfacet
  facet normal 0 -0 1
    outer loop
      vertex -13.3592 97.4885 62
      vertex -12.6005 98.2166 62
      vertex -13.9737 97.2189 62
    endloop
  endfacet
  facet normal 0 0 1
    outer loop
      vertex -17.9591 100.494 62
      vertex -17.4627 101.654 62
      vertex -17.6384 101.428 62
    endloop
  endfacet
  facet normal 0 0 1
    outer loop
      vertex -17.4627 101.654 62
      vertex -17.9591 100.494 62
      vertex -17.9591 100.126 62
    endloop
  endfacet
  facet normal 0 0 1
    outer loop
      vertex -16.0019 97.2012 62
      vertex -17.0318 97.7928 62
      vertex -16.2051 97.2527 62
    endloop
  endfacet
  facet normal -0 -0 1
    outer loop
      vertex -17.0318 97.7928 62
      vertex -16.0019 97.2012 62
      vertex -17.3125 98.1534 62
    endloop
  endfacet
  facet normal 0 0 1
    outer loop
      vertex -17.0318 102.207 62
      vertex -16.0019 102.799 62
      vertex -16.2051 102.747 62
    endloop
  endfacet
  facet normal 0 0 1
    outer loop
      vertex -16.0019 102.799 62
      vertex -17.0318 102.207 62
      vertex -17.3125 101.847 62
    endloop
  endfacet
  facet normal 0 -0 1
    outer loop
      vertex -12.1625 99.0259 62
      vertex -12 100 62
      vertex -12.5478 98.314 62
    endloop
  endfacet
  facet normal -0 0 1
    outer loop
      vertex -17.9591 99.5062 62
      vertex -17.4627 98.3464 62
      vertex -17.9591 99.8741 62
    endloop
  endfacet
  facet normal 0 0 1
    outer loop
      vertex -17.4627 98.3464 62
      vertex -17.9591 99.5062 62
      vertex -17.6384 98.5722 62
    endloop
  endfacet
  facet normal 0 0 1
    outer loop
      vertex -14.1381 97.1468 62
      vertex -15.2477 97.0102 62
      vertex -14.2635 97.0918 62
    endloop
  endfacet
  facet normal 0 -0 1
    outer loop
      vertex -15.2477 97.0102 62
      vertex -14.1381 97.1468 62
      vertex -15.7871 97.1468 62
    endloop
  endfacet
  facet normal -0.290629 -0.148154 0.945296
    outer loop
      vertex -55.9049 109.667 62
      vertex 0 39.5592 68.2
      vertex -35.9086 110 68.2
    endloop
  endfacet
  facet normal -0.290627 -0.148181 0.945293
    outer loop
      vertex -55.9049 109.667 62
      vertex -35.9086 110 68.2
      vertex -55.9049 110 62.0522
    endloop
  endfacet
  facet normal -0.290629 -0.148154 0.945297
    outer loop
      vertex 0 39.5592 68.2
      vertex -55.9049 109.667 62
      vertex 0 0 62
    endloop
  endfacet
  facet normal 0.290627 -0.148181 0.945293
    outer loop
      vertex 35.9086 110 68.2
      vertex 55.9049 109.667 62
      vertex 55.9049 110 62.0522
    endloop
  endfacet
  facet normal 0.290629 -0.148154 0.945296
    outer loop
      vertex 0 39.5592 68.2
      vertex 55.9049 109.667 62
      vertex 35.9086 110 68.2
    endloop
  endfacet
  facet normal 0.290629 -0.148154 0.945297
    outer loop
      vertex 55.9049 109.667 62
      vertex 0 39.5592 68.2
      vertex 0 0 62
    endloop
  endfacet
  facet normal 0.172714 0.152538 -0.973089
    outer loop
      vertex 55.9049 109.667 62
      vertex 55.6108 110 62
      vertex 55.9049 110 62.0522
    endloop
  endfacet
  facet normal -0.172714 0.152538 -0.973089
    outer loop
      vertex -55.6108 110 62
      vertex -55.9049 109.667 62
      vertex -55.9049 110 62.0522
    endloop
  endfacet
  facet normal 0 0 1
    outer loop
      vertex 35.9086 110 68.2
      vertex 20.3692 101.726 68.2
      vertex 20.6571 100 68.2
    endloop
  endfacet
  facet normal 0 0 1
    outer loop
      vertex 35.9086 110 68.2
      vertex 20.3506 101.837 68.2
      vertex 20.3692 101.726 68.2
    endloop
  endfacet
  facet normal 0 0 1
    outer loop
      vertex 35.9086 110 68.2
      vertex 20.2969 101.936 68.2
      vertex 20.3506 101.837 68.2
    endloop
  endfacet
  facet normal 0 0 1
    outer loop
      vertex 35.9086 110 68.2
      vertex 19.4643 103.475 68.2
      vertex 20.2969 101.936 68.2
    endloop
  endfacet
  facet normal 0 0 1
    outer loop
      vertex 35.9086 110 68.2
      vertex 18.0942 104.736 68.2
      vertex 19.4643 103.475 68.2
    endloop
  endfacet
  facet normal 0 0 1
    outer loop
      vertex 35.9086 110 68.2
      vertex 16.4921 105.439 68.2
      vertex 18.0942 104.736 68.2
    endloop
  endfacet
  facet normal 0 0 1
    outer loop
      vertex 35.9086 110 68.2
      vertex 16.3887 105.484 68.2
      vertex 16.4921 105.439 68.2
    endloop
  endfacet
  facet normal 0 0 1
    outer loop
      vertex 35.9086 110 68.2
      vertex 16.2763 105.493 68.2
      vertex 16.3887 105.484 68.2
    endloop
  endfacet
  facet normal 0 0 1
    outer loop
      vertex 35.9086 110 68.2
      vertex 14.5328 105.638 68.2
      vertex 16.2763 105.493 68.2
    endloop
  endfacet
  facet normal -0 0 1
    outer loop
      vertex -9.64938 101.837 68.2
      vertex 9.45666 101.038 68.2
      vertex 10.0247 102.693 68.2
    endloop
  endfacet
  facet normal -0 0 1
    outer loop
      vertex -9.34286 100 68.2
      vertex 9.42001 99.0689 68.2
      vertex 9.42001 100.931 68.2
    endloop
  endfacet
  facet normal 0 0 1
    outer loop
      vertex 9.42001 99.0689 68.2
      vertex -9.34286 100 68.2
      vertex -9.6308 98.2745 68.2
    endloop
  endfacet
  facet normal 0 0 1
    outer loop
      vertex 9.45666 101.038 68.2
      vertex -9.64938 101.837 68.2
      vertex 9.42001 100.931 68.2
    endloop
  endfacet
  facet normal -0 0 1
    outer loop
      vertex -10.5357 103.475 68.2
      vertex 10.0247 102.693 68.2
      vertex 11.0992 104.073 68.2
    endloop
  endfacet
  facet normal 0 0 1
    outer loop
      vertex -10.5357 103.475 68.2
      vertex 11.0992 104.073 68.2
      vertex 11.1685 104.162 68.2
    endloop
  endfacet
  facet normal -0 0 1
    outer loop
      vertex -11.9058 104.736 68.2
      vertex 11.1685 104.162 68.2
      vertex 12.6331 105.119 68.2
    endloop
  endfacet
  facet normal 0 0 1
    outer loop
      vertex -11.9058 104.736 68.2
      vertex 12.6331 105.119 68.2
      vertex 12.7276 105.181 68.2
    endloop
  endfacet
  facet normal 0 0 1
    outer loop
      vertex -13.6113 105.484 68.2
      vertex 12.7276 105.181 68.2
      vertex 12.837 105.208 68.2
    endloop
  endfacet
  facet normal -0 0 1
    outer loop
      vertex -13.6113 105.484 68.2
      vertex 12.837 105.208 68.2
      vertex 14.5328 105.638 68.2
    endloop
  endfacet
  facet normal 0 0 1
    outer loop
      vertex 9.42001 100.931 68.2
      vertex -9.6308 101.726 68.2
      vertex -9.34286 100 68.2
    endloop
  endfacet
  facet normal 0 0 1
    outer loop
      vertex -13.6113 105.484 68.2
      vertex 14.5328 105.638 68.2
      vertex 35.9086 110 68.2
    endloop
  endfacet
  facet normal 0 0 1
    outer loop
      vertex 9.42001 100.931 68.2
      vertex -9.64938 101.837 68.2
      vertex -9.6308 101.726 68.2
    endloop
  endfacet
  facet normal 0 0 1
    outer loop
      vertex 10.0247 102.693 68.2
      vertex -9.7031 101.936 68.2
      vertex -9.64938 101.837 68.2
    endloop
  endfacet
  facet normal 0 0 1
    outer loop
      vertex 10.0247 102.693 68.2
      vertex -10.5357 103.475 68.2
      vertex -9.7031 101.936 68.2
    endloop
  endfacet
  facet normal 0 0 1
    outer loop
      vertex 11.1685 104.162 68.2
      vertex -11.9058 104.736 68.2
      vertex -10.5357 103.475 68.2
    endloop
  endfacet
  facet normal 0 0 1
    outer loop
      vertex 12.7276 105.181 68.2
      vertex -13.5079 105.439 68.2
      vertex -11.9058 104.736 68.2
    endloop
  endfacet
  facet normal 0 0 1
    outer loop
      vertex 12.7276 105.181 68.2
      vertex -13.6113 105.484 68.2
      vertex -13.5079 105.439 68.2
    endloop
  endfacet
  facet normal -0 0 1
    outer loop
      vertex -35.9086 110 68.2
      vertex -13.6113 105.484 68.2
      vertex 35.9086 110 68.2
    endloop
  endfacet
  facet normal 0 0 1
    outer loop
      vertex -13.6113 105.484 68.2
      vertex -35.9086 110 68.2
      vertex -13.7237 105.493 68.2
    endloop
  endfacet
  facet normal 0 0 1
    outer loop
      vertex -35.9086 110 68.2
      vertex -18.9008 104.073 68.2
      vertex -18.8315 104.162 68.2
    endloop
  endfacet
  facet normal 0 0 1
    outer loop
      vertex -35.9086 110 68.2
      vertex -20.5433 101.038 68.2
      vertex -19.9753 102.693 68.2
    endloop
  endfacet
  facet normal 0 0 1
    outer loop
      vertex -20.58 100.931 68.2
      vertex -35.9086 110 68.2
      vertex -20.58 99.0689 68.2
    endloop
  endfacet
  facet normal 0 0 1
    outer loop
      vertex -20.5433 101.038 68.2
      vertex -35.9086 110 68.2
      vertex -20.58 100.931 68.2
    endloop
  endfacet
  facet normal 0 0 1
    outer loop
      vertex -18.9008 104.073 68.2
      vertex -35.9086 110 68.2
      vertex -19.9753 102.693 68.2
    endloop
  endfacet
  facet normal 0 0 1
    outer loop
      vertex -17.3669 105.119 68.2
      vertex -35.9086 110 68.2
      vertex -18.8315 104.162 68.2
    endloop
  endfacet
  facet normal 0 0 1
    outer loop
      vertex -17.2724 105.181 68.2
      vertex -35.9086 110 68.2
      vertex -17.3669 105.119 68.2
    endloop
  endfacet
  facet normal 0 0 1
    outer loop
      vertex -17.163 105.208 68.2
      vertex -35.9086 110 68.2
      vertex -17.2724 105.181 68.2
    endloop
  endfacet
  facet normal 0 0 1
    outer loop
      vertex -15.4672 105.638 68.2
      vertex -35.9086 110 68.2
      vertex -17.163 105.208 68.2
    endloop
  endfacet
  facet normal 0 0 1
    outer loop
      vertex -13.7237 105.493 68.2
      vertex -35.9086 110 68.2
      vertex -15.4672 105.638 68.2
    endloop
  endfacet
  facet normal 0 0 1
    outer loop
      vertex 20.3692 98.2745 68.2
      vertex 35.9086 110 68.2
      vertex 20.6571 100 68.2
    endloop
  endfacet
  facet normal 0 0 1
    outer loop
      vertex 20.3506 98.1631 68.2
      vertex 35.9086 110 68.2
      vertex 20.3692 98.2745 68.2
    endloop
  endfacet
  facet normal 0 0 1
    outer loop
      vertex 20.2969 98.0639 68.2
      vertex 35.9086 110 68.2
      vertex 20.3506 98.1631 68.2
    endloop
  endfacet
  facet normal 0 0 1
    outer loop
      vertex 19.4643 96.5253 68.2
      vertex 35.9086 110 68.2
      vertex 20.2969 98.0639 68.2
    endloop
  endfacet
  facet normal 0 0 1
    outer loop
      vertex 0 39.5592 68.2
      vertex 19.4643 96.5253 68.2
      vertex 18.0942 95.264 68.2
    endloop
  endfacet
  facet normal 0 0 1
    outer loop
      vertex 0 39.5592 68.2
      vertex 16.4921 94.5613 68.2
      vertex 16.3887 94.516 68.2
    endloop
  endfacet
  facet normal 0 0 1
    outer loop
      vertex 0 39.5592 68.2
      vertex 16.2763 94.5066 68.2
      vertex 14.5328 94.3622 68.2
    endloop
  endfacet
  facet normal 0 0 1
    outer loop
      vertex 0 39.5592 68.2
      vertex 9.45666 98.9621 68.2
      vertex 9.42001 99.0689 68.2
    endloop
  endfacet
  facet normal -0 0 1
    outer loop
      vertex 19.4643 96.5253 68.2
      vertex 0 39.5592 68.2
      vertex 35.9086 110 68.2
    endloop
  endfacet
  facet normal -0 0 1
    outer loop
      vertex 16.4921 94.5613 68.2
      vertex 0 39.5592 68.2
      vertex 18.0942 95.264 68.2
    endloop
  endfacet
  facet normal -0 0 1
    outer loop
      vertex 16.2763 94.5066 68.2
      vertex 0 39.5592 68.2
      vertex 16.3887 94.516 68.2
    endloop
  endfacet
  facet normal 0 0 1
    outer loop
      vertex 12.837 94.7916 68.2
      vertex 0 39.5592 68.2
      vertex 14.5328 94.3622 68.2
    endloop
  endfacet
  facet normal 0 0 1
    outer loop
      vertex 12.7276 94.8193 68.2
      vertex 0 39.5592 68.2
      vertex 12.837 94.7916 68.2
    endloop
  endfacet
  facet normal 0 0 1
    outer loop
      vertex 12.6331 94.8811 68.2
      vertex 0 39.5592 68.2
      vertex 12.7276 94.8193 68.2
    endloop
  endfacet
  facet normal 0 0 1
    outer loop
      vertex 11.1685 95.8379 68.2
      vertex 0 39.5592 68.2
      vertex 12.6331 94.8811 68.2
    endloop
  endfacet
  facet normal 0 0 1
    outer loop
      vertex 11.0992 95.927 68.2
      vertex 0 39.5592 68.2
      vertex 11.1685 95.8379 68.2
    endloop
  endfacet
  facet normal 0 0 1
    outer loop
      vertex 10.0247 97.3075 68.2
      vertex 0 39.5592 68.2
      vertex 11.0992 95.927 68.2
    endloop
  endfacet
  facet normal 0 0 1
    outer loop
      vertex 9.45666 98.9621 68.2
      vertex 0 39.5592 68.2
      vertex 10.0247 97.3075 68.2
    endloop
  endfacet
  facet normal 0 0 1
    outer loop
      vertex 9.42001 99.0689 68.2
      vertex -9.6308 98.2745 68.2
      vertex -9.64938 98.1631 68.2
    endloop
  endfacet
  facet normal 0 0 1
    outer loop
      vertex 9.42001 99.0689 68.2
      vertex -9.64938 98.1631 68.2
      vertex -9.7031 98.0639 68.2
    endloop
  endfacet
  facet normal 0 0 1
    outer loop
      vertex 9.42001 99.0689 68.2
      vertex -9.7031 98.0639 68.2
      vertex -10.5357 96.5253 68.2
    endloop
  endfacet
  facet normal 0 0 1
    outer loop
      vertex 9.42001 99.0689 68.2
      vertex -10.5357 96.5253 68.2
      vertex -11.9058 95.264 68.2
    endloop
  endfacet
  facet normal 0 0 1
    outer loop
      vertex 9.42001 99.0689 68.2
      vertex -11.9058 95.264 68.2
      vertex 0 39.5592 68.2
    endloop
  endfacet
  facet normal -0 0 1
    outer loop
      vertex -13.5079 94.5613 68.2
      vertex 0 39.5592 68.2
      vertex -11.9058 95.264 68.2
    endloop
  endfacet
  facet normal -0 0 1
    outer loop
      vertex -13.6113 94.516 68.2
      vertex 0 39.5592 68.2
      vertex -13.5079 94.5613 68.2
    endloop
  endfacet
  facet normal -0 0 1
    outer loop
      vertex -13.7237 94.5066 68.2
      vertex 0 39.5592 68.2
      vertex -13.6113 94.516 68.2
    endloop
  endfacet
  facet normal -0 0 1
    outer loop
      vertex -15.4672 94.3622 68.2
      vertex 0 39.5592 68.2
      vertex -13.7237 94.5066 68.2
    endloop
  endfacet
  facet normal 0 0 1
    outer loop
      vertex -17.163 94.7916 68.2
      vertex 0 39.5592 68.2
      vertex -15.4672 94.3622 68.2
    endloop
  endfacet
  facet normal 0 0 1
    outer loop
      vertex -17.2724 94.8193 68.2
      vertex 0 39.5592 68.2
      vertex -17.163 94.7916 68.2
    endloop
  endfacet
  facet normal 0 0 1
    outer loop
      vertex -17.3669 94.8811 68.2
      vertex 0 39.5592 68.2
      vertex -17.2724 94.8193 68.2
    endloop
  endfacet
  facet normal 0 0 1
    outer loop
      vertex -18.8315 95.8379 68.2
      vertex 0 39.5592 68.2
      vertex -17.3669 94.8811 68.2
    endloop
  endfacet
  facet normal 0 0 1
    outer loop
      vertex -35.9086 110 68.2
      vertex -18.8315 95.8379 68.2
      vertex -18.9008 95.927 68.2
    endloop
  endfacet
  facet normal 0 0 1
    outer loop
      vertex -35.9086 110 68.2
      vertex -18.9008 95.927 68.2
      vertex -19.9753 97.3075 68.2
    endloop
  endfacet
  facet normal 0 0 1
    outer loop
      vertex -35.9086 110 68.2
      vertex -20.5433 98.9621 68.2
      vertex -20.58 99.0689 68.2
    endloop
  endfacet
  facet normal 0 0 1
    outer loop
      vertex -18.8315 95.8379 68.2
      vertex -35.9086 110 68.2
      vertex 0 39.5592 68.2
    endloop
  endfacet
  facet normal 0 0 1
    outer loop
      vertex -20.5433 98.9621 68.2
      vertex -35.9086 110 68.2
      vertex -19.9753 97.3075 68.2
    endloop
  endfacet
  facet normal 0 1 -0
    outer loop
      vertex 55.6108 110 62
      vertex 35.9086 110 68.2
      vertex 55.9049 110 62.0522
    endloop
  endfacet
  facet normal 0 1 0
    outer loop
      vertex 35.9086 110 68.2
      vertex 39.2696 110 62
      vertex -35.9086 110 68.2
    endloop
  endfacet
  facet normal 0 1 0
    outer loop
      vertex 35.9086 110 68.2
      vertex 55.6108 110 62
      vertex 39.2696 110 62
    endloop
  endfacet
  facet normal 0 1 0
    outer loop
      vertex -39.2696 110 62
      vertex -35.9086 110 68.2
      vertex 39.2696 110 62
    endloop
  endfacet
  facet normal 0 1 0
    outer loop
      vertex -55.6108 110 62
      vertex -35.9086 110 68.2
      vertex -39.2696 110 62
    endloop
  endfacet
  facet normal 0 1 0
    outer loop
      vertex -35.9086 110 68.2
      vertex -55.6108 110 62
      vertex -55.9049 110 62.0522
    endloop
  endfacet
  facet normal 0 1 0
    outer loop
      vertex 46.5874 110 35.002
      vertex -39.2696 110 62
      vertex 39.2696 110 62
    endloop
  endfacet
  facet normal 0 1 0
    outer loop
      vertex 46.5874 110 35.002
      vertex -46.5874 110 35.002
      vertex -39.2696 110 62
    endloop
  endfacet
  facet normal 0 1 -0
    outer loop
      vertex 30.155 110 0
      vertex -46.5874 110 35.002
      vertex 46.5874 110 35.002
    endloop
  endfacet
  facet normal 0 1 0
    outer loop
      vertex -46.5874 110 35.002
      vertex 30.155 110 0
      vertex -30.155 110 0
    endloop
  endfacet
  facet normal 0.503829 -0.771063 0.389382
    outer loop
      vertex 12.9682 102.207 62
      vertex 12.6331 105.119 68.2
      vertex 11.1685 104.162 68.2
    endloop
  endfacet
  facet normal 0.503758 0.771117 0.389366
    outer loop
      vertex 12.6331 94.8811 68.2
      vertex 12.9682 97.7928 62
      vertex 11.1685 95.8379 68.2
    endloop
  endfacet
  facet normal 0.726755 -0.565869 0.389384
    outer loop
      vertex 12.3616 101.428 62
      vertex 11.0992 104.073 68.2
      vertex 10.0247 102.693 68.2
    endloop
  endfacet
  facet normal -0.908532 -0.151545 0.389364
    outer loop
      vertex 20.6571 100 68.2
      vertex 20.3692 101.726 68.2
      vertex 18 100 62
    endloop
  endfacet
  facet normal -0.908404 -0.152219 0.389399
    outer loop
      vertex 17.8375 100.974 62
      vertex 20.3692 101.726 68.2
      vertex 20.3506 101.837 68.2
    endloop
  endfacet
  facet normal -0.908524 -0.151576 0.38937
    outer loop
      vertex 20.3692 101.726 68.2
      vertex 17.8375 100.974 62
      vertex 18 100 62
    endloop
  endfacet
  facet normal -0.0764764 -0.917903 0.389365
    outer loop
      vertex 15.7365 102.908 62
      vertex 16.2763 105.493 68.2
      vertex 14.7523 102.99 62
    endloop
  endfacet
  facet normal -0.0735214 -0.918201 0.389232
    outer loop
      vertex 16.2763 105.493 68.2
      vertex 15.7365 102.908 62
      vertex 16.3887 105.484 68.2
    endloop
  endfacet
  facet normal -0.370095 -0.843426 0.389438
    outer loop
      vertex 16.6408 102.511 62
      vertex 18.0942 104.736 68.2
      vertex 16.4921 105.439 68.2
    endloop
  endfacet
  facet normal -0.623839 0.677652 0.389375
    outer loop
      vertex 17.3674 98.1574 62
      vertex 18.0942 95.264 68.2
      vertex 19.4643 96.5253 68.2
    endloop
  endfacet
  facet normal -0.623839 0.677652 0.389375
    outer loop
      vertex 18.0942 95.264 68.2
      vertex 17.3674 98.1574 62
      vertex 16.6408 97.4885 62
    endloop
  endfacet
  facet normal 0.503778 0.771103 0.389368
    outer loop
      vertex 12.9682 97.7928 62
      vertex 12.7276 94.8193 68.2
      vertex 13.7949 97.2527 62
    endloop
  endfacet
  facet normal 0.504146 0.770903 0.389287
    outer loop
      vertex 12.7276 94.8193 68.2
      vertex 12.9682 97.7928 62
      vertex 12.6331 94.8811 68.2
    endloop
  endfacet
  facet normal 0.726764 0.565511 0.389885
    outer loop
      vertex 12.3616 98.5722 62
      vertex 12.5729 98.2366 62.0929
      vertex 12.5373 98.3464 62
    endloop
  endfacet
  facet normal 0.72668 0.565666 0.389818
    outer loop
      vertex 12.5729 98.2366 62.0929
      vertex 12.9682 97.7928 62
      vertex 12.6875 98.1534 62
    endloop
  endfacet
  facet normal 0.72705 0.565534 0.389319
    outer loop
      vertex 11.0992 95.927 68.2
      vertex 12.5729 98.2366 62.0929
      vertex 12.3616 98.5722 62
    endloop
  endfacet
  facet normal 0.726778 0.565847 0.389372
    outer loop
      vertex 11.0992 95.927 68.2
      vertex 12.9682 97.7928 62
      vertex 12.5729 98.2366 62.0929
    endloop
  endfacet
  facet normal 0.727064 0.565494 0.389352
    outer loop
      vertex 12.9682 97.7928 62
      vertex 11.0992 95.927 68.2
      vertex 11.1685 95.8379 68.2
    endloop
  endfacet
  facet normal 0.226395 -0.892837 0.389343
    outer loop
      vertex 14.7523 102.99 62
      vertex 14.5328 105.638 68.2
      vertex 12.837 105.208 68.2
    endloop
  endfacet
  facet normal 0.220728 -0.894358 0.389105
    outer loop
      vertex 13.7949 102.747 62
      vertex 12.837 105.208 68.2
      vertex 12.7276 105.181 68.2
    endloop
  endfacet
  facet normal 0.226542 -0.892784 0.389378
    outer loop
      vertex 12.837 105.208 68.2
      vertex 13.7949 102.747 62
      vertex 14.0729 102.853 62.0813
    endloop
  endfacet
  facet normal 0.228951 -0.894669 0.383599
    outer loop
      vertex 14.0729 102.853 62.0813
      vertex 13.7949 102.747 62
      vertex 13.9981 102.799 62
    endloop
  endfacet
  facet normal 0.226647 -0.892359 0.39029
    outer loop
      vertex 14.7523 102.99 62
      vertex 14.0729 102.853 62.0813
      vertex 14.2129 102.853 62
    endloop
  endfacet
  facet normal 0.22662 -0.892761 0.389385
    outer loop
      vertex 14.0729 102.853 62.0813
      vertex 14.7523 102.99 62
      vertex 12.837 105.208 68.2
    endloop
  endfacet
  facet normal 0.226096 0.892905 0.389361
    outer loop
      vertex 14.5328 94.3622 68.2
      vertex 14.7523 97.0102 62
      vertex 12.837 94.7916 68.2
    endloop
  endfacet
  facet normal -0.908525 0.151588 0.389362
    outer loop
      vertex 20.3692 98.2745 68.2
      vertex 20.6571 100 68.2
      vertex 18 100 62
    endloop
  endfacet
  facet normal 0.22625 0.892859 0.389377
    outer loop
      vertex 13.7949 97.2527 62
      vertex 12.837 94.7916 68.2
      vertex 14.0729 97.1468 62.0813
    endloop
  endfacet
  facet normal 0.226119 0.892897 0.389366
    outer loop
      vertex 14.7523 97.0102 62
      vertex 14.0729 97.1468 62.0813
      vertex 12.837 94.7916 68.2
    endloop
  endfacet
  facet normal 0.226119 0.89289 0.389381
    outer loop
      vertex 14.0729 97.1468 62.0813
      vertex 14.7523 97.0102 62
      vertex 14.2129 97.1468 62
    endloop
  endfacet
  facet normal 0.226301 0.892899 0.389255
    outer loop
      vertex 13.7949 97.2527 62
      vertex 14.0729 97.1468 62.0813
      vertex 13.9981 97.2012 62
    endloop
  endfacet
  facet normal 0.226083 0.892904 0.38937
    outer loop
      vertex 12.837 94.7916 68.2
      vertex 13.7949 97.2527 62
      vertex 12.7276 94.8193 68.2
    endloop
  endfacet
  facet normal -0.810077 0.438366 0.389372
    outer loop
      vertex 19.4643 96.5253 68.2
      vertex 20.2969 98.0639 68.2
      vertex 17.3674 98.1574 62
    endloop
  endfacet
  facet normal -0.0760258 0.917943 0.389359
    outer loop
      vertex 16.2763 94.5066 68.2
      vertex 14.7523 97.0102 62
      vertex 14.5328 94.3622 68.2
    endloop
  endfacet
  facet normal -0.908532 0.151562 0.389357
    outer loop
      vertex 17.8375 99.0259 62
      vertex 20.3692 98.2745 68.2
      vertex 18 100 62
    endloop
  endfacet
  facet normal -0.908508 0.15169 0.389363
    outer loop
      vertex 20.3692 98.2745 68.2
      vertex 17.8375 99.0259 62
      vertex 20.3506 98.1631 68.2
    endloop
  endfacet
  facet normal 0.726743 -0.56588 0.38939
    outer loop
      vertex 11.0992 104.073 68.2
      vertex 12.9682 102.207 62
      vertex 11.1685 104.162 68.2
    endloop
  endfacet
  facet normal 0.726894 -0.565694 0.389379
    outer loop
      vertex 12.5729 101.763 62.0929
      vertex 12.9682 102.207 62
      vertex 11.0992 104.073 68.2
    endloop
  endfacet
  facet normal 0.727905 -0.567563 0.384742
    outer loop
      vertex 12.9682 102.207 62
      vertex 12.5729 101.763 62.0929
      vertex 12.6875 101.847 62
    endloop
  endfacet
  facet normal 0.726447 -0.566208 0.389466
    outer loop
      vertex 12.3616 101.428 62
      vertex 12.5729 101.763 62.0929
      vertex 11.0992 104.073 68.2
    endloop
  endfacet
  facet normal 0.728512 -0.566369 0.385353
    outer loop
      vertex 12.5729 101.763 62.0929
      vertex 12.3616 101.428 62
      vertex 12.5373 101.654 62
    endloop
  endfacet
  facet normal -0.369973 0.84351 0.389372
    outer loop
      vertex 18.0942 95.264 68.2
      vertex 16.6408 97.4885 62
      vertex 16.4921 94.5613 68.2
    endloop
  endfacet
  facet normal -0.809581 0.438168 0.390624
    outer loop
      vertex 17.4271 98.2366 62.0348
      vertex 17.8375 99.0259 62
      vertex 17.4522 98.314 62
    endloop
  endfacet
  facet normal -0.81008 0.438371 0.389361
    outer loop
      vertex 17.4271 98.2366 62.0348
      vertex 20.3506 98.1631 68.2
      vertex 17.8375 99.0259 62
    endloop
  endfacet
  facet normal -0.809555 0.438965 0.389782
    outer loop
      vertex 17.3674 98.1574 62
      vertex 17.4271 98.2366 62.0348
      vertex 17.3995 98.2166 62
    endloop
  endfacet
  facet normal -0.809658 0.439303 0.389188
    outer loop
      vertex 20.2969 98.0639 68.2
      vertex 17.4271 98.2366 62.0348
      vertex 17.3674 98.1574 62
    endloop
  endfacet
  facet normal -0.810026 0.438492 0.389337
    outer loop
      vertex 17.4271 98.2366 62.0348
      vertex 20.2969 98.0639 68.2
      vertex 20.3506 98.1631 68.2
    endloop
  endfacet
  facet normal -0.369611 0.84366 0.38939
    outer loop
      vertex 16.4921 94.5613 68.2
      vertex 15.9271 97.1468 62.0619
      vertex 16.3887 94.516 68.2
    endloop
  endfacet
  facet normal -0.370065 0.843478 0.389355
    outer loop
      vertex 16.6408 97.4885 62
      vertex 15.9271 97.1468 62.0619
      vertex 16.4921 94.5613 68.2
    endloop
  endfacet
  facet normal -0.370052 0.843459 0.389407
    outer loop
      vertex 15.9271 97.1468 62.0619
      vertex 16.6408 97.4885 62
      vertex 16.0263 97.2189 62
    endloop
  endfacet
  facet normal -0.369917 0.843412 0.389638
    outer loop
      vertex 15.7365 97.0918 62
      vertex 15.9271 97.1468 62.0619
      vertex 15.8619 97.1468 62
    endloop
  endfacet
  facet normal -0.369871 0.843558 0.389366
    outer loop
      vertex 15.9271 97.1468 62.0619
      vertex 15.7365 97.0918 62
      vertex 16.3887 94.516 68.2
    endloop
  endfacet
  facet normal -0.0767608 0.917863 0.389403
    outer loop
      vertex 15.7365 97.0918 62
      vertex 16.2763 94.5066 68.2
      vertex 16.3887 94.516 68.2
    endloop
  endfacet
  facet normal -0.0761056 0.91793 0.389373
    outer loop
      vertex 16.2763 94.5066 68.2
      vertex 15.7365 97.0918 62
      vertex 14.7523 97.0102 62
    endloop
  endfacet
  facet normal -0.0763402 -0.917925 0.38934
    outer loop
      vertex 14.7523 102.99 62
      vertex 16.2763 105.493 68.2
      vertex 14.5328 105.638 68.2
    endloop
  endfacet
  facet normal 0.871191 -0.299016 0.389378
    outer loop
      vertex 12.3616 101.428 62
      vertex 10.0247 102.693 68.2
      vertex 9.45666 101.038 68.2
    endloop
  endfacet
  facet normal 0.921085 3.62347e-05 0.389362
    outer loop
      vertex 12 100 62.0968
      vertex 12.0409 100.494 62
      vertex 9.42001 100.931 68.2
    endloop
  endfacet
  facet normal 0.921151 0 0.389205
    outer loop
      vertex 12.0409 100.494 62
      vertex 12 100 62.0968
      vertex 12.0409 100.126 62
    endloop
  endfacet
  facet normal 0.921083 -0 0.389367
    outer loop
      vertex 9.42001 99.0689 68.2
      vertex 12 100 62.0968
      vertex 9.42001 100.931 68.2
    endloop
  endfacet
  facet normal 0.921085 -3.62488e-05 0.389362
    outer loop
      vertex 12.0409 99.5062 62
      vertex 12 100 62.0968
      vertex 9.42001 99.0689 68.2
    endloop
  endfacet
  facet normal 0.921151 0 0.389205
    outer loop
      vertex 12 100 62.0968
      vertex 12.0409 99.5062 62
      vertex 12.0409 99.8741 62
    endloop
  endfacet
  facet normal 0.871338 -0.298454 0.389482
    outer loop
      vertex 9.42001 100.931 68.2
      vertex 12.3616 101.428 62
      vertex 9.45666 101.038 68.2
    endloop
  endfacet
  facet normal 0.871167 -0.299126 0.389347
    outer loop
      vertex 12.3616 101.428 62
      vertex 9.42001 100.931 68.2
      vertex 12.0409 100.494 62
    endloop
  endfacet
  facet normal 0.871172 0.299082 0.38937
    outer loop
      vertex 10.0247 97.3075 68.2
      vertex 12.3616 98.5722 62
      vertex 9.45666 98.9621 68.2
    endloop
  endfacet
  facet normal 0.726859 0.565744 0.38937
    outer loop
      vertex 11.0992 95.927 68.2
      vertex 12.3616 98.5722 62
      vertex 10.0247 97.3075 68.2
    endloop
  endfacet
  facet normal 0.871211 0.298969 0.389369
    outer loop
      vertex 9.45666 98.9621 68.2
      vertex 12.0409 99.5062 62
      vertex 9.42001 99.0689 68.2
    endloop
  endfacet
  facet normal 0.871162 0.299124 0.389362
    outer loop
      vertex 12.0409 99.5062 62
      vertex 9.45666 98.9621 68.2
      vertex 12.3616 98.5722 62
    endloop
  endfacet
  facet normal -0.62336 -0.678044 0.389458
    outer loop
      vertex 17.3674 101.843 62
      vertex 18.0942 104.736 68.2
      vertex 16.6408 102.511 62
    endloop
  endfacet
  facet normal -0.623763 -0.677731 0.389359
    outer loop
      vertex 18.0942 104.736 68.2
      vertex 17.3674 101.843 62
      vertex 19.4643 103.475 68.2
    endloop
  endfacet
  facet normal 0.505337 -0.770232 0.389073
    outer loop
      vertex 12.9682 102.207 62
      vertex 12.7276 105.181 68.2
      vertex 12.6331 105.119 68.2
    endloop
  endfacet
  facet normal 0.503696 -0.771122 0.389436
    outer loop
      vertex 12.7276 105.181 68.2
      vertex 12.9682 102.207 62
      vertex 13.7949 102.747 62
    endloop
  endfacet
  facet normal -0.367518 -0.844474 0.389609
    outer loop
      vertex 16.3887 105.484 68.2
      vertex 15.9271 102.853 62.0619
      vertex 16.4921 105.439 68.2
    endloop
  endfacet
  facet normal -0.369875 -0.843546 0.389388
    outer loop
      vertex 15.7365 102.908 62
      vertex 15.9271 102.853 62.0619
      vertex 16.3887 105.484 68.2
    endloop
  endfacet
  facet normal -0.369917 -0.843412 0.389638
    outer loop
      vertex 15.9271 102.853 62.0619
      vertex 15.7365 102.908 62
      vertex 15.8619 102.853 62
    endloop
  endfacet
  facet normal -0.370848 -0.844023 0.387423
    outer loop
      vertex 16.6408 102.511 62
      vertex 15.9271 102.853 62.0619
      vertex 16.0263 102.781 62
    endloop
  endfacet
  facet normal -0.370349 -0.843337 0.38939
    outer loop
      vertex 15.9271 102.853 62.0619
      vertex 16.6408 102.511 62
      vertex 16.4921 105.439 68.2
    endloop
  endfacet
  facet normal -0.810129 -0.43828 0.38936
    outer loop
      vertex 20.2969 101.936 68.2
      vertex 19.4643 103.475 68.2
      vertex 17.3674 101.843 62
    endloop
  endfacet
  facet normal -0.811233 -0.4358 0.389845
    outer loop
      vertex 17.4271 101.763 62.0348
      vertex 20.2969 101.936 68.2
      vertex 17.3674 101.843 62
    endloop
  endfacet
  facet normal -0.810557 -0.433648 0.393633
    outer loop
      vertex 17.4271 101.763 62.0348
      vertex 17.3674 101.843 62
      vertex 17.3995 101.783 62
    endloop
  endfacet
  facet normal -0.809696 -0.439199 0.389225
    outer loop
      vertex 20.2969 101.936 68.2
      vertex 17.4271 101.763 62.0348
      vertex 20.3506 101.837 68.2
    endloop
  endfacet
  facet normal -0.811233 -0.439 0.386237
    outer loop
      vertex 17.8375 100.974 62
      vertex 17.4271 101.763 62.0348
      vertex 17.4522 101.686 62
    endloop
  endfacet
  facet normal -0.810008 -0.438501 0.389364
    outer loop
      vertex 17.4271 101.763 62.0348
      vertex 17.8375 100.974 62
      vertex 20.3506 101.837 68.2
    endloop
  endfacet
  facet normal 0.951073 0.308967 0
    outer loop
      vertex 12 100 62.0968
      vertex 12.0409 99.8741 62
      vertex 12 100 62
    endloop
  endfacet
  facet normal 0.95125 0.30842 0
    outer loop
      vertex 12.5729 98.2366 62.0929
      vertex 12.5729 98.2366 62
      vertex 12.5373 98.3464 62
    endloop
  endfacet
  facet normal 0.951073 0.308967 0
    outer loop
      vertex 12.0409 99.8741 62
      vertex 12 100 0
      vertex 12 100 62
    endloop
  endfacet
  facet normal 0.951053 0.309028 1.38866e-07
    outer loop
      vertex 12.5373 98.3464 62
      vertex 12 100 0
      vertex 12.0409 99.8741 62
    endloop
  endfacet
  facet normal 0.95125 0.30842 -0
    outer loop
      vertex 12.5729 98.2366 0
      vertex 12.5373 98.3464 62
      vertex 12.5729 98.2366 62
    endloop
  endfacet
  facet normal 0.951067 0.308986 -1.10808e-06
    outer loop
      vertex 12.5373 98.3464 62
      vertex 12.5729 98.2366 0
      vertex 12 100 0
    endloop
  endfacet
  facet normal -0.587395 -0.8093 0
    outer loop
      vertex 16.0263 102.781 62
      vertex 15.9271 102.853 62.0619
      vertex 15.9271 102.853 62
    endloop
  endfacet
  facet normal -0.586775 -0.80975 0
    outer loop
      vertex 17.4271 101.763 62
      vertex 17.4271 101.763 62.0348
      vertex 17.3995 101.783 62
    endloop
  endfacet
  facet normal -0.587395 -0.8093 0
    outer loop
      vertex 15.9271 102.853 0
      vertex 16.0263 102.781 62
      vertex 15.9271 102.853 62
    endloop
  endfacet
  facet normal -0.587905 -0.80893 1.24658e-06
    outer loop
      vertex 16.0263 102.781 62
      vertex 15.9271 102.853 0
      vertex 17.3995 101.783 62
    endloop
  endfacet
  facet normal -0.587851 -0.808969 -7.30682e-07
    outer loop
      vertex 17.4271 101.763 0
      vertex 17.3995 101.783 62
      vertex 15.9271 102.853 0
    endloop
  endfacet
  facet normal -0.586775 -0.80975 0
    outer loop
      vertex 17.3995 101.783 62
      vertex 17.4271 101.763 0
      vertex 17.4271 101.763 62
    endloop
  endfacet
  facet normal -0.950761 -0.309924 0
    outer loop
      vertex 17.4271 101.763 0
      vertex 17.4522 101.686 62
      vertex 17.4271 101.763 62
    endloop
  endfacet
  facet normal -0.951046 -0.309049 1.20071e-06
    outer loop
      vertex 18 100 0
      vertex 17.4522 101.686 62
      vertex 17.4271 101.763 0
    endloop
  endfacet
  facet normal -0.951059 -0.30901 0
    outer loop
      vertex 17.4522 101.686 62
      vertex 18 100 0
      vertex 18 100 62
    endloop
  endfacet
  facet normal -0.950761 -0.309924 0
    outer loop
      vertex 17.4522 101.686 62
      vertex 17.4271 101.763 62.0348
      vertex 17.4271 101.763 62
    endloop
  endfacet
  facet normal 0 -1 0
    outer loop
      vertex 14.2129 102.853 62
      vertex 14.0729 102.853 62.0813
      vertex 14.0729 102.853 62
    endloop
  endfacet
  facet normal 0 -1 0
    outer loop
      vertex 15.9271 102.853 62
      vertex 15.9271 102.853 62.0619
      vertex 15.8619 102.853 62
    endloop
  endfacet
  facet normal 0 -1 0
    outer loop
      vertex 14.0729 102.853 0
      vertex 14.2129 102.853 62
      vertex 14.0729 102.853 62
    endloop
  endfacet
  facet normal 0 -1 -0
    outer loop
      vertex 14.2129 102.853 62
      vertex 14.0729 102.853 0
      vertex 15.8619 102.853 62
    endloop
  endfacet
  facet normal 0 -1 0
    outer loop
      vertex 15.9271 102.853 0
      vertex 15.8619 102.853 62
      vertex 14.0729 102.853 0
    endloop
  endfacet
  facet normal 0 -1 0
    outer loop
      vertex 15.8619 102.853 62
      vertex 15.9271 102.853 0
      vertex 15.9271 102.853 62
    endloop
  endfacet
  facet normal -0.587929 0.808912 0
    outer loop
      vertex 15.9271 97.1468 62.0619
      vertex 16.0263 97.2189 62
      vertex 15.9271 97.1468 62
    endloop
  endfacet
  facet normal -0.586775 0.80975 0
    outer loop
      vertex 17.4271 98.2366 62.0348
      vertex 17.4271 98.2366 62
      vertex 17.3995 98.2166 62
    endloop
  endfacet
  facet normal -0.586775 0.80975 0
    outer loop
      vertex 17.4271 98.2366 0
      vertex 17.3995 98.2166 62
      vertex 17.4271 98.2366 62
    endloop
  endfacet
  facet normal -0.58779 0.809014 -6.89109e-07
    outer loop
      vertex 17.3995 98.2166 62
      vertex 17.4271 98.2366 0
      vertex 16.0263 97.2189 62
    endloop
  endfacet
  facet normal -0.58778 0.809021 -3.63972e-07
    outer loop
      vertex 15.9271 97.1468 0
      vertex 16.0263 97.2189 62
      vertex 17.4271 98.2366 0
    endloop
  endfacet
  facet normal -0.587929 0.808912 0
    outer loop
      vertex 16.0263 97.2189 62
      vertex 15.9271 97.1468 0
      vertex 15.9271 97.1468 62
    endloop
  endfacet
  facet normal 0.591181 -0.806539 0
    outer loop
      vertex 12.6875 101.847 62
      vertex 12.5729 101.763 62.0929
      vertex 12.5729 101.763 62
    endloop
  endfacet
  facet normal 0.585332 -0.810794 0
    outer loop
      vertex 14.0729 102.853 62
      vertex 14.0729 102.853 62.0813
      vertex 13.9981 102.799 62
    endloop
  endfacet
  facet normal 0.591181 -0.806539 0
    outer loop
      vertex 12.5729 101.763 0
      vertex 12.6875 101.847 62
      vertex 12.5729 101.763 62
    endloop
  endfacet
  facet normal 0.587702 -0.809078 9.86937e-06
    outer loop
      vertex 12.6875 101.847 62
      vertex 12.5729 101.763 0
      vertex 13.9981 102.799 62
    endloop
  endfacet
  facet normal 0.587851 -0.808969 4.62765e-06
    outer loop
      vertex 14.0729 102.853 0
      vertex 13.9981 102.799 62
      vertex 12.5729 101.763 0
    endloop
  endfacet
  facet normal 0.585332 -0.810794 0
    outer loop
      vertex 13.9981 102.799 62
      vertex 14.0729 102.853 0
      vertex 14.0729 102.853 62
    endloop
  endfacet
  facet normal 0.951145 -0.308745 0
    outer loop
      vertex 12.0409 100.126 62
      vertex 12 100 62.0968
      vertex 12 100 62
    endloop
  endfacet
  facet normal 0.950584 -0.310466 0
    outer loop
      vertex 12.5729 101.763 62
      vertex 12.5729 101.763 62.0929
      vertex 12.5373 101.654 62
    endloop
  endfacet
  facet normal 0.950584 -0.310466 0
    outer loop
      vertex 12.5373 101.654 62
      vertex 12.5729 101.763 0
      vertex 12.5729 101.763 62
    endloop
  endfacet
  facet normal 0.951071 -0.308973 2.90333e-06
    outer loop
      vertex 12.0409 100.126 62
      vertex 12.5729 101.763 0
      vertex 12.5373 101.654 62
    endloop
  endfacet
  facet normal 0.951145 -0.308745 0
    outer loop
      vertex 12 100 0
      vertex 12.0409 100.126 62
      vertex 12 100 62
    endloop
  endfacet
  facet normal 0.951046 -0.309049 6.8475e-07
    outer loop
      vertex 12.0409 100.126 62
      vertex 12 100 0
      vertex 12.5729 101.763 0
    endloop
  endfacet
  facet normal -0.951059 0.30901 0
    outer loop
      vertex 18 100 0
      vertex 17.4522 98.314 62
      vertex 18 100 62
    endloop
  endfacet
  facet normal -0.951067 0.308986 -7.05661e-07
    outer loop
      vertex 17.4271 98.2366 0
      vertex 17.4522 98.314 62
      vertex 18 100 0
    endloop
  endfacet
  facet normal -0.951233 0.308475 0
    outer loop
      vertex 17.4522 98.314 62
      vertex 17.4271 98.2366 0
      vertex 17.4271 98.2366 62
    endloop
  endfacet
  facet normal -0.951233 0.308475 0
    outer loop
      vertex 17.4271 98.2366 62.0348
      vertex 17.4522 98.314 62
      vertex 17.4271 98.2366 62
    endloop
  endfacet
  facet normal 0 1 0
    outer loop
      vertex 14.0729 97.1468 62.0813
      vertex 14.2129 97.1468 62
      vertex 14.0729 97.1468 62
    endloop
  endfacet
  facet normal 0 1 0
    outer loop
      vertex 15.9271 97.1468 62.0619
      vertex 15.9271 97.1468 62
      vertex 15.8619 97.1468 62
    endloop
  endfacet
  facet normal 0 1 -0
    outer loop
      vertex 15.9271 97.1468 0
      vertex 15.8619 97.1468 62
      vertex 15.9271 97.1468 62
    endloop
  endfacet
  facet normal 0 1 0
    outer loop
      vertex 15.8619 97.1468 62
      vertex 15.9271 97.1468 0
      vertex 14.2129 97.1468 62
    endloop
  endfacet
  facet normal 0 1 0
    outer loop
      vertex 14.0729 97.1468 0
      vertex 14.2129 97.1468 62
      vertex 15.9271 97.1468 0
    endloop
  endfacet
  facet normal 0 1 0
    outer loop
      vertex 14.2129 97.1468 62
      vertex 14.0729 97.1468 0
      vertex 14.0729 97.1468 62
    endloop
  endfacet
  facet normal 0.5875 0.809224 0
    outer loop
      vertex 12.5729 98.2366 62.0929
      vertex 12.6875 98.1534 62
      vertex 12.5729 98.2366 62
    endloop
  endfacet
  facet normal 0.588172 0.808736 0
    outer loop
      vertex 14.0729 97.1468 62.0813
      vertex 14.0729 97.1468 62
      vertex 13.9981 97.2012 62
    endloop
  endfacet
  facet normal 0.588172 0.808736 -0
    outer loop
      vertex 14.0729 97.1468 0
      vertex 13.9981 97.2012 62
      vertex 14.0729 97.1468 62
    endloop
  endfacet
  facet normal 0.587783 0.809019 -7.17648e-07
    outer loop
      vertex 13.9981 97.2012 62
      vertex 14.0729 97.1468 0
      vertex 12.6875 98.1534 62
    endloop
  endfacet
  facet normal 0.58778 0.809021 -7.92318e-07
    outer loop
      vertex 12.5729 98.2366 0
      vertex 12.6875 98.1534 62
      vertex 14.0729 97.1468 0
    endloop
  endfacet
  facet normal 0.5875 0.809224 0
    outer loop
      vertex 12.6875 98.1534 62
      vertex 12.5729 98.2366 0
      vertex 12.5729 98.2366 62
    endloop
  endfacet
  facet normal 0.503829 -0.771063 0.389382
    outer loop
      vertex -17.0318 102.207 62
      vertex -17.3669 105.119 68.2
      vertex -18.8315 104.162 68.2
    endloop
  endfacet
  facet normal 0.503758 0.771117 0.389366
    outer loop
      vertex -17.3669 94.8811 68.2
      vertex -17.0318 97.7928 62
      vertex -18.8315 95.8379 68.2
    endloop
  endfacet
  facet normal 0.726755 -0.565869 0.389384
    outer loop
      vertex -17.6384 101.428 62
      vertex -18.9008 104.073 68.2
      vertex -19.9753 102.693 68.2
    endloop
  endfacet
  facet normal -0.908527 -0.151565 0.389368
    outer loop
      vertex -9.34286 100 68.2
      vertex -9.6308 101.726 68.2
      vertex -12 100 62
    endloop
  endfacet
  facet normal -0.908434 -0.15206 0.389392
    outer loop
      vertex -12.1625 100.974 62
      vertex -9.6308 101.726 68.2
      vertex -9.64938 101.837 68.2
    endloop
  endfacet
  facet normal -0.908524 -0.151576 0.38937
    outer loop
      vertex -9.6308 101.726 68.2
      vertex -12.1625 100.974 62
      vertex -12 100 62
    endloop
  endfacet
  facet normal -0.0764764 -0.917903 0.389365
    outer loop
      vertex -14.2635 102.908 62
      vertex -13.7237 105.493 68.2
      vertex -15.2477 102.99 62
    endloop
  endfacet
  facet normal -0.0735214 -0.918201 0.389232
    outer loop
      vertex -13.7237 105.493 68.2
      vertex -14.2635 102.908 62
      vertex -13.6113 105.484 68.2
    endloop
  endfacet
  facet normal -0.370095 -0.843426 0.389438
    outer loop
      vertex -13.3592 102.511 62
      vertex -11.9058 104.736 68.2
      vertex -13.5079 105.439 68.2
    endloop
  endfacet
  facet normal -0.623839 0.677652 0.389375
    outer loop
      vertex -12.6326 98.1574 62
      vertex -11.9058 95.264 68.2
      vertex -10.5357 96.5253 68.2
    endloop
  endfacet
  facet normal -0.623839 0.677652 0.389375
    outer loop
      vertex -11.9058 95.264 68.2
      vertex -12.6326 98.1574 62
      vertex -13.3592 97.4885 62
    endloop
  endfacet
  facet normal 0.503778 0.771103 0.389368
    outer loop
      vertex -17.0318 97.7928 62
      vertex -17.2724 94.8193 68.2
      vertex -16.2051 97.2527 62
    endloop
  endfacet
  facet normal 0.504146 0.770903 0.389287
    outer loop
      vertex -17.2724 94.8193 68.2
      vertex -17.0318 97.7928 62
      vertex -17.3669 94.8811 68.2
    endloop
  endfacet
  facet normal 0.726764 0.565511 0.389885
    outer loop
      vertex -17.6384 98.5722 62
      vertex -17.4271 98.2366 62.0929
      vertex -17.4627 98.3464 62
    endloop
  endfacet
  facet normal 0.72668 0.565666 0.389818
    outer loop
      vertex -17.4271 98.2366 62.0929
      vertex -17.0318 97.7928 62
      vertex -17.3125 98.1534 62
    endloop
  endfacet
  facet normal 0.72705 0.565534 0.389319
    outer loop
      vertex -18.9008 95.927 68.2
      vertex -17.4271 98.2366 62.0929
      vertex -17.6384 98.5722 62
    endloop
  endfacet
  facet normal 0.726778 0.565847 0.389372
    outer loop
      vertex -18.9008 95.927 68.2
      vertex -17.0318 97.7928 62
      vertex -17.4271 98.2366 62.0929
    endloop
  endfacet
  facet normal 0.727064 0.565494 0.389352
    outer loop
      vertex -17.0318 97.7928 62
      vertex -18.9008 95.927 68.2
      vertex -18.8315 95.8379 68.2
    endloop
  endfacet
  facet normal 0.226395 -0.892837 0.389343
    outer loop
      vertex -15.2477 102.99 62
      vertex -15.4672 105.638 68.2
      vertex -17.163 105.208 68.2
    endloop
  endfacet
  facet normal 0.220728 -0.894358 0.389105
    outer loop
      vertex -16.2051 102.747 62
      vertex -17.163 105.208 68.2
      vertex -17.2724 105.181 68.2
    endloop
  endfacet
  facet normal 0.226542 -0.892784 0.389378
    outer loop
      vertex -17.163 105.208 68.2
      vertex -16.2051 102.747 62
      vertex -15.9271 102.853 62.0813
    endloop
  endfacet
  facet normal 0.228951 -0.894669 0.383599
    outer loop
      vertex -15.9271 102.853 62.0813
      vertex -16.2051 102.747 62
      vertex -16.0019 102.799 62
    endloop
  endfacet
  facet normal 0.226647 -0.892359 0.39029
    outer loop
      vertex -15.2477 102.99 62
      vertex -15.9271 102.853 62.0813
      vertex -15.7871 102.853 62
    endloop
  endfacet
  facet normal 0.22662 -0.892761 0.389385
    outer loop
      vertex -15.9271 102.853 62.0813
      vertex -15.2477 102.99 62
      vertex -17.163 105.208 68.2
    endloop
  endfacet
  facet normal 0.226096 0.892905 0.389361
    outer loop
      vertex -15.4672 94.3622 68.2
      vertex -15.2477 97.0102 62
      vertex -17.163 94.7916 68.2
    endloop
  endfacet
  facet normal -0.908521 0.151608 0.389366
    outer loop
      vertex -9.6308 98.2745 68.2
      vertex -9.34286 100 68.2
      vertex -12 100 62
    endloop
  endfacet
  facet normal 0.22625 0.892859 0.389377
    outer loop
      vertex -16.2051 97.2527 62
      vertex -17.163 94.7916 68.2
      vertex -15.9271 97.1468 62.0813
    endloop
  endfacet
  facet normal 0.226119 0.892897 0.389366
    outer loop
      vertex -15.2477 97.0102 62
      vertex -15.9271 97.1468 62.0813
      vertex -17.163 94.7916 68.2
    endloop
  endfacet
  facet normal 0.226119 0.89289 0.389381
    outer loop
      vertex -15.9271 97.1468 62.0813
      vertex -15.2477 97.0102 62
      vertex -15.7871 97.1468 62
    endloop
  endfacet
  facet normal 0.226301 0.892899 0.389255
    outer loop
      vertex -16.2051 97.2527 62
      vertex -15.9271 97.1468 62.0813
      vertex -16.0019 97.2012 62
    endloop
  endfacet
  facet normal 0.226083 0.892904 0.38937
    outer loop
      vertex -17.163 94.7916 68.2
      vertex -16.2051 97.2527 62
      vertex -17.2724 94.8193 68.2
    endloop
  endfacet
  facet normal -0.810077 0.438366 0.389372
    outer loop
      vertex -10.5357 96.5253 68.2
      vertex -9.7031 98.0639 68.2
      vertex -12.6326 98.1574 62
    endloop
  endfacet
  facet normal -0.0760258 0.917943 0.389359
    outer loop
      vertex -13.7237 94.5066 68.2
      vertex -15.2477 97.0102 62
      vertex -15.4672 94.3622 68.2
    endloop
  endfacet
  facet normal -0.908532 0.151562 0.389357
    outer loop
      vertex -12.1625 99.0259 62
      vertex -9.6308 98.2745 68.2
      vertex -12 100 62
    endloop
  endfacet
  facet normal -0.908537 0.151532 0.389356
    outer loop
      vertex -9.6308 98.2745 68.2
      vertex -12.1625 99.0259 62
      vertex -9.64938 98.1631 68.2
    endloop
  endfacet
  facet normal 0.726743 -0.56588 0.38939
    outer loop
      vertex -18.9008 104.073 68.2
      vertex -17.0318 102.207 62
      vertex -18.8315 104.162 68.2
    endloop
  endfacet
  facet normal 0.726894 -0.565694 0.389379
    outer loop
      vertex -17.4271 101.763 62.0929
      vertex -17.0318 102.207 62
      vertex -18.9008 104.073 68.2
    endloop
  endfacet
  facet normal 0.727905 -0.567563 0.384742
    outer loop
      vertex -17.0318 102.207 62
      vertex -17.4271 101.763 62.0929
      vertex -17.3125 101.847 62
    endloop
  endfacet
  facet normal 0.726447 -0.566208 0.389466
    outer loop
      vertex -17.6384 101.428 62
      vertex -17.4271 101.763 62.0929
      vertex -18.9008 104.073 68.2
    endloop
  endfacet
  facet normal 0.728512 -0.566369 0.385353
    outer loop
      vertex -17.4271 101.763 62.0929
      vertex -17.6384 101.428 62
      vertex -17.4627 101.654 62
    endloop
  endfacet
  facet normal -0.369973 0.84351 0.389372
    outer loop
      vertex -11.9058 95.264 68.2
      vertex -13.3592 97.4885 62
      vertex -13.5079 94.5613 68.2
    endloop
  endfacet
  facet normal -0.809581 0.438168 0.390624
    outer loop
      vertex -12.5729 98.2366 62.0348
      vertex -12.1625 99.0259 62
      vertex -12.5478 98.314 62
    endloop
  endfacet
  facet normal -0.810079 0.438371 0.389363
    outer loop
      vertex -12.5729 98.2366 62.0348
      vertex -9.64938 98.1631 68.2
      vertex -12.1625 99.0259 62
    endloop
  endfacet
  facet normal -0.809555 0.438965 0.389782
    outer loop
      vertex -12.6326 98.1574 62
      vertex -12.5729 98.2366 62.0348
      vertex -12.6005 98.2166 62
    endloop
  endfacet
  facet normal -0.809658 0.439303 0.389188
    outer loop
      vertex -9.7031 98.0639 68.2
      vertex -12.5729 98.2366 62.0348
      vertex -12.6326 98.1574 62
    endloop
  endfacet
  facet normal -0.809966 0.438623 0.389313
    outer loop
      vertex -12.5729 98.2366 62.0348
      vertex -9.7031 98.0639 68.2
      vertex -9.64938 98.1631 68.2
    endloop
  endfacet
  facet normal -0.369611 0.84366 0.38939
    outer loop
      vertex -13.5079 94.5613 68.2
      vertex -14.0729 97.1468 62.0619
      vertex -13.6113 94.516 68.2
    endloop
  endfacet
  facet normal -0.370065 0.843478 0.389355
    outer loop
      vertex -13.3592 97.4885 62
      vertex -14.0729 97.1468 62.0619
      vertex -13.5079 94.5613 68.2
    endloop
  endfacet
  facet normal -0.370052 0.843459 0.389407
    outer loop
      vertex -14.0729 97.1468 62.0619
      vertex -13.3592 97.4885 62
      vertex -13.9737 97.2189 62
    endloop
  endfacet
  facet normal -0.369917 0.843412 0.389638
    outer loop
      vertex -14.2635 97.0918 62
      vertex -14.0729 97.1468 62.0619
      vertex -14.1381 97.1468 62
    endloop
  endfacet
  facet normal -0.369871 0.843558 0.389366
    outer loop
      vertex -14.0729 97.1468 62.0619
      vertex -14.2635 97.0918 62
      vertex -13.6113 94.516 68.2
    endloop
  endfacet
  facet normal -0.0767608 0.917863 0.389403
    outer loop
      vertex -14.2635 97.0918 62
      vertex -13.7237 94.5066 68.2
      vertex -13.6113 94.516 68.2
    endloop
  endfacet
  facet normal -0.0761056 0.91793 0.389373
    outer loop
      vertex -13.7237 94.5066 68.2
      vertex -14.2635 97.0918 62
      vertex -15.2477 97.0102 62
    endloop
  endfacet
  facet normal -0.0763402 -0.917925 0.38934
    outer loop
      vertex -15.2477 102.99 62
      vertex -13.7237 105.493 68.2
      vertex -15.4672 105.638 68.2
    endloop
  endfacet
  facet normal 0.871198 -0.298997 0.389377
    outer loop
      vertex -17.6384 101.428 62
      vertex -19.9753 102.693 68.2
      vertex -20.5433 101.038 68.2
    endloop
  endfacet
  facet normal 0.921084 3.65218e-05 0.389363
    outer loop
      vertex -18 100 62.0968
      vertex -17.9591 100.494 62
      vertex -20.58 100.931 68.2
    endloop
  endfacet
  facet normal 0.921151 0 0.389205
    outer loop
      vertex -17.9591 100.494 62
      vertex -18 100 62.0968
      vertex -17.9591 100.126 62
    endloop
  endfacet
  facet normal 0.921082 -0 0.389368
    outer loop
      vertex -20.58 99.0689 68.2
      vertex -18 100 62.0968
      vertex -20.58 100.931 68.2
    endloop
  endfacet
  facet normal 0.921084 -3.6536e-05 0.389363
    outer loop
      vertex -17.9591 99.5062 62
      vertex -18 100 62.0968
      vertex -20.58 99.0689 68.2
    endloop
  endfacet
  facet normal 0.921151 0 0.389205
    outer loop
      vertex -18 100 62.0968
      vertex -17.9591 99.5062 62
      vertex -17.9591 99.8741 62
    endloop
  endfacet
  facet normal 0.871242 -0.298828 0.389408
    outer loop
      vertex -20.58 100.931 68.2
      vertex -17.6384 101.428 62
      vertex -20.5433 101.038 68.2
    endloop
  endfacet
  facet normal 0.871167 -0.299126 0.389348
    outer loop
      vertex -17.6384 101.428 62
      vertex -20.58 100.931 68.2
      vertex -17.9591 100.494 62
    endloop
  endfacet
  facet normal 0.871179 0.299063 0.389368
    outer loop
      vertex -19.9753 97.3075 68.2
      vertex -17.6384 98.5722 62
      vertex -20.5433 98.9621 68.2
    endloop
  endfacet
  facet normal 0.726859 0.565744 0.38937
    outer loop
      vertex -18.9008 95.927 68.2
      vertex -17.6384 98.5722 62
      vertex -19.9753 97.3075 68.2
    endloop
  endfacet
  facet normal 0.871095 0.299337 0.389347
    outer loop
      vertex -20.5433 98.9621 68.2
      vertex -17.9591 99.5062 62
      vertex -20.58 99.0689 68.2
    endloop
  endfacet
  facet normal 0.871163 0.299124 0.389357
    outer loop
      vertex -17.9591 99.5062 62
      vertex -20.5433 98.9621 68.2
      vertex -17.6384 98.5722 62
    endloop
  endfacet
  facet normal -0.62336 -0.678044 0.389458
    outer loop
      vertex -12.6326 101.843 62
      vertex -11.9058 104.736 68.2
      vertex -13.3592 102.511 62
    endloop
  endfacet
  facet normal -0.623763 -0.677731 0.389359
    outer loop
      vertex -11.9058 104.736 68.2
      vertex -12.6326 101.843 62
      vertex -10.5357 103.475 68.2
    endloop
  endfacet
  facet normal 0.505337 -0.770232 0.389073
    outer loop
      vertex -17.0318 102.207 62
      vertex -17.2724 105.181 68.2
      vertex -17.3669 105.119 68.2
    endloop
  endfacet
  facet normal 0.503696 -0.771122 0.389436
    outer loop
      vertex -17.2724 105.181 68.2
      vertex -17.0318 102.207 62
      vertex -16.2051 102.747 62
    endloop
  endfacet
  facet normal -0.367518 -0.844474 0.389609
    outer loop
      vertex -13.6113 105.484 68.2
      vertex -14.0729 102.853 62.0619
      vertex -13.5079 105.439 68.2
    endloop
  endfacet
  facet normal -0.369875 -0.843546 0.389388
    outer loop
      vertex -14.2635 102.908 62
      vertex -14.0729 102.853 62.0619
      vertex -13.6113 105.484 68.2
    endloop
  endfacet
  facet normal -0.369917 -0.843412 0.389638
    outer loop
      vertex -14.0729 102.853 62.0619
      vertex -14.2635 102.908 62
      vertex -14.1381 102.853 62
    endloop
  endfacet
  facet normal -0.370848 -0.844023 0.387423
    outer loop
      vertex -13.3592 102.511 62
      vertex -14.0729 102.853 62.0619
      vertex -13.9737 102.781 62
    endloop
  endfacet
  facet normal -0.370349 -0.843337 0.38939
    outer loop
      vertex -14.0729 102.853 62.0619
      vertex -13.3592 102.511 62
      vertex -13.5079 105.439 68.2
    endloop
  endfacet
  facet normal -0.810129 -0.43828 0.38936
    outer loop
      vertex -9.7031 101.936 68.2
      vertex -10.5357 103.475 68.2
      vertex -12.6326 101.843 62
    endloop
  endfacet
  facet normal -0.811233 -0.4358 0.389845
    outer loop
      vertex -12.5729 101.763 62.0348
      vertex -9.7031 101.936 68.2
      vertex -12.6326 101.843 62
    endloop
  endfacet
  facet normal -0.810557 -0.433648 0.393633
    outer loop
      vertex -12.5729 101.763 62.0348
      vertex -12.6326 101.843 62
      vertex -12.6005 101.783 62
    endloop
  endfacet
  facet normal -0.809637 -0.43933 0.389201
    outer loop
      vertex -9.7031 101.936 68.2
      vertex -12.5729 101.763 62.0348
      vertex -9.64938 101.837 68.2
    endloop
  endfacet
  facet normal -0.811233 -0.439 0.386237
    outer loop
      vertex -12.1625 100.974 62
      vertex -12.5729 101.763 62.0348
      vertex -12.5478 101.686 62
    endloop
  endfacet
  facet normal -0.810007 -0.4385 0.389366
    outer loop
      vertex -12.5729 101.763 62.0348
      vertex -12.1625 100.974 62
      vertex -9.64938 101.837 68.2
    endloop
  endfacet
  facet normal 0.951073 0.308967 0
    outer loop
      vertex -18 100 62.0968
      vertex -17.9591 99.8741 62
      vertex -18 100 62
    endloop
  endfacet
  facet normal 0.95125 0.30842 0
    outer loop
      vertex -17.4271 98.2366 62.0929
      vertex -17.4271 98.2366 62
      vertex -17.4627 98.3464 62
    endloop
  endfacet
  facet normal 0.951073 0.308967 0
    outer loop
      vertex -17.9591 99.8741 62
      vertex -18 100 0
      vertex -18 100 62
    endloop
  endfacet
  facet normal 0.951053 0.309028 1.38866e-07
    outer loop
      vertex -17.4627 98.3464 62
      vertex -18 100 0
      vertex -17.9591 99.8741 62
    endloop
  endfacet
  facet normal 0.95125 0.30842 -0
    outer loop
      vertex -17.4271 98.2366 0
      vertex -17.4627 98.3464 62
      vertex -17.4271 98.2366 62
    endloop
  endfacet
  facet normal 0.951067 0.308986 -1.10808e-06
    outer loop
      vertex -17.4627 98.3464 62
      vertex -17.4271 98.2366 0
      vertex -18 100 0
    endloop
  endfacet
  facet normal -0.587395 -0.8093 0
    outer loop
      vertex -13.9737 102.781 62
      vertex -14.0729 102.853 62.0619
      vertex -14.0729 102.853 62
    endloop
  endfacet
  facet normal -0.586775 -0.80975 0
    outer loop
      vertex -12.5729 101.763 62
      vertex -12.5729 101.763 62.0348
      vertex -12.6005 101.783 62
    endloop
  endfacet
  facet normal -0.587395 -0.8093 0
    outer loop
      vertex -14.0729 102.853 0
      vertex -13.9737 102.781 62
      vertex -14.0729 102.853 62
    endloop
  endfacet
  facet normal -0.587905 -0.80893 1.24658e-06
    outer loop
      vertex -13.9737 102.781 62
      vertex -14.0729 102.853 0
      vertex -12.6005 101.783 62
    endloop
  endfacet
  facet normal -0.587851 -0.808969 -7.30682e-07
    outer loop
      vertex -12.5729 101.763 0
      vertex -12.6005 101.783 62
      vertex -14.0729 102.853 0
    endloop
  endfacet
  facet normal -0.586775 -0.80975 0
    outer loop
      vertex -12.6005 101.783 62
      vertex -12.5729 101.763 0
      vertex -12.5729 101.763 62
    endloop
  endfacet
  facet normal -0.950761 -0.309924 0
    outer loop
      vertex -12.5729 101.763 0
      vertex -12.5478 101.686 62
      vertex -12.5729 101.763 62
    endloop
  endfacet
  facet normal -0.951046 -0.309049 1.20071e-06
    outer loop
      vertex -12 100 0
      vertex -12.5478 101.686 62
      vertex -12.5729 101.763 0
    endloop
  endfacet
  facet normal -0.951059 -0.30901 0
    outer loop
      vertex -12.5478 101.686 62
      vertex -12 100 0
      vertex -12 100 62
    endloop
  endfacet
  facet normal -0.950761 -0.309924 0
    outer loop
      vertex -12.5478 101.686 62
      vertex -12.5729 101.763 62.0348
      vertex -12.5729 101.763 62
    endloop
  endfacet
  facet normal 0 -1 0
    outer loop
      vertex -15.7871 102.853 62
      vertex -15.9271 102.853 62.0813
      vertex -15.9271 102.853 62
    endloop
  endfacet
  facet normal 0 -1 0
    outer loop
      vertex -14.0729 102.853 62
      vertex -14.0729 102.853 62.0619
      vertex -14.1381 102.853 62
    endloop
  endfacet
  facet normal 0 -1 0
    outer loop
      vertex -15.9271 102.853 0
      vertex -15.7871 102.853 62
      vertex -15.9271 102.853 62
    endloop
  endfacet
  facet normal 0 -1 -0
    outer loop
      vertex -15.7871 102.853 62
      vertex -15.9271 102.853 0
      vertex -14.1381 102.853 62
    endloop
  endfacet
  facet normal 0 -1 0
    outer loop
      vertex -14.0729 102.853 0
      vertex -14.1381 102.853 62
      vertex -15.9271 102.853 0
    endloop
  endfacet
  facet normal 0 -1 0
    outer loop
      vertex -14.1381 102.853 62
      vertex -14.0729 102.853 0
      vertex -14.0729 102.853 62
    endloop
  endfacet
  facet normal -0.587929 0.808912 0
    outer loop
      vertex -14.0729 97.1468 62.0619
      vertex -13.9737 97.2189 62
      vertex -14.0729 97.1468 62
    endloop
  endfacet
  facet normal -0.586775 0.80975 0
    outer loop
      vertex -12.5729 98.2366 62.0348
      vertex -12.5729 98.2366 62
      vertex -12.6005 98.2166 62
    endloop
  endfacet
  facet normal -0.586775 0.80975 0
    outer loop
      vertex -12.5729 98.2366 0
      vertex -12.6005 98.2166 62
      vertex -12.5729 98.2366 62
    endloop
  endfacet
  facet normal -0.58779 0.809014 -6.89109e-07
    outer loop
      vertex -12.6005 98.2166 62
      vertex -12.5729 98.2366 0
      vertex -13.9737 97.2189 62
    endloop
  endfacet
  facet normal -0.58778 0.809021 -3.63972e-07
    outer loop
      vertex -14.0729 97.1468 0
      vertex -13.9737 97.2189 62
      vertex -12.5729 98.2366 0
    endloop
  endfacet
  facet normal -0.587929 0.808912 0
    outer loop
      vertex -13.9737 97.2189 62
      vertex -14.0729 97.1468 0
      vertex -14.0729 97.1468 62
    endloop
  endfacet
  facet normal 0.591181 -0.806539 0
    outer loop
      vertex -17.3125 101.847 62
      vertex -17.4271 101.763 62.0929
      vertex -17.4271 101.763 62
    endloop
  endfacet
  facet normal 0.585332 -0.810794 0
    outer loop
      vertex -15.9271 102.853 62
      vertex -15.9271 102.853 62.0813
      vertex -16.0019 102.799 62
    endloop
  endfacet
  facet normal 0.591181 -0.806539 0
    outer loop
      vertex -17.4271 101.763 0
      vertex -17.3125 101.847 62
      vertex -17.4271 101.763 62
    endloop
  endfacet
  facet normal 0.587702 -0.809078 9.86937e-06
    outer loop
      vertex -17.3125 101.847 62
      vertex -17.4271 101.763 0
      vertex -16.0019 102.799 62
    endloop
  endfacet
  facet normal 0.587851 -0.808969 4.62765e-06
    outer loop
      vertex -15.9271 102.853 0
      vertex -16.0019 102.799 62
      vertex -17.4271 101.763 0
    endloop
  endfacet
  facet normal 0.585332 -0.810794 0
    outer loop
      vertex -16.0019 102.799 62
      vertex -15.9271 102.853 0
      vertex -15.9271 102.853 62
    endloop
  endfacet
  facet normal 0.951145 -0.308745 0
    outer loop
      vertex -17.9591 100.126 62
      vertex -18 100 62.0968
      vertex -18 100 62
    endloop
  endfacet
  facet normal 0.950584 -0.310466 0
    outer loop
      vertex -17.4271 101.763 62
      vertex -17.4271 101.763 62.0929
      vertex -17.4627 101.654 62
    endloop
  endfacet
  facet normal 0.950584 -0.310466 0
    outer loop
      vertex -17.4627 101.654 62
      vertex -17.4271 101.763 0
      vertex -17.4271 101.763 62
    endloop
  endfacet
  facet normal 0.951071 -0.308973 2.90333e-06
    outer loop
      vertex -17.9591 100.126 62
      vertex -17.4271 101.763 0
      vertex -17.4627 101.654 62
    endloop
  endfacet
  facet normal 0.951145 -0.308745 0
    outer loop
      vertex -18 100 0
      vertex -17.9591 100.126 62
      vertex -18 100 62
    endloop
  endfacet
  facet normal 0.951046 -0.309049 6.8475e-07
    outer loop
      vertex -17.9591 100.126 62
      vertex -18 100 0
      vertex -17.4271 101.763 0
    endloop
  endfacet
  facet normal -0.951059 0.30901 0
    outer loop
      vertex -12 100 0
      vertex -12.5478 98.314 62
      vertex -12 100 62
    endloop
  endfacet
  facet normal -0.951067 0.308986 -7.05661e-07
    outer loop
      vertex -12.5729 98.2366 0
      vertex -12.5478 98.314 62
      vertex -12 100 0
    endloop
  endfacet
  facet normal -0.951233 0.308475 0
    outer loop
      vertex -12.5478 98.314 62
      vertex -12.5729 98.2366 0
      vertex -12.5729 98.2366 62
    endloop
  endfacet
  facet normal -0.951233 0.308475 0
    outer loop
      vertex -12.5729 98.2366 62.0348
      vertex -12.5478 98.314 62
      vertex -12.5729 98.2366 62
    endloop
  endfacet
  facet normal 0 1 0
    outer loop
      vertex -15.9271 97.1468 62.0813
      vertex -15.7871 97.1468 62
      vertex -15.9271 97.1468 62
    endloop
  endfacet
  facet normal 0 1 0
    outer loop
      vertex -14.0729 97.1468 62.0619
      vertex -14.0729 97.1468 62
      vertex -14.1381 97.1468 62
    endloop
  endfacet
  facet normal 0 1 -0
    outer loop
      vertex -14.0729 97.1468 0
      vertex -14.1381 97.1468 62
      vertex -14.0729 97.1468 62
    endloop
  endfacet
  facet normal 0 1 0
    outer loop
      vertex -14.1381 97.1468 62
      vertex -14.0729 97.1468 0
      vertex -15.7871 97.1468 62
    endloop
  endfacet
  facet normal 0 1 0
    outer loop
      vertex -15.9271 97.1468 0
      vertex -15.7871 97.1468 62
      vertex -14.0729 97.1468 0
    endloop
  endfacet
  facet normal 0 1 0
    outer loop
      vertex -15.7871 97.1468 62
      vertex -15.9271 97.1468 0
      vertex -15.9271 97.1468 62
    endloop
  endfacet
  facet normal 0.5875 0.809224 0
    outer loop
      vertex -17.4271 98.2366 62.0929
      vertex -17.3125 98.1534 62
      vertex -17.4271 98.2366 62
    endloop
  endfacet
  facet normal 0.588172 0.808736 0
    outer loop
      vertex -15.9271 97.1468 62.0813
      vertex -15.9271 97.1468 62
      vertex -16.0019 97.2012 62
    endloop
  endfacet
  facet normal 0.588172 0.808736 -0
    outer loop
      vertex -15.9271 97.1468 0
      vertex -16.0019 97.2012 62
      vertex -15.9271 97.1468 62
    endloop
  endfacet
  facet normal 0.587783 0.809019 -7.17648e-07
    outer loop
      vertex -16.0019 97.2012 62
      vertex -15.9271 97.1468 0
      vertex -17.3125 98.1534 62
    endloop
  endfacet
  facet normal 0.58778 0.809021 -7.92318e-07
    outer loop
      vertex -17.4271 98.2366 0
      vertex -17.3125 98.1534 62
      vertex -15.9271 97.1468 0
    endloop
  endfacet
  facet normal 0.5875 0.809224 0
    outer loop
      vertex -17.3125 98.1534 62
      vertex -17.4271 98.2366 0
      vertex -17.4271 98.2366 62
    endloop
  endfacet
endsolid OpenSCAD_Model
