solid OpenSCAD_Model
  facet normal 0.57357 -0.819156 0
    outer loop
      vertex 7.58955 7.87267 0
      vertex 8.125 8.24759 2.9
      vertex 7.58955 7.87267 2.9
    endloop
  endfacet
  facet normal 0.57357 -0.819156 0
    outer loop
      vertex 8.125 8.24759 2.9
      vertex 7.58955 7.87267 0
      vertex 8.125 8.24759 0
    endloop
  endfacet
  facet normal 0.996195 0.0871544 0
    outer loop
      vertex 6.30697 4.34882 2.9
      vertex 6.25 5 0
      vertex 6.25 5 2.9
    endloop
  endfacet
  facet normal 0.996195 0.0871544 0
    outer loop
      vertex 6.25 5 0
      vertex 6.30697 4.34882 2.9
      vertex 6.30697 4.34882 0
    endloop
  endfacet
  facet normal -0.258815 -0.965927 0
    outer loop
      vertex 10.6512 8.69303 0
      vertex 11.2826 8.52385 2.9
      vertex 10.6512 8.69303 2.9
    endloop
  endfacet
  facet normal -0.258815 -0.965927 -0
    outer loop
      vertex 11.2826 8.52385 2.9
      vertex 10.6512 8.69303 0
      vertex 11.2826 8.52385 0
    endloop
  endfacet
  facet normal -0.819171 -0.57355 0
    outer loop
      vertex 13.2476 6.875 0
      vertex 12.8727 7.41045 2.9
      vertex 12.8727 7.41045 0
    endloop
  endfacet
  facet normal -0.819171 -0.57355 0
    outer loop
      vertex 12.8727 7.41045 2.9
      vertex 13.2476 6.875 0
      vertex 13.2476 6.875 2.9
    endloop
  endfacet
  facet normal 0.707107 0.707107 0
    outer loop
      vertex 7.58955 2.12733 2.9
      vertex 7.12733 2.58955 0
      vertex 7.12733 2.58955 2.9
    endloop
  endfacet
  facet normal 0.707107 0.707107 0
    outer loop
      vertex 7.12733 2.58955 0
      vertex 7.58955 2.12733 2.9
      vertex 7.58955 2.12733 0
    endloop
  endfacet
  facet normal 0.906305 -0.422625 0
    outer loop
      vertex 6.47615 6.28257 2.9
      vertex 6.75241 6.875 0
      vertex 6.75241 6.875 2.9
    endloop
  endfacet
  facet normal 0.906305 -0.422625 0
    outer loop
      vertex 6.75241 6.875 0
      vertex 6.47615 6.28257 2.9
      vertex 6.47615 6.28257 0
    endloop
  endfacet
  facet normal 0.819156 -0.57357 0
    outer loop
      vertex 6.75241 6.875 2.9
      vertex 7.12733 7.41045 0
      vertex 7.12733 7.41045 2.9
    endloop
  endfacet
  facet normal 0.819156 -0.57357 0
    outer loop
      vertex 7.12733 7.41045 0
      vertex 6.75241 6.875 2.9
      vertex 6.75241 6.875 0
    endloop
  endfacet
  facet normal 0.707107 -0.707107 0
    outer loop
      vertex 7.12733 7.41045 2.9
      vertex 7.58955 7.87267 0
      vertex 7.58955 7.87267 2.9
    endloop
  endfacet
  facet normal 0.707107 -0.707107 0
    outer loop
      vertex 7.58955 7.87267 0
      vertex 7.12733 7.41045 2.9
      vertex 7.12733 7.41045 0
    endloop
  endfacet
  facet normal 0.422625 -0.906305 0
    outer loop
      vertex 8.125 8.24759 0
      vertex 8.71743 8.52385 2.9
      vertex 8.125 8.24759 2.9
    endloop
  endfacet
  facet normal 0.422625 -0.906305 0
    outer loop
      vertex 8.71743 8.52385 2.9
      vertex 8.125 8.24759 0
      vertex 8.71743 8.52385 0
    endloop
  endfacet
  facet normal 0.0871544 -0.996195 0
    outer loop
      vertex 9.34882 8.69303 0
      vertex 10 8.75 2.9
      vertex 9.34882 8.69303 2.9
    endloop
  endfacet
  facet normal 0.0871544 -0.996195 0
    outer loop
      vertex 10 8.75 2.9
      vertex 9.34882 8.69303 0
      vertex 10 8.75 0
    endloop
  endfacet
  facet normal -0.996191 -0.0872 0
    outer loop
      vertex 13.75 5 0
      vertex 13.693 5.65118 2.9
      vertex 13.693 5.65118 0
    endloop
  endfacet
  facet normal -0.996191 -0.0872 0
    outer loop
      vertex 13.693 5.65118 2.9
      vertex 13.75 5 0
      vertex 13.75 5 2.9
    endloop
  endfacet
  facet normal -0.707122 -0.707091 0
    outer loop
      vertex 12.8727 7.41045 0
      vertex 12.4105 7.87267 2.9
      vertex 12.4105 7.87267 0
    endloop
  endfacet
  facet normal -0.707122 -0.707091 0
    outer loop
      vertex 12.4105 7.87267 2.9
      vertex 12.8727 7.41045 0
      vertex 12.8727 7.41045 2.9
    endloop
  endfacet
  facet normal -0.422643 -0.906296 0
    outer loop
      vertex 11.2826 8.52385 0
      vertex 11.875 8.24759 2.9
      vertex 11.2826 8.52385 2.9
    endloop
  endfacet
  facet normal -0.422643 -0.906296 -0
    outer loop
      vertex 11.875 8.24759 2.9
      vertex 11.2826 8.52385 0
      vertex 11.875 8.24759 0
    endloop
  endfacet
  facet normal -0.0871518 -0.996195 0
    outer loop
      vertex 10 8.75 0
      vertex 10.6512 8.69303 2.9
      vertex 10 8.75 2.9
    endloop
  endfacet
  facet normal -0.0871518 -0.996195 -0
    outer loop
      vertex 10.6512 8.69303 2.9
      vertex 10 8.75 0
      vertex 10.6512 8.69303 0
    endloop
  endfacet
  facet normal -0.573534 -0.819182 0
    outer loop
      vertex 11.875 8.24759 0
      vertex 12.4105 7.87267 2.9
      vertex 11.875 8.24759 2.9
    endloop
  endfacet
  facet normal -0.573534 -0.819182 -0
    outer loop
      vertex 12.4105 7.87267 2.9
      vertex 11.875 8.24759 0
      vertex 12.4105 7.87267 0
    endloop
  endfacet
  facet normal 0.996195 -0.0871544 0
    outer loop
      vertex 6.25 5 2.9
      vertex 6.30697 5.65118 0
      vertex 6.30697 5.65118 2.9
    endloop
  endfacet
  facet normal 0.996195 -0.0871544 0
    outer loop
      vertex 6.30697 5.65118 0
      vertex 6.25 5 2.9
      vertex 6.25 5 0
    endloop
  endfacet
  facet normal 0.0871544 0.996195 -0
    outer loop
      vertex 10 1.25 0
      vertex 9.34882 1.30697 2.9
      vertex 10 1.25 2.9
    endloop
  endfacet
  facet normal 0.0871544 0.996195 0
    outer loop
      vertex 9.34882 1.30697 2.9
      vertex 10 1.25 0
      vertex 9.34882 1.30697 0
    endloop
  endfacet
  facet normal 0.965926 0.258818 0
    outer loop
      vertex 6.47615 3.71743 2.9
      vertex 6.30697 4.34882 0
      vertex 6.30697 4.34882 2.9
    endloop
  endfacet
  facet normal 0.965926 0.258818 0
    outer loop
      vertex 6.30697 4.34882 0
      vertex 6.47615 3.71743 2.9
      vertex 6.47615 3.71743 0
    endloop
  endfacet
  facet normal 0.422625 0.906305 -0
    outer loop
      vertex 8.71743 1.47615 0
      vertex 8.125 1.75241 2.9
      vertex 8.71743 1.47615 2.9
    endloop
  endfacet
  facet normal 0.422625 0.906305 0
    outer loop
      vertex 8.125 1.75241 2.9
      vertex 8.71743 1.47615 0
      vertex 8.125 1.75241 0
    endloop
  endfacet
  facet normal 0.57357 0.819156 -0
    outer loop
      vertex 8.125 1.75241 0
      vertex 7.58955 2.12733 2.9
      vertex 8.125 1.75241 2.9
    endloop
  endfacet
  facet normal 0.57357 0.819156 0
    outer loop
      vertex 7.58955 2.12733 2.9
      vertex 8.125 1.75241 0
      vertex 7.58955 2.12733 0
    endloop
  endfacet
  facet normal -0.0871518 0.996195 0
    outer loop
      vertex 10.6512 1.30697 0
      vertex 10 1.25 2.9
      vertex 10.6512 1.30697 2.9
    endloop
  endfacet
  facet normal -0.0871518 0.996195 0
    outer loop
      vertex 10 1.25 2.9
      vertex 10.6512 1.30697 0
      vertex 10 1.25 0
    endloop
  endfacet
  facet normal -0.707122 0.707091 0
    outer loop
      vertex 12.4105 2.12733 0
      vertex 12.8727 2.58955 2.9
      vertex 12.8727 2.58955 0
    endloop
  endfacet
  facet normal -0.707122 0.707091 0
    outer loop
      vertex 12.8727 2.58955 2.9
      vertex 12.4105 2.12733 0
      vertex 12.4105 2.12733 2.9
    endloop
  endfacet
  facet normal -0.90634 0.42255 0
    outer loop
      vertex 13.2476 3.125 0
      vertex 13.5238 3.71743 2.9
      vertex 13.5238 3.71743 0
    endloop
  endfacet
  facet normal -0.90634 0.42255 0
    outer loop
      vertex 13.5238 3.71743 2.9
      vertex 13.2476 3.125 0
      vertex 13.2476 3.125 2.9
    endloop
  endfacet
  facet normal -0.996191 0.0872 0
    outer loop
      vertex 13.693 4.34882 0
      vertex 13.75 5 2.9
      vertex 13.75 5 0
    endloop
  endfacet
  facet normal -0.996191 0.0872 0
    outer loop
      vertex 13.75 5 2.9
      vertex 13.693 4.34882 0
      vertex 13.693 4.34882 2.9
    endloop
  endfacet
  facet normal 0 0 -1
    outer loop
      vertex 12.25 5 2.9
      vertex 13.75 5 2.9
      vertex 13.693 4.34882 2.9
    endloop
  endfacet
  facet normal 0 0 -1
    outer loop
      vertex 12.2158 4.60929 2.9
      vertex 13.693 4.34882 2.9
      vertex 13.5238 3.71743 2.9
    endloop
  endfacet
  facet normal 0 0 -1
    outer loop
      vertex 13.75 5 2.9
      vertex 12.25 5 2.9
      vertex 13.693 5.65118 2.9
    endloop
  endfacet
  facet normal 0 0 -1
    outer loop
      vertex 12.1143 4.23046 2.9
      vertex 13.5238 3.71743 2.9
      vertex 13.2476 3.125 2.9
    endloop
  endfacet
  facet normal 0 0 -1
    outer loop
      vertex 12.2158 5.39071 2.9
      vertex 13.693 5.65118 2.9
      vertex 12.25 5 2.9
    endloop
  endfacet
  facet normal 0 0 -1
    outer loop
      vertex 11.9486 3.875 2.9
      vertex 13.2476 3.125 2.9
      vertex 12.8727 2.58955 2.9
    endloop
  endfacet
  facet normal -0 0 -1
    outer loop
      vertex 13.693 5.65118 2.9
      vertex 12.2158 5.39071 2.9
      vertex 13.5238 6.28257 2.9
    endloop
  endfacet
  facet normal 0 0 -1
    outer loop
      vertex 11.7236 3.55373 2.9
      vertex 12.8727 2.58955 2.9
      vertex 12.4105 2.12733 2.9
    endloop
  endfacet
  facet normal 0 0 -1
    outer loop
      vertex 12.1143 5.76954 2.9
      vertex 13.5238 6.28257 2.9
      vertex 12.2158 5.39071 2.9
    endloop
  endfacet
  facet normal -0 0 -1
    outer loop
      vertex 13.5238 6.28257 2.9
      vertex 12.1143 5.76954 2.9
      vertex 13.2476 6.875 2.9
    endloop
  endfacet
  facet normal 0 0 -1
    outer loop
      vertex 13.693 4.34882 2.9
      vertex 12.2158 4.60929 2.9
      vertex 12.25 5 2.9
    endloop
  endfacet
  facet normal 0 0 -1
    outer loop
      vertex 13.5238 3.71743 2.9
      vertex 12.1143 4.23046 2.9
      vertex 12.2158 4.60929 2.9
    endloop
  endfacet
  facet normal 0 0 -1
    outer loop
      vertex 13.2476 3.125 2.9
      vertex 11.9486 3.875 2.9
      vertex 12.1143 4.23046 2.9
    endloop
  endfacet
  facet normal 0 0 -1
    outer loop
      vertex 11.4463 3.2764 2.9
      vertex 12.4105 2.12733 2.9
      vertex 11.875 1.75241 2.9
    endloop
  endfacet
  facet normal 0 0 -1
    outer loop
      vertex 12.8727 2.58955 2.9
      vertex 11.7236 3.55373 2.9
      vertex 11.9486 3.875 2.9
    endloop
  endfacet
  facet normal 0 0 -1
    outer loop
      vertex 12.4105 2.12733 2.9
      vertex 11.4463 3.2764 2.9
      vertex 11.7236 3.55373 2.9
    endloop
  endfacet
  facet normal 0 0 -1
    outer loop
      vertex 11.125 3.05144 2.9
      vertex 11.875 1.75241 2.9
      vertex 11.2826 1.47615 2.9
    endloop
  endfacet
  facet normal 0 0 -1
    outer loop
      vertex 11.875 1.75241 2.9
      vertex 11.125 3.05144 2.9
      vertex 11.4463 3.2764 2.9
    endloop
  endfacet
  facet normal 0 0 -1
    outer loop
      vertex 11.2826 1.47615 2.9
      vertex 10.7695 2.88569 2.9
      vertex 11.125 3.05144 2.9
    endloop
  endfacet
  facet normal 0 0 -1
    outer loop
      vertex 10.6512 1.30697 2.9
      vertex 10.7695 2.88569 2.9
      vertex 11.2826 1.47615 2.9
    endloop
  endfacet
  facet normal 0 0 -1
    outer loop
      vertex 10.6512 1.30697 2.9
      vertex 10.3907 2.78418 2.9
      vertex 10.7695 2.88569 2.9
    endloop
  endfacet
  facet normal 0 0 -1
    outer loop
      vertex 10 1.25 2.9
      vertex 10.3907 2.78418 2.9
      vertex 10.6512 1.30697 2.9
    endloop
  endfacet
  facet normal 0 0 -1
    outer loop
      vertex 10 1.25 2.9
      vertex 10 2.75 2.9
      vertex 10.3907 2.78418 2.9
    endloop
  endfacet
  facet normal 0 0 -1
    outer loop
      vertex 10 1.25 2.9
      vertex 9.60929 2.78418 2.9
      vertex 10 2.75 2.9
    endloop
  endfacet
  facet normal 0 0 -1
    outer loop
      vertex 9.34882 1.30697 2.9
      vertex 9.60929 2.78418 2.9
      vertex 10 1.25 2.9
    endloop
  endfacet
  facet normal 0 0 -1
    outer loop
      vertex 9.34882 1.30697 2.9
      vertex 9.23046 2.88569 2.9
      vertex 9.60929 2.78418 2.9
    endloop
  endfacet
  facet normal 0 0 -1
    outer loop
      vertex 8.71743 1.47615 2.9
      vertex 9.23046 2.88569 2.9
      vertex 9.34882 1.30697 2.9
    endloop
  endfacet
  facet normal -0 0 -1
    outer loop
      vertex 9.23046 2.88569 2.9
      vertex 8.71743 1.47615 2.9
      vertex 8.875 3.05144 2.9
    endloop
  endfacet
  facet normal 0 0 -1
    outer loop
      vertex 8.125 1.75241 2.9
      vertex 8.875 3.05144 2.9
      vertex 8.71743 1.47615 2.9
    endloop
  endfacet
  facet normal -0 0 -1
    outer loop
      vertex 8.875 3.05144 2.9
      vertex 8.125 1.75241 2.9
      vertex 8.55373 3.2764 2.9
    endloop
  endfacet
  facet normal 0 0 -1
    outer loop
      vertex 7.58955 2.12733 2.9
      vertex 8.55373 3.2764 2.9
      vertex 8.125 1.75241 2.9
    endloop
  endfacet
  facet normal -0 0 -1
    outer loop
      vertex 8.55373 3.2764 2.9
      vertex 7.58955 2.12733 2.9
      vertex 8.2764 3.55373 2.9
    endloop
  endfacet
  facet normal 0 0 -1
    outer loop
      vertex 7.12733 2.58955 2.9
      vertex 8.2764 3.55373 2.9
      vertex 7.58955 2.12733 2.9
    endloop
  endfacet
  facet normal -0 0 -1
    outer loop
      vertex 8.2764 3.55373 2.9
      vertex 7.12733 2.58955 2.9
      vertex 8.05144 3.875 2.9
    endloop
  endfacet
  facet normal -0 0 -1
    outer loop
      vertex 8.05144 3.875 2.9
      vertex 6.75241 3.125 2.9
      vertex 7.88569 4.23046 2.9
    endloop
  endfacet
  facet normal 0 0 -1
    outer loop
      vertex 6.75241 3.125 2.9
      vertex 8.05144 3.875 2.9
      vertex 7.12733 2.58955 2.9
    endloop
  endfacet
  facet normal 0 0 -1
    outer loop
      vertex 11.9486 6.125 2.9
      vertex 13.2476 6.875 2.9
      vertex 12.1143 5.76954 2.9
    endloop
  endfacet
  facet normal -0 0 -1
    outer loop
      vertex 13.2476 6.875 2.9
      vertex 11.9486 6.125 2.9
      vertex 12.8727 7.41045 2.9
    endloop
  endfacet
  facet normal 0 0 -1
    outer loop
      vertex 11.7236 6.44627 2.9
      vertex 12.8727 7.41045 2.9
      vertex 11.9486 6.125 2.9
    endloop
  endfacet
  facet normal -0 0 -1
    outer loop
      vertex 12.8727 7.41045 2.9
      vertex 11.7236 6.44627 2.9
      vertex 12.4105 7.87267 2.9
    endloop
  endfacet
  facet normal 0 0 -1
    outer loop
      vertex 11.4463 6.7236 2.9
      vertex 12.4105 7.87267 2.9
      vertex 11.7236 6.44627 2.9
    endloop
  endfacet
  facet normal -0 0 -1
    outer loop
      vertex 12.4105 7.87267 2.9
      vertex 11.4463 6.7236 2.9
      vertex 11.875 8.24759 2.9
    endloop
  endfacet
  facet normal 0 0 -1
    outer loop
      vertex 11.125 6.94856 2.9
      vertex 11.875 8.24759 2.9
      vertex 11.4463 6.7236 2.9
    endloop
  endfacet
  facet normal -0 0 -1
    outer loop
      vertex 11.875 8.24759 2.9
      vertex 11.125 6.94856 2.9
      vertex 11.2826 8.52385 2.9
    endloop
  endfacet
  facet normal 0 0 -1
    outer loop
      vertex 10.7695 7.11431 2.9
      vertex 11.2826 8.52385 2.9
      vertex 11.125 6.94856 2.9
    endloop
  endfacet
  facet normal 0 0 -1
    outer loop
      vertex 10.7695 7.11431 2.9
      vertex 10.6512 8.69303 2.9
      vertex 11.2826 8.52385 2.9
    endloop
  endfacet
  facet normal 0 0 -1
    outer loop
      vertex 10.3907 7.21582 2.9
      vertex 10.6512 8.69303 2.9
      vertex 10.7695 7.11431 2.9
    endloop
  endfacet
  facet normal 0 0 -1
    outer loop
      vertex 10 7.25 2.9
      vertex 10.6512 8.69303 2.9
      vertex 10.3907 7.21582 2.9
    endloop
  endfacet
  facet normal 0 0 -1
    outer loop
      vertex 10 7.25 2.9
      vertex 10 8.75 2.9
      vertex 10.6512 8.69303 2.9
    endloop
  endfacet
  facet normal 0 0 -1
    outer loop
      vertex 9.60929 7.21582 2.9
      vertex 10 8.75 2.9
      vertex 10 7.25 2.9
    endloop
  endfacet
  facet normal 0 0 -1
    outer loop
      vertex 9.60929 7.21582 2.9
      vertex 9.34882 8.69303 2.9
      vertex 10 8.75 2.9
    endloop
  endfacet
  facet normal 0 0 -1
    outer loop
      vertex 9.23046 7.11431 2.9
      vertex 9.34882 8.69303 2.9
      vertex 9.60929 7.21582 2.9
    endloop
  endfacet
  facet normal 0 0 -1
    outer loop
      vertex 8.71743 8.52385 2.9
      vertex 9.23046 7.11431 2.9
      vertex 8.875 6.94856 2.9
    endloop
  endfacet
  facet normal 0 0 -1
    outer loop
      vertex 9.23046 7.11431 2.9
      vertex 8.71743 8.52385 2.9
      vertex 9.34882 8.69303 2.9
    endloop
  endfacet
  facet normal 0 0 -1
    outer loop
      vertex 8.125 8.24759 2.9
      vertex 8.875 6.94856 2.9
      vertex 8.55373 6.7236 2.9
    endloop
  endfacet
  facet normal 0 0 -1
    outer loop
      vertex 7.58955 7.87267 2.9
      vertex 8.55373 6.7236 2.9
      vertex 8.2764 6.44627 2.9
    endloop
  endfacet
  facet normal 0 0 -1
    outer loop
      vertex 8.875 6.94856 2.9
      vertex 8.125 8.24759 2.9
      vertex 8.71743 8.52385 2.9
    endloop
  endfacet
  facet normal 0 0 -1
    outer loop
      vertex 7.12733 7.41045 2.9
      vertex 8.2764 6.44627 2.9
      vertex 8.05144 6.125 2.9
    endloop
  endfacet
  facet normal 0 0 -1
    outer loop
      vertex 6.75241 6.875 2.9
      vertex 8.05144 6.125 2.9
      vertex 7.88569 5.76954 2.9
    endloop
  endfacet
  facet normal 0 0 -1
    outer loop
      vertex 6.47615 6.28257 2.9
      vertex 7.88569 5.76954 2.9
      vertex 7.78418 5.39071 2.9
    endloop
  endfacet
  facet normal 0 0 -1
    outer loop
      vertex 8.55373 6.7236 2.9
      vertex 7.58955 7.87267 2.9
      vertex 8.125 8.24759 2.9
    endloop
  endfacet
  facet normal 0 0 -1
    outer loop
      vertex 6.30697 5.65118 2.9
      vertex 7.78418 5.39071 2.9
      vertex 7.75 5 2.9
    endloop
  endfacet
  facet normal 0 0 -1
    outer loop
      vertex 6.47615 3.71743 2.9
      vertex 7.88569 4.23046 2.9
      vertex 6.75241 3.125 2.9
    endloop
  endfacet
  facet normal -0 0 -1
    outer loop
      vertex 7.88569 4.23046 2.9
      vertex 6.47615 3.71743 2.9
      vertex 7.78418 4.60929 2.9
    endloop
  endfacet
  facet normal 0 0 -1
    outer loop
      vertex 8.2764 6.44627 2.9
      vertex 7.12733 7.41045 2.9
      vertex 7.58955 7.87267 2.9
    endloop
  endfacet
  facet normal 0 0 -1
    outer loop
      vertex 6.30697 4.34882 2.9
      vertex 7.78418 4.60929 2.9
      vertex 6.47615 3.71743 2.9
    endloop
  endfacet
  facet normal 0 0 -1
    outer loop
      vertex 8.05144 6.125 2.9
      vertex 6.75241 6.875 2.9
      vertex 7.12733 7.41045 2.9
    endloop
  endfacet
  facet normal -0 0 -1
    outer loop
      vertex 7.78418 4.60929 2.9
      vertex 6.30697 4.34882 2.9
      vertex 7.75 5 2.9
    endloop
  endfacet
  facet normal 0 0 -1
    outer loop
      vertex 7.88569 5.76954 2.9
      vertex 6.47615 6.28257 2.9
      vertex 6.75241 6.875 2.9
    endloop
  endfacet
  facet normal 0 0 -1
    outer loop
      vertex 6.25 5 2.9
      vertex 7.75 5 2.9
      vertex 6.30697 4.34882 2.9
    endloop
  endfacet
  facet normal 0 0 -1
    outer loop
      vertex 7.78418 5.39071 2.9
      vertex 6.30697 5.65118 2.9
      vertex 6.47615 6.28257 2.9
    endloop
  endfacet
  facet normal 0 0 -1
    outer loop
      vertex 7.75 5 2.9
      vertex 6.25 5 2.9
      vertex 6.30697 5.65118 2.9
    endloop
  endfacet
  facet normal -0.819171 0.57355 0
    outer loop
      vertex 12.8727 2.58955 0
      vertex 13.2476 3.125 2.9
      vertex 13.2476 3.125 0
    endloop
  endfacet
  facet normal -0.819171 0.57355 0
    outer loop
      vertex 13.2476 3.125 2.9
      vertex 12.8727 2.58955 0
      vertex 12.8727 2.58955 2.9
    endloop
  endfacet
  facet normal 0.965926 -0.258818 0
    outer loop
      vertex 6.30697 5.65118 2.9
      vertex 6.47615 6.28257 0
      vertex 6.47615 6.28257 2.9
    endloop
  endfacet
  facet normal 0.965926 -0.258818 0
    outer loop
      vertex 6.47615 6.28257 0
      vertex 6.30697 5.65118 2.9
      vertex 6.30697 5.65118 0
    endloop
  endfacet
  facet normal 0.258818 -0.965926 0
    outer loop
      vertex 8.71743 8.52385 0
      vertex 9.34882 8.69303 2.9
      vertex 8.71743 8.52385 2.9
    endloop
  endfacet
  facet normal 0.258818 -0.965926 0
    outer loop
      vertex 9.34882 8.69303 2.9
      vertex 8.71743 8.52385 0
      vertex 9.34882 8.69303 0
    endloop
  endfacet
  facet normal -0.90634 -0.42255 0
    outer loop
      vertex 13.5238 6.28257 0
      vertex 13.2476 6.875 2.9
      vertex 13.2476 6.875 0
    endloop
  endfacet
  facet normal -0.90634 -0.42255 0
    outer loop
      vertex 13.2476 6.875 2.9
      vertex 13.5238 6.28257 0
      vertex 13.5238 6.28257 2.9
    endloop
  endfacet
  facet normal -0.965918 -0.258847 0
    outer loop
      vertex 13.693 5.65118 0
      vertex 13.5238 6.28257 2.9
      vertex 13.5238 6.28257 0
    endloop
  endfacet
  facet normal -0.965918 -0.258847 0
    outer loop
      vertex 13.5238 6.28257 2.9
      vertex 13.693 5.65118 0
      vertex 13.693 5.65118 2.9
    endloop
  endfacet
  facet normal 0.819156 0.57357 0
    outer loop
      vertex 7.12733 2.58955 2.9
      vertex 6.75241 3.125 0
      vertex 6.75241 3.125 2.9
    endloop
  endfacet
  facet normal 0.819156 0.57357 0
    outer loop
      vertex 6.75241 3.125 0
      vertex 7.12733 2.58955 2.9
      vertex 7.12733 2.58955 0
    endloop
  endfacet
  facet normal 0.906305 0.422625 0
    outer loop
      vertex 6.75241 3.125 2.9
      vertex 6.47615 3.71743 0
      vertex 6.47615 3.71743 2.9
    endloop
  endfacet
  facet normal 0.906305 0.422625 0
    outer loop
      vertex 6.47615 3.71743 0
      vertex 6.75241 3.125 2.9
      vertex 6.75241 3.125 0
    endloop
  endfacet
  facet normal 0.258818 0.965926 -0
    outer loop
      vertex 9.34882 1.30697 0
      vertex 8.71743 1.47615 2.9
      vertex 9.34882 1.30697 2.9
    endloop
  endfacet
  facet normal 0.258818 0.965926 0
    outer loop
      vertex 8.71743 1.47615 2.9
      vertex 9.34882 1.30697 0
      vertex 8.71743 1.47615 0
    endloop
  endfacet
  facet normal -0.422643 0.906296 0
    outer loop
      vertex 11.875 1.75241 0
      vertex 11.2826 1.47615 2.9
      vertex 11.875 1.75241 2.9
    endloop
  endfacet
  facet normal -0.422643 0.906296 0
    outer loop
      vertex 11.2826 1.47615 2.9
      vertex 11.875 1.75241 0
      vertex 11.2826 1.47615 0
    endloop
  endfacet
  facet normal -0.573534 0.819182 0
    outer loop
      vertex 12.4105 2.12733 0
      vertex 11.875 1.75241 2.9
      vertex 12.4105 2.12733 2.9
    endloop
  endfacet
  facet normal -0.573534 0.819182 0
    outer loop
      vertex 11.875 1.75241 2.9
      vertex 12.4105 2.12733 0
      vertex 11.875 1.75241 0
    endloop
  endfacet
  facet normal -0.965918 0.258847 0
    outer loop
      vertex 13.5238 3.71743 0
      vertex 13.693 4.34882 2.9
      vertex 13.693 4.34882 0
    endloop
  endfacet
  facet normal -0.965918 0.258847 0
    outer loop
      vertex 13.693 4.34882 2.9
      vertex 13.5238 3.71743 0
      vertex 13.5238 3.71743 2.9
    endloop
  endfacet
  facet normal -0.258815 0.965927 0
    outer loop
      vertex 11.2826 1.47615 0
      vertex 10.6512 1.30697 2.9
      vertex 11.2826 1.47615 2.9
    endloop
  endfacet
  facet normal -0.258815 0.965927 0
    outer loop
      vertex 10.6512 1.30697 2.9
      vertex 11.2826 1.47615 0
      vertex 10.6512 1.30697 0
    endloop
  endfacet
  facet normal 0.573584 -0.819147 0
    outer loop
      vertex 8.55373 6.7236 2.9
      vertex 8.875 6.94856 6.6
      vertex 8.55373 6.7236 6.6
    endloop
  endfacet
  facet normal 0.573584 -0.819147 0
    outer loop
      vertex 8.875 6.94856 6.6
      vertex 8.55373 6.7236 2.9
      vertex 8.875 6.94856 2.9
    endloop
  endfacet
  facet normal -0.90636 -0.422506 0
    outer loop
      vertex 12.1143 5.76954 2.9
      vertex 11.9486 6.125 6.6
      vertex 11.9486 6.125 2.9
    endloop
  endfacet
  facet normal -0.90636 -0.422506 0
    outer loop
      vertex 11.9486 6.125 6.6
      vertex 12.1143 5.76954 2.9
      vertex 12.1143 5.76954 6.6
    endloop
  endfacet
  facet normal -0.422571 0.90633 0
    outer loop
      vertex 11.125 3.05144 2.9
      vertex 10.7695 2.88569 6.6
      vertex 11.125 3.05144 6.6
    endloop
  endfacet
  facet normal -0.422571 0.90633 0
    outer loop
      vertex 10.7695 2.88569 6.6
      vertex 11.125 3.05144 2.9
      vertex 10.7695 2.88569 2.9
    endloop
  endfacet
  facet normal -0.258845 -0.965919 0
    outer loop
      vertex 10.3907 7.21582 2.9
      vertex 10.7695 7.11431 6.6
      vertex 10.3907 7.21582 6.6
    endloop
  endfacet
  facet normal -0.258845 -0.965919 -0
    outer loop
      vertex 10.7695 7.11431 6.6
      vertex 10.3907 7.21582 2.9
      vertex 10.7695 7.11431 2.9
    endloop
  endfacet
  facet normal -0.819099 -0.573652 0
    outer loop
      vertex 11.9486 6.125 2.9
      vertex 11.7236 6.44627 6.6
      vertex 11.7236 6.44627 2.9
    endloop
  endfacet
  facet normal -0.819099 -0.573652 0
    outer loop
      vertex 11.7236 6.44627 6.6
      vertex 11.9486 6.125 2.9
      vertex 11.9486 6.125 6.6
    endloop
  endfacet
  facet normal 0.906311 -0.42261 0
    outer loop
      vertex 7.88569 5.76954 6.6
      vertex 8.05144 6.125 2.9
      vertex 8.05144 6.125 6.6
    endloop
  endfacet
  facet normal 0.906311 -0.42261 0
    outer loop
      vertex 8.05144 6.125 2.9
      vertex 7.88569 5.76954 6.6
      vertex 7.88569 5.76954 2.9
    endloop
  endfacet
  facet normal 0.819147 -0.573584 0
    outer loop
      vertex 8.05144 6.125 6.6
      vertex 8.2764 6.44627 2.9
      vertex 8.2764 6.44627 6.6
    endloop
  endfacet
  facet normal 0.819147 -0.573584 0
    outer loop
      vertex 8.2764 6.44627 2.9
      vertex 8.05144 6.125 6.6
      vertex 8.05144 6.125 2.9
    endloop
  endfacet
  facet normal 0.707107 -0.707107 0
    outer loop
      vertex 8.2764 6.44627 6.6
      vertex 8.55373 6.7236 2.9
      vertex 8.55373 6.7236 6.6
    endloop
  endfacet
  facet normal 0.707107 -0.707107 0
    outer loop
      vertex 8.55373 6.7236 2.9
      vertex 8.2764 6.44627 6.6
      vertex 8.2764 6.44627 2.9
    endloop
  endfacet
  facet normal 0.42261 -0.906311 0
    outer loop
      vertex 8.875 6.94856 2.9
      vertex 9.23046 7.11431 6.6
      vertex 8.875 6.94856 6.6
    endloop
  endfacet
  facet normal 0.42261 -0.906311 0
    outer loop
      vertex 9.23046 7.11431 6.6
      vertex 8.875 6.94856 2.9
      vertex 9.23046 7.11431 2.9
    endloop
  endfacet
  facet normal 0.0871489 -0.996195 0
    outer loop
      vertex 9.60929 7.21582 2.9
      vertex 10 7.25 6.6
      vertex 9.60929 7.21582 6.6
    endloop
  endfacet
  facet normal 0.0871489 -0.996195 0
    outer loop
      vertex 10 7.25 6.6
      vertex 9.60929 7.21582 2.9
      vertex 10 7.25 2.9
    endloop
  endfacet
  facet normal 0.258826 -0.965924 0
    outer loop
      vertex 9.23046 7.11431 2.9
      vertex 9.60929 7.21582 6.6
      vertex 9.23046 7.11431 6.6
    endloop
  endfacet
  facet normal 0.258826 -0.965924 0
    outer loop
      vertex 9.60929 7.21582 6.6
      vertex 9.23046 7.11431 2.9
      vertex 9.60929 7.21582 2.9
    endloop
  endfacet
  facet normal -0.96593 -0.258802 0
    outer loop
      vertex 12.2158 5.39071 2.9
      vertex 12.1143 5.76954 6.6
      vertex 12.1143 5.76954 2.9
    endloop
  endfacet
  facet normal -0.96593 -0.258802 0
    outer loop
      vertex 12.1143 5.76954 6.6
      vertex 12.2158 5.39071 2.9
      vertex 12.2158 5.39071 6.6
    endloop
  endfacet
  facet normal -0.707145 -0.707069 0
    outer loop
      vertex 11.7236 6.44627 2.9
      vertex 11.4463 6.7236 6.6
      vertex 11.4463 6.7236 2.9
    endloop
  endfacet
  facet normal -0.707145 -0.707069 0
    outer loop
      vertex 11.4463 6.7236 6.6
      vertex 11.7236 6.44627 2.9
      vertex 11.7236 6.44627 6.6
    endloop
  endfacet
  facet normal -0.422571 -0.90633 0
    outer loop
      vertex 10.7695 7.11431 2.9
      vertex 11.125 6.94856 6.6
      vertex 10.7695 7.11431 6.6
    endloop
  endfacet
  facet normal -0.422571 -0.90633 -0
    outer loop
      vertex 11.125 6.94856 6.6
      vertex 10.7695 7.11431 2.9
      vertex 11.125 6.94856 2.9
    endloop
  endfacet
  facet normal -0.0871511 -0.996195 0
    outer loop
      vertex 10 7.25 2.9
      vertex 10.3907 7.21582 6.6
      vertex 10 7.25 6.6
    endloop
  endfacet
  facet normal -0.0871511 -0.996195 -0
    outer loop
      vertex 10.3907 7.21582 6.6
      vertex 10 7.25 2.9
      vertex 10.3907 7.21582 2.9
    endloop
  endfacet
  facet normal -0.573548 -0.819172 0
    outer loop
      vertex 11.125 6.94856 2.9
      vertex 11.4463 6.7236 6.6
      vertex 11.125 6.94856 6.6
    endloop
  endfacet
  facet normal -0.573548 -0.819172 -0
    outer loop
      vertex 11.4463 6.7236 6.6
      vertex 11.125 6.94856 2.9
      vertex 11.4463 6.7236 2.9
    endloop
  endfacet
  facet normal 0.996195 -0.0871489 0
    outer loop
      vertex 7.75 5 6.6
      vertex 7.78418 5.39071 2.9
      vertex 7.78418 5.39071 6.6
    endloop
  endfacet
  facet normal 0.996195 -0.0871489 0
    outer loop
      vertex 7.78418 5.39071 2.9
      vertex 7.75 5 6.6
      vertex 7.75 5 2.9
    endloop
  endfacet
  facet normal 0.42261 0.906311 -0
    outer loop
      vertex 9.23046 2.88569 2.9
      vertex 8.875 3.05144 6.6
      vertex 9.23046 2.88569 6.6
    endloop
  endfacet
  facet normal 0.42261 0.906311 0
    outer loop
      vertex 8.875 3.05144 6.6
      vertex 9.23046 2.88569 2.9
      vertex 8.875 3.05144 2.9
    endloop
  endfacet
  facet normal 0.573584 0.819147 -0
    outer loop
      vertex 8.875 3.05144 2.9
      vertex 8.55373 3.2764 6.6
      vertex 8.875 3.05144 6.6
    endloop
  endfacet
  facet normal 0.573584 0.819147 0
    outer loop
      vertex 8.55373 3.2764 6.6
      vertex 8.875 3.05144 2.9
      vertex 8.55373 3.2764 2.9
    endloop
  endfacet
  facet normal 0.819147 0.573584 0
    outer loop
      vertex 8.2764 3.55373 6.6
      vertex 8.05144 3.875 2.9
      vertex 8.05144 3.875 6.6
    endloop
  endfacet
  facet normal 0.819147 0.573584 0
    outer loop
      vertex 8.05144 3.875 2.9
      vertex 8.2764 3.55373 6.6
      vertex 8.2764 3.55373 2.9
    endloop
  endfacet
  facet normal -0.258845 0.965919 0
    outer loop
      vertex 10.7695 2.88569 2.9
      vertex 10.3907 2.78418 6.6
      vertex 10.7695 2.88569 6.6
    endloop
  endfacet
  facet normal -0.258845 0.965919 0
    outer loop
      vertex 10.3907 2.78418 6.6
      vertex 10.7695 2.88569 2.9
      vertex 10.3907 2.78418 2.9
    endloop
  endfacet
  facet normal -0.707145 0.707069 0
    outer loop
      vertex 11.4463 3.2764 2.9
      vertex 11.7236 3.55373 6.6
      vertex 11.7236 3.55373 2.9
    endloop
  endfacet
  facet normal -0.707145 0.707069 0
    outer loop
      vertex 11.7236 3.55373 6.6
      vertex 11.4463 3.2764 2.9
      vertex 11.4463 3.2764 6.6
    endloop
  endfacet
  facet normal -0.90636 0.422506 0
    outer loop
      vertex 11.9486 3.875 2.9
      vertex 12.1143 4.23046 6.6
      vertex 12.1143 4.23046 2.9
    endloop
  endfacet
  facet normal -0.90636 0.422506 0
    outer loop
      vertex 12.1143 4.23046 6.6
      vertex 11.9486 3.875 2.9
      vertex 11.9486 3.875 6.6
    endloop
  endfacet
  facet normal -0.996191 0.0871995 0
    outer loop
      vertex 12.2158 4.60929 2.9
      vertex 12.25 5 6.6
      vertex 12.25 5 2.9
    endloop
  endfacet
  facet normal -0.996191 0.0871995 0
    outer loop
      vertex 12.25 5 6.6
      vertex 12.2158 4.60929 2.9
      vertex 12.2158 4.60929 6.6
    endloop
  endfacet
  facet normal -0.819099 0.573652 0
    outer loop
      vertex 11.7236 3.55373 2.9
      vertex 11.9486 3.875 6.6
      vertex 11.9486 3.875 2.9
    endloop
  endfacet
  facet normal -0.819099 0.573652 0
    outer loop
      vertex 11.9486 3.875 6.6
      vertex 11.7236 3.55373 2.9
      vertex 11.7236 3.55373 6.6
    endloop
  endfacet
  facet normal 0.965924 -0.258826 0
    outer loop
      vertex 7.78418 5.39071 6.6
      vertex 7.88569 5.76954 2.9
      vertex 7.88569 5.76954 6.6
    endloop
  endfacet
  facet normal 0.965924 -0.258826 0
    outer loop
      vertex 7.88569 5.76954 2.9
      vertex 7.78418 5.39071 6.6
      vertex 7.78418 5.39071 2.9
    endloop
  endfacet
  facet normal -0.996191 -0.0871995 0
    outer loop
      vertex 12.25 5 2.9
      vertex 12.2158 5.39071 6.6
      vertex 12.2158 5.39071 2.9
    endloop
  endfacet
  facet normal -0.996191 -0.0871995 0
    outer loop
      vertex 12.2158 5.39071 6.6
      vertex 12.25 5 2.9
      vertex 12.25 5 6.6
    endloop
  endfacet
  facet normal 0.965924 0.258826 0
    outer loop
      vertex 7.88569 4.23046 6.6
      vertex 7.78418 4.60929 2.9
      vertex 7.78418 4.60929 6.6
    endloop
  endfacet
  facet normal 0.965924 0.258826 0
    outer loop
      vertex 7.78418 4.60929 2.9
      vertex 7.88569 4.23046 6.6
      vertex 7.88569 4.23046 2.9
    endloop
  endfacet
  facet normal 0.0871489 0.996195 -0
    outer loop
      vertex 10 2.75 2.9
      vertex 9.60929 2.78418 6.6
      vertex 10 2.75 6.6
    endloop
  endfacet
  facet normal 0.0871489 0.996195 0
    outer loop
      vertex 9.60929 2.78418 6.6
      vertex 10 2.75 2.9
      vertex 9.60929 2.78418 2.9
    endloop
  endfacet
  facet normal 0.707107 0.707107 0
    outer loop
      vertex 8.55373 3.2764 6.6
      vertex 8.2764 3.55373 2.9
      vertex 8.2764 3.55373 6.6
    endloop
  endfacet
  facet normal 0.707107 0.707107 0
    outer loop
      vertex 8.2764 3.55373 2.9
      vertex 8.55373 3.2764 6.6
      vertex 8.55373 3.2764 2.9
    endloop
  endfacet
  facet normal 0.906311 0.42261 0
    outer loop
      vertex 8.05144 3.875 6.6
      vertex 7.88569 4.23046 2.9
      vertex 7.88569 4.23046 6.6
    endloop
  endfacet
  facet normal 0.906311 0.42261 0
    outer loop
      vertex 7.88569 4.23046 2.9
      vertex 8.05144 3.875 6.6
      vertex 8.05144 3.875 2.9
    endloop
  endfacet
  facet normal -0.0871511 0.996195 0
    outer loop
      vertex 10.3907 2.78418 2.9
      vertex 10 2.75 6.6
      vertex 10.3907 2.78418 6.6
    endloop
  endfacet
  facet normal -0.0871511 0.996195 0
    outer loop
      vertex 10 2.75 6.6
      vertex 10.3907 2.78418 2.9
      vertex 10 2.75 2.9
    endloop
  endfacet
  facet normal -0.573548 0.819172 0
    outer loop
      vertex 11.4463 3.2764 2.9
      vertex 11.125 3.05144 6.6
      vertex 11.4463 3.2764 6.6
    endloop
  endfacet
  facet normal -0.573548 0.819172 0
    outer loop
      vertex 11.125 3.05144 6.6
      vertex 11.4463 3.2764 2.9
      vertex 11.125 3.05144 2.9
    endloop
  endfacet
  facet normal -0.96593 0.258802 0
    outer loop
      vertex 12.1143 4.23046 2.9
      vertex 12.2158 4.60929 6.6
      vertex 12.2158 4.60929 2.9
    endloop
  endfacet
  facet normal -0.96593 0.258802 0
    outer loop
      vertex 12.2158 4.60929 6.6
      vertex 12.1143 4.23046 2.9
      vertex 12.1143 4.23046 6.6
    endloop
  endfacet
  facet normal 0.996195 0.0871489 0
    outer loop
      vertex 7.78418 4.60929 6.6
      vertex 7.75 5 2.9
      vertex 7.75 5 6.6
    endloop
  endfacet
  facet normal 0.996195 0.0871489 0
    outer loop
      vertex 7.75 5 2.9
      vertex 7.78418 4.60929 6.6
      vertex 7.78418 4.60929 2.9
    endloop
  endfacet
  facet normal 0.258826 0.965924 -0
    outer loop
      vertex 9.60929 2.78418 2.9
      vertex 9.23046 2.88569 6.6
      vertex 9.60929 2.78418 6.6
    endloop
  endfacet
  facet normal 0.258826 0.965924 0
    outer loop
      vertex 9.23046 2.88569 6.6
      vertex 9.60929 2.78418 2.9
      vertex 9.23046 2.88569 2.9
    endloop
  endfacet
  facet normal -1 0 0
    outer loop
      vertex 0 0 0
      vertex 0 45 10
      vertex 0 45 0
    endloop
  endfacet
  facet normal -1 -0 0
    outer loop
      vertex 0 45 10
      vertex 0 0 0
      vertex 0 0 10
    endloop
  endfacet
  facet normal -0 0 1
    outer loop
      vertex 13.35 10.3316 10
      vertex 14.45 5 10
      vertex 17.2 17 10
    endloop
  endfacet
  facet normal 0 0 1
    outer loop
      vertex 13.35 10.3316 10
      vertex 12.225 8.85381 10
      vertex 14.45 5 10
    endloop
  endfacet
  facet normal 0 0 1
    outer loop
      vertex 13.35 10.3316 10
      vertex 7.775 8.85381 10
      vertex 12.225 8.85381 10
    endloop
  endfacet
  facet normal -0 0 1
    outer loop
      vertex 5.65 10.3316 10
      vertex 7.775 8.85381 10
      vertex 13.35 10.3316 10
    endloop
  endfacet
  facet normal 0 0 1
    outer loop
      vertex 5.65 10.3316 10
      vertex 5.55 5 10
      vertex 7.775 8.85381 10
    endloop
  endfacet
  facet normal 0 0 1
    outer loop
      vertex 0 0 10
      vertex 5.65 10.3316 10
      vertex 1.8 17 10
    endloop
  endfacet
  facet normal 0 0 1
    outer loop
      vertex 20 45 10
      vertex 17.2 17 10
      vertex 20 0 10
    endloop
  endfacet
  facet normal 0 0 1
    outer loop
      vertex 20 45 10
      vertex 13.35 23.6684 10
      vertex 17.2 17 10
    endloop
  endfacet
  facet normal -0 0 1
    outer loop
      vertex 0 45 10
      vertex 13.35 23.6684 10
      vertex 20 45 10
    endloop
  endfacet
  facet normal 0 0 1
    outer loop
      vertex 5.65 23.6684 10
      vertex 0 45 10
      vertex 1.8 17 10
    endloop
  endfacet
  facet normal 0 0 1
    outer loop
      vertex 13.35 23.6684 10
      vertex 0 45 10
      vertex 5.65 23.6684 10
    endloop
  endfacet
  facet normal -0 0 1
    outer loop
      vertex 14.45 5 10
      vertex 20 0 10
      vertex 17.2 17 10
    endloop
  endfacet
  facet normal -0 0 1
    outer loop
      vertex 12.225 1.14619 10
      vertex 20 0 10
      vertex 14.45 5 10
    endloop
  endfacet
  facet normal -0 0 1
    outer loop
      vertex 7.775 1.14619 10
      vertex 20 0 10
      vertex 12.225 1.14619 10
    endloop
  endfacet
  facet normal 0 0 1
    outer loop
      vertex 7.775 1.14619 10
      vertex 0 0 10
      vertex 20 0 10
    endloop
  endfacet
  facet normal 0 0 1
    outer loop
      vertex 5.55 5 10
      vertex 0 0 10
      vertex 7.775 1.14619 10
    endloop
  endfacet
  facet normal 0 0 1
    outer loop
      vertex 5.65 10.3316 10
      vertex 0 0 10
      vertex 5.55 5 10
    endloop
  endfacet
  facet normal 0 0 1
    outer loop
      vertex 0 0 10
      vertex 1.8 17 10
      vertex 0 45 10
    endloop
  endfacet
  facet normal 1 0 0
    outer loop
      vertex 20 39.6684 1
      vertex 20 45 10
      vertex 20 39.6684 9.6
    endloop
  endfacet
  facet normal 1 0 0
    outer loop
      vertex 20 45 10
      vertex 20 26.3316 9.6
      vertex 20 39.6684 9.6
    endloop
  endfacet
  facet normal 1 0 0
    outer loop
      vertex 20 26.3316 9.6
      vertex 20 0 10
      vertex 20 26.3316 1
    endloop
  endfacet
  facet normal 1 -0 0
    outer loop
      vertex 20 0 10
      vertex 20 26.3316 9.6
      vertex 20 45 10
    endloop
  endfacet
  facet normal 1 0 0
    outer loop
      vertex 20 45 10
      vertex 20 39.6684 1
      vertex 20 45 0
    endloop
  endfacet
  facet normal 1 -0 0
    outer loop
      vertex 20 26.3316 1
      vertex 20 45 0
      vertex 20 39.6684 1
    endloop
  endfacet
  facet normal 1 0 0
    outer loop
      vertex 20 26.3316 1
      vertex 20 0 0
      vertex 20 45 0
    endloop
  endfacet
  facet normal 1 0 0
    outer loop
      vertex 20 0 0
      vertex 20 26.3316 1
      vertex 20 0 10
    endloop
  endfacet
  facet normal 0 1 -0
    outer loop
      vertex 20 45 0
      vertex 0 45 10
      vertex 20 45 10
    endloop
  endfacet
  facet normal 0 1 0
    outer loop
      vertex 0 45 10
      vertex 20 45 0
      vertex 0 45 0
    endloop
  endfacet
  facet normal 0 0 -1
    outer loop
      vertex 13.693 5.65118 0
      vertex 20 0 0
      vertex 13.75 5 0
    endloop
  endfacet
  facet normal 0 0 -1
    outer loop
      vertex 20 0 0
      vertex 13.693 4.34882 0
      vertex 13.75 5 0
    endloop
  endfacet
  facet normal 0 0 -1
    outer loop
      vertex 20 0 0
      vertex 13.5238 3.71743 0
      vertex 13.693 4.34882 0
    endloop
  endfacet
  facet normal 0 0 -1
    outer loop
      vertex 20 0 0
      vertex 13.2476 3.125 0
      vertex 13.5238 3.71743 0
    endloop
  endfacet
  facet normal 0 0 -1
    outer loop
      vertex 20 0 0
      vertex 12.8727 2.58955 0
      vertex 13.2476 3.125 0
    endloop
  endfacet
  facet normal 0 0 -1
    outer loop
      vertex 20 0 0
      vertex 12.4105 2.12733 0
      vertex 12.8727 2.58955 0
    endloop
  endfacet
  facet normal 0 0 -1
    outer loop
      vertex 20 0 0
      vertex 11.875 1.75241 0
      vertex 12.4105 2.12733 0
    endloop
  endfacet
  facet normal 0 0 -1
    outer loop
      vertex 20 0 0
      vertex 11.2826 1.47615 0
      vertex 11.875 1.75241 0
    endloop
  endfacet
  facet normal 0 0 -1
    outer loop
      vertex 20 0 0
      vertex 10.6512 1.30697 0
      vertex 11.2826 1.47615 0
    endloop
  endfacet
  facet normal 0 0 -1
    outer loop
      vertex 20 0 0
      vertex 10 1.25 0
      vertex 10.6512 1.30697 0
    endloop
  endfacet
  facet normal 0 0 -1
    outer loop
      vertex 0 0 0
      vertex 10 1.25 0
      vertex 20 0 0
    endloop
  endfacet
  facet normal -0 0 -1
    outer loop
      vertex 6.30697 4.34882 0
      vertex 0 0 0
      vertex 6.25 5 0
    endloop
  endfacet
  facet normal -0 0 -1
    outer loop
      vertex 6.47615 3.71743 0
      vertex 0 0 0
      vertex 6.30697 4.34882 0
    endloop
  endfacet
  facet normal -0 0 -1
    outer loop
      vertex 6.75241 3.125 0
      vertex 0 0 0
      vertex 6.47615 3.71743 0
    endloop
  endfacet
  facet normal -0 0 -1
    outer loop
      vertex 7.12733 2.58955 0
      vertex 0 0 0
      vertex 6.75241 3.125 0
    endloop
  endfacet
  facet normal -0 0 -1
    outer loop
      vertex 7.58955 2.12733 0
      vertex 0 0 0
      vertex 7.12733 2.58955 0
    endloop
  endfacet
  facet normal -0 0 -1
    outer loop
      vertex 8.125 1.75241 0
      vertex 0 0 0
      vertex 7.58955 2.12733 0
    endloop
  endfacet
  facet normal -0 0 -1
    outer loop
      vertex 8.71743 1.47615 0
      vertex 0 0 0
      vertex 8.125 1.75241 0
    endloop
  endfacet
  facet normal -0 0 -1
    outer loop
      vertex 9.34882 1.30697 0
      vertex 0 0 0
      vertex 8.71743 1.47615 0
    endloop
  endfacet
  facet normal -0 0 -1
    outer loop
      vertex 10 1.25 0
      vertex 0 0 0
      vertex 9.34882 1.30697 0
    endloop
  endfacet
  facet normal 0 0 -1
    outer loop
      vertex 13.5238 6.28257 0
      vertex 20 0 0
      vertex 13.693 5.65118 0
    endloop
  endfacet
  facet normal 0 0 -1
    outer loop
      vertex 13.2476 6.875 0
      vertex 20 0 0
      vertex 13.5238 6.28257 0
    endloop
  endfacet
  facet normal 0 0 -1
    outer loop
      vertex 20 0 0
      vertex 13.2476 6.875 0
      vertex 20 45 0
    endloop
  endfacet
  facet normal 0 0 -1
    outer loop
      vertex 12.8727 7.41045 0
      vertex 20 45 0
      vertex 13.2476 6.875 0
    endloop
  endfacet
  facet normal 0 0 -1
    outer loop
      vertex 12.4105 7.87267 0
      vertex 20 45 0
      vertex 12.8727 7.41045 0
    endloop
  endfacet
  facet normal 0 0 -1
    outer loop
      vertex 11.875 8.24759 0
      vertex 20 45 0
      vertex 12.4105 7.87267 0
    endloop
  endfacet
  facet normal 0 0 -1
    outer loop
      vertex 11.2826 8.52385 0
      vertex 20 45 0
      vertex 11.875 8.24759 0
    endloop
  endfacet
  facet normal 0 0 -1
    outer loop
      vertex 10.6512 8.69303 0
      vertex 20 45 0
      vertex 11.2826 8.52385 0
    endloop
  endfacet
  facet normal 0 0 -1
    outer loop
      vertex 10 8.75 0
      vertex 20 45 0
      vertex 10.6512 8.69303 0
    endloop
  endfacet
  facet normal 0 0 -1
    outer loop
      vertex 0 45 0
      vertex 10 8.75 0
      vertex 9.34882 8.69303 0
    endloop
  endfacet
  facet normal 0 0 -1
    outer loop
      vertex 0 45 0
      vertex 9.34882 8.69303 0
      vertex 8.71743 8.52385 0
    endloop
  endfacet
  facet normal 0 0 -1
    outer loop
      vertex 0 45 0
      vertex 8.71743 8.52385 0
      vertex 8.125 8.24759 0
    endloop
  endfacet
  facet normal 0 0 -1
    outer loop
      vertex 0 45 0
      vertex 8.125 8.24759 0
      vertex 7.58955 7.87267 0
    endloop
  endfacet
  facet normal 0 0 -1
    outer loop
      vertex 0 45 0
      vertex 7.58955 7.87267 0
      vertex 7.12733 7.41045 0
    endloop
  endfacet
  facet normal 0 0 -1
    outer loop
      vertex 0 45 0
      vertex 7.12733 7.41045 0
      vertex 6.75241 6.875 0
    endloop
  endfacet
  facet normal 0 0 -1
    outer loop
      vertex 0 0 0
      vertex 6.75241 6.875 0
      vertex 6.47615 6.28257 0
    endloop
  endfacet
  facet normal 0 0 -1
    outer loop
      vertex 0 0 0
      vertex 6.30697 5.65118 0
      vertex 6.25 5 0
    endloop
  endfacet
  facet normal 0 0 -1
    outer loop
      vertex 0 0 0
      vertex 6.47615 6.28257 0
      vertex 6.30697 5.65118 0
    endloop
  endfacet
  facet normal -0 0 -1
    outer loop
      vertex 6.75241 6.875 0
      vertex 0 0 0
      vertex 0 45 0
    endloop
  endfacet
  facet normal 0 0 -1
    outer loop
      vertex 10 8.75 0
      vertex 0 45 0
      vertex 20 45 0
    endloop
  endfacet
  facet normal 0 -1 0
    outer loop
      vertex 0 0 0
      vertex 20 0 10
      vertex 0 0 10
    endloop
  endfacet
  facet normal 0 -1 -0
    outer loop
      vertex 20 0 10
      vertex 0 0 0
      vertex 20 0 0
    endloop
  endfacet
  facet normal -0 0 1
    outer loop
      vertex 11.9486 6.125 6.6
      vertex 14.45 5 6.6
      vertex 12.225 8.85381 6.6
    endloop
  endfacet
  facet normal 0 0 1
    outer loop
      vertex 14.45 5 6.6
      vertex 12.2158 5.39071 6.6
      vertex 12.25 5 6.6
    endloop
  endfacet
  facet normal 0 0 1
    outer loop
      vertex 14.45 5 6.6
      vertex 12.1143 5.76954 6.6
      vertex 12.2158 5.39071 6.6
    endloop
  endfacet
  facet normal 0 0 1
    outer loop
      vertex 14.45 5 6.6
      vertex 11.9486 6.125 6.6
      vertex 12.1143 5.76954 6.6
    endloop
  endfacet
  facet normal 0 0 1
    outer loop
      vertex 12.225 8.85381 6.6
      vertex 11.7236 6.44627 6.6
      vertex 11.9486 6.125 6.6
    endloop
  endfacet
  facet normal 0 0 1
    outer loop
      vertex 12.225 8.85381 6.6
      vertex 11.4463 6.7236 6.6
      vertex 11.7236 6.44627 6.6
    endloop
  endfacet
  facet normal 0 0 1
    outer loop
      vertex 12.225 8.85381 6.6
      vertex 11.125 6.94856 6.6
      vertex 11.4463 6.7236 6.6
    endloop
  endfacet
  facet normal 0 0 1
    outer loop
      vertex 12.225 8.85381 6.6
      vertex 10.7695 7.11431 6.6
      vertex 11.125 6.94856 6.6
    endloop
  endfacet
  facet normal 0 0 1
    outer loop
      vertex 12.225 8.85381 6.6
      vertex 10.3907 7.21582 6.6
      vertex 10.7695 7.11431 6.6
    endloop
  endfacet
  facet normal 0 0 1
    outer loop
      vertex 12.225 8.85381 6.6
      vertex 10 7.25 6.6
      vertex 10.3907 7.21582 6.6
    endloop
  endfacet
  facet normal -0 0 1
    outer loop
      vertex 7.775 8.85381 6.6
      vertex 10 7.25 6.6
      vertex 12.225 8.85381 6.6
    endloop
  endfacet
  facet normal 0 0 1
    outer loop
      vertex 10 7.25 6.6
      vertex 7.775 8.85381 6.6
      vertex 9.60929 7.21582 6.6
    endloop
  endfacet
  facet normal 0 0 1
    outer loop
      vertex 9.60929 7.21582 6.6
      vertex 7.775 8.85381 6.6
      vertex 9.23046 7.11431 6.6
    endloop
  endfacet
  facet normal 0 0 1
    outer loop
      vertex 9.23046 7.11431 6.6
      vertex 7.775 8.85381 6.6
      vertex 8.875 6.94856 6.6
    endloop
  endfacet
  facet normal 0 0 1
    outer loop
      vertex 7.775 8.85381 6.6
      vertex 8.55373 6.7236 6.6
      vertex 8.875 6.94856 6.6
    endloop
  endfacet
  facet normal 0 0 1
    outer loop
      vertex 7.775 8.85381 6.6
      vertex 8.2764 6.44627 6.6
      vertex 8.55373 6.7236 6.6
    endloop
  endfacet
  facet normal 0 0 1
    outer loop
      vertex 7.775 8.85381 6.6
      vertex 8.05144 6.125 6.6
      vertex 8.2764 6.44627 6.6
    endloop
  endfacet
  facet normal 0 0 1
    outer loop
      vertex 5.55 5 6.6
      vertex 8.05144 6.125 6.6
      vertex 7.775 8.85381 6.6
    endloop
  endfacet
  facet normal 0 0 1
    outer loop
      vertex 8.05144 6.125 6.6
      vertex 5.55 5 6.6
      vertex 7.88569 5.76954 6.6
    endloop
  endfacet
  facet normal 0 0 1
    outer loop
      vertex 7.88569 5.76954 6.6
      vertex 5.55 5 6.6
      vertex 7.78418 5.39071 6.6
    endloop
  endfacet
  facet normal 0 0 1
    outer loop
      vertex 7.78418 5.39071 6.6
      vertex 5.55 5 6.6
      vertex 7.75 5 6.6
    endloop
  endfacet
  facet normal 0 0 1
    outer loop
      vertex 12.2158 4.60929 6.6
      vertex 14.45 5 6.6
      vertex 12.25 5 6.6
    endloop
  endfacet
  facet normal 0 0 1
    outer loop
      vertex 12.1143 4.23046 6.6
      vertex 14.45 5 6.6
      vertex 12.2158 4.60929 6.6
    endloop
  endfacet
  facet normal 0 0 1
    outer loop
      vertex 11.9486 3.875 6.6
      vertex 14.45 5 6.6
      vertex 12.1143 4.23046 6.6
    endloop
  endfacet
  facet normal 0 0 1
    outer loop
      vertex 14.45 5 6.6
      vertex 11.9486 3.875 6.6
      vertex 12.225 1.14619 6.6
    endloop
  endfacet
  facet normal -0 0 1
    outer loop
      vertex 11.7236 3.55373 6.6
      vertex 12.225 1.14619 6.6
      vertex 11.9486 3.875 6.6
    endloop
  endfacet
  facet normal -0 0 1
    outer loop
      vertex 11.4463 3.2764 6.6
      vertex 12.225 1.14619 6.6
      vertex 11.7236 3.55373 6.6
    endloop
  endfacet
  facet normal -0 0 1
    outer loop
      vertex 11.125 3.05144 6.6
      vertex 12.225 1.14619 6.6
      vertex 11.4463 3.2764 6.6
    endloop
  endfacet
  facet normal -0 0 1
    outer loop
      vertex 10.7695 2.88569 6.6
      vertex 12.225 1.14619 6.6
      vertex 11.125 3.05144 6.6
    endloop
  endfacet
  facet normal -0 0 1
    outer loop
      vertex 10.3907 2.78418 6.6
      vertex 12.225 1.14619 6.6
      vertex 10.7695 2.88569 6.6
    endloop
  endfacet
  facet normal -0 0 1
    outer loop
      vertex 10 2.75 6.6
      vertex 12.225 1.14619 6.6
      vertex 10.3907 2.78418 6.6
    endloop
  endfacet
  facet normal 0 0 1
    outer loop
      vertex 7.775 1.14619 6.6
      vertex 10 2.75 6.6
      vertex 9.60929 2.78418 6.6
    endloop
  endfacet
  facet normal 0 0 1
    outer loop
      vertex 7.775 1.14619 6.6
      vertex 9.60929 2.78418 6.6
      vertex 9.23046 2.88569 6.6
    endloop
  endfacet
  facet normal 0 0 1
    outer loop
      vertex 7.775 1.14619 6.6
      vertex 9.23046 2.88569 6.6
      vertex 8.875 3.05144 6.6
    endloop
  endfacet
  facet normal 0 0 1
    outer loop
      vertex 10 2.75 6.6
      vertex 7.775 1.14619 6.6
      vertex 12.225 1.14619 6.6
    endloop
  endfacet
  facet normal 0 0 1
    outer loop
      vertex 8.55373 3.2764 6.6
      vertex 7.775 1.14619 6.6
      vertex 8.875 3.05144 6.6
    endloop
  endfacet
  facet normal 0 0 1
    outer loop
      vertex 8.2764 3.55373 6.6
      vertex 7.775 1.14619 6.6
      vertex 8.55373 3.2764 6.6
    endloop
  endfacet
  facet normal 0 0 1
    outer loop
      vertex 8.05144 3.875 6.6
      vertex 7.775 1.14619 6.6
      vertex 8.2764 3.55373 6.6
    endloop
  endfacet
  facet normal 0 0 1
    outer loop
      vertex 5.55 5 6.6
      vertex 8.05144 3.875 6.6
      vertex 7.88569 4.23046 6.6
    endloop
  endfacet
  facet normal 0 0 1
    outer loop
      vertex 5.55 5 6.6
      vertex 7.88569 4.23046 6.6
      vertex 7.78418 4.60929 6.6
    endloop
  endfacet
  facet normal -0 0 1
    outer loop
      vertex 5.55 5 6.6
      vertex 7.78418 4.60929 6.6
      vertex 7.75 5 6.6
    endloop
  endfacet
  facet normal 0 0 1
    outer loop
      vertex 8.05144 3.875 6.6
      vertex 5.55 5 6.6
      vertex 7.775 1.14619 6.6
    endloop
  endfacet
  facet normal -0.866025 -0.5 0
    outer loop
      vertex 14.45 5 6.6
      vertex 12.225 8.85381 10
      vertex 12.225 8.85381 6.6
    endloop
  endfacet
  facet normal -0.866025 -0.5 0
    outer loop
      vertex 12.225 8.85381 10
      vertex 14.45 5 6.6
      vertex 14.45 5 10
    endloop
  endfacet
  facet normal 0.866025 -0.5 0
    outer loop
      vertex 5.55 5 10
      vertex 7.775 8.85381 6.6
      vertex 7.775 8.85381 10
    endloop
  endfacet
  facet normal 0.866025 -0.5 0
    outer loop
      vertex 7.775 8.85381 6.6
      vertex 5.55 5 10
      vertex 5.55 5 6.6
    endloop
  endfacet
  facet normal 0 -1 0
    outer loop
      vertex 7.775 8.85381 6.6
      vertex 12.225 8.85381 10
      vertex 7.775 8.85381 10
    endloop
  endfacet
  facet normal 0 -1 -0
    outer loop
      vertex 12.225 8.85381 10
      vertex 7.775 8.85381 6.6
      vertex 12.225 8.85381 6.6
    endloop
  endfacet
  facet normal 0.866025 0.5 0
    outer loop
      vertex 7.775 1.14619 10
      vertex 5.55 5 6.6
      vertex 5.55 5 10
    endloop
  endfacet
  facet normal 0.866025 0.5 0
    outer loop
      vertex 5.55 5 6.6
      vertex 7.775 1.14619 10
      vertex 7.775 1.14619 6.6
    endloop
  endfacet
  facet normal -0.866025 0.5 0
    outer loop
      vertex 12.225 1.14619 6.6
      vertex 14.45 5 10
      vertex 14.45 5 6.6
    endloop
  endfacet
  facet normal -0.866025 0.5 0
    outer loop
      vertex 14.45 5 10
      vertex 12.225 1.14619 6.6
      vertex 12.225 1.14619 10
    endloop
  endfacet
  facet normal 0 1 -0
    outer loop
      vertex 12.225 1.14619 6.6
      vertex 7.775 1.14619 10
      vertex 12.225 1.14619 10
    endloop
  endfacet
  facet normal 0 1 0
    outer loop
      vertex 7.775 1.14619 10
      vertex 12.225 1.14619 6.6
      vertex 7.775 1.14619 6.6
    endloop
  endfacet
  facet normal 0 0 1
    outer loop
      vertex 13.35 23.6684 3.4
      vertex 13.35 10.3316 3.4
      vertex 17.2 17 3.4
    endloop
  endfacet
  facet normal -0 0 1
    outer loop
      vertex 5.65 23.6684 3.4
      vertex 13.35 10.3316 3.4
      vertex 13.35 23.6684 3.4
    endloop
  endfacet
  facet normal 0 0 1
    outer loop
      vertex 5.65 23.6684 3.4
      vertex 5.65 10.3316 3.4
      vertex 13.35 10.3316 3.4
    endloop
  endfacet
  facet normal 0 -0 1
    outer loop
      vertex 5.65 10.3316 3.4
      vertex 5.65 23.6684 3.4
      vertex 1.8 17 3.4
    endloop
  endfacet
  facet normal -0.866026 -0.5 0
    outer loop
      vertex 17.2 17 3.4
      vertex 13.35 23.6684 10
      vertex 13.35 23.6684 3.4
    endloop
  endfacet
  facet normal -0.866026 -0.5 0
    outer loop
      vertex 13.35 23.6684 10
      vertex 17.2 17 3.4
      vertex 17.2 17 10
    endloop
  endfacet
  facet normal 0.866026 -0.5 0
    outer loop
      vertex 1.8 17 10
      vertex 5.65 23.6684 3.4
      vertex 5.65 23.6684 10
    endloop
  endfacet
  facet normal 0.866026 -0.5 0
    outer loop
      vertex 5.65 23.6684 3.4
      vertex 1.8 17 10
      vertex 1.8 17 3.4
    endloop
  endfacet
  facet normal 0 -1 0
    outer loop
      vertex 5.65 23.6684 3.4
      vertex 13.35 23.6684 10
      vertex 5.65 23.6684 10
    endloop
  endfacet
  facet normal 0 -1 -0
    outer loop
      vertex 13.35 23.6684 10
      vertex 5.65 23.6684 3.4
      vertex 13.35 23.6684 3.4
    endloop
  endfacet
  facet normal 0.866026 0.5 0
    outer loop
      vertex 5.65 10.3316 10
      vertex 1.8 17 3.4
      vertex 1.8 17 10
    endloop
  endfacet
  facet normal 0.866026 0.5 0
    outer loop
      vertex 1.8 17 3.4
      vertex 5.65 10.3316 10
      vertex 5.65 10.3316 3.4
    endloop
  endfacet
  facet normal -0.866026 0.5 0
    outer loop
      vertex 13.35 10.3316 3.4
      vertex 17.2 17 10
      vertex 17.2 17 3.4
    endloop
  endfacet
  facet normal -0.866026 0.5 0
    outer loop
      vertex 17.2 17 10
      vertex 13.35 10.3316 3.4
      vertex 13.35 10.3316 10
    endloop
  endfacet
  facet normal 0 1 -0
    outer loop
      vertex 13.35 10.3316 3.4
      vertex 5.65 10.3316 10
      vertex 13.35 10.3316 10
    endloop
  endfacet
  facet normal 0 1 0
    outer loop
      vertex 5.65 10.3316 10
      vertex 13.35 10.3316 3.4
      vertex 5.65 10.3316 3.4
    endloop
  endfacet
  facet normal 0 0 1
    outer loop
      vertex 8.8 33 1
      vertex 20 39.6684 1
      vertex 12.65 39.6684 1
    endloop
  endfacet
  facet normal 0 0 1
    outer loop
      vertex 20 39.6684 1
      vertex 8.8 33 1
      vertex 20 26.3316 1
    endloop
  endfacet
  facet normal 0 0 1
    outer loop
      vertex 20 26.3316 1
      vertex 8.8 33 1
      vertex 12.65 26.3316 1
    endloop
  endfacet
  facet normal 0.866026 -0.5 0
    outer loop
      vertex 8.8 33 9.6
      vertex 12.65 39.6684 1
      vertex 12.65 39.6684 9.6
    endloop
  endfacet
  facet normal 0.866026 -0.5 0
    outer loop
      vertex 12.65 39.6684 1
      vertex 8.8 33 9.6
      vertex 8.8 33 1
    endloop
  endfacet
  facet normal 0 -1 0
    outer loop
      vertex 12.65 39.6684 1
      vertex 20 39.6684 9.6
      vertex 12.65 39.6684 9.6
    endloop
  endfacet
  facet normal 0 -1 -0
    outer loop
      vertex 20 39.6684 9.6
      vertex 12.65 39.6684 1
      vertex 20 39.6684 1
    endloop
  endfacet
  facet normal 0.866026 0.5 0
    outer loop
      vertex 12.65 26.3316 9.6
      vertex 8.8 33 1
      vertex 8.8 33 9.6
    endloop
  endfacet
  facet normal 0.866026 0.5 0
    outer loop
      vertex 8.8 33 1
      vertex 12.65 26.3316 9.6
      vertex 12.65 26.3316 1
    endloop
  endfacet
  facet normal 0 0 -1
    outer loop
      vertex 8.8 33 9.6
      vertex 20 26.3316 9.6
      vertex 12.65 26.3316 9.6
    endloop
  endfacet
  facet normal 0 0 -1
    outer loop
      vertex 20 26.3316 9.6
      vertex 8.8 33 9.6
      vertex 20 39.6684 9.6
    endloop
  endfacet
  facet normal -0 0 -1
    outer loop
      vertex 20 39.6684 9.6
      vertex 8.8 33 9.6
      vertex 12.65 39.6684 9.6
    endloop
  endfacet
  facet normal 0 1 -0
    outer loop
      vertex 20 26.3316 1
      vertex 12.65 26.3316 9.6
      vertex 20 26.3316 9.6
    endloop
  endfacet
  facet normal 0 1 0
    outer loop
      vertex 12.65 26.3316 9.6
      vertex 20 26.3316 1
      vertex 12.65 26.3316 1
    endloop
  endfacet
endsolid OpenSCAD_Model
