solid OpenSCAD_Model
  facet normal 0.978148 0.207908 0
    outer loop
      vertex 4.20231 1.87099 14
      vertex 4.35122 1.17041 5
      vertex 4.20231 1.87099 0
    endloop
  endfacet
  facet normal 0.978148 0.207911 -2.63681e-07
    outer loop
      vertex 4.6 0 14
      vertex 4.35122 1.17041 5
      vertex 4.20231 1.87099 14
    endloop
  endfacet
  facet normal 0.978147 0.207913 0
    outer loop
      vertex 4.35122 1.17041 5
      vertex 4.6 0 14
      vertex 4.6 0 5
    endloop
  endfacet
  facet normal 0.978148 0.207908 0
    outer loop
      vertex 4.20231 1.87099 0
      vertex 4.35122 1.17041 5
      vertex 4.35122 1.17041 0
    endloop
  endfacet
  facet normal -1 0 0
    outer loop
      vertex -4.49948 -0.956393 5
      vertex -4.49948 0.956393 14
      vertex -4.49948 0.956393 5
    endloop
  endfacet
  facet normal -1 -0 0
    outer loop
      vertex -4.49948 0.956393 14
      vertex -4.49948 -0.956393 5
      vertex -4.49948 -0.956393 14
    endloop
  endfacet
  facet normal 0.104528 0.994522 -5.1923e-07
    outer loop
      vertex 1.42148 4.37486 14
      vertex 1.18015 4.40022 5
      vertex -0.48083 4.5748 14
    endloop
  endfacet
  facet normal 0.104509 0.994524 -0
    outer loop
      vertex 1.42148 4.37486 0
      vertex 1.18015 4.40022 5
      vertex 1.42148 4.37486 14
    endloop
  endfacet
  facet normal 0.104509 0.994524 0
    outer loop
      vertex 1.18015 4.40022 5
      vertex 1.42148 4.37486 0
      vertex 1.18015 4.40022 0
    endloop
  endfacet
  facet normal 0.104531 0.994522 0
    outer loop
      vertex -0.48083 4.5748 14
      vertex 1.18015 4.40022 5
      vertex -0.48083 4.5748 5
    endloop
  endfacet
  facet normal 0.809017 0.587785 0
    outer loop
      vertex 4.20231 1.87099 14
      vertex 3.078 3.41847 0
      vertex 3.078 3.41847 14
    endloop
  endfacet
  facet normal 0.809017 0.587785 0
    outer loop
      vertex 3.078 3.41847 0
      vertex 4.20231 1.87099 14
      vertex 4.20231 1.87099 0
    endloop
  endfacet
  facet normal 0.499999 0.866026 -0
    outer loop
      vertex 3.078 3.41847 0
      vertex 1.42148 4.37486 14
      vertex 3.078 3.41847 14
    endloop
  endfacet
  facet normal 0.499999 0.866026 0
    outer loop
      vertex 1.42148 4.37486 14
      vertex 3.078 3.41847 0
      vertex 1.42148 4.37486 0
    endloop
  endfacet
  facet normal -0.309018 0.951056 0
    outer loop
      vertex -1.17032 4.35077 5
      vertex -0.48083 4.5748 14
      vertex -0.48083 4.5748 5
    endloop
  endfacet
  facet normal -0.309015 0.951057 -2.84977e-07
    outer loop
      vertex -0.48083 4.5748 14
      vertex -1.17032 4.35077 5
      vertex -2.3 3.98372 14
    endloop
  endfacet
  facet normal -0.309013 0.951058 0
    outer loop
      vertex -2.3 3.98372 0
      vertex -1.17032 4.35077 5
      vertex -1.17032 4.35077 0
    endloop
  endfacet
  facet normal -0.309013 0.951058 0
    outer loop
      vertex -1.17032 4.35077 5
      vertex -2.3 3.98372 0
      vertex -2.3 3.98372 14
    endloop
  endfacet
  facet normal -0.669132 0.743144 0
    outer loop
      vertex -2.3 3.98372 0
      vertex -3.72148 2.70381 14
      vertex -2.3 3.98372 14
    endloop
  endfacet
  facet normal -0.669132 0.743144 0
    outer loop
      vertex -3.72148 2.70381 14
      vertex -2.3 3.98372 0
      vertex -3.72148 2.70381 0
    endloop
  endfacet
  facet normal -0.913546 -0.406735 0
    outer loop
      vertex -4.39988 -1.18009 0
      vertex -3.72148 -2.70381 0
      vertex -4.39988 -1.18009 5
    endloop
  endfacet
  facet normal -0.91354 -0.406749 0
    outer loop
      vertex -4.39988 -1.18009 5
      vertex -4.49948 -0.956393 14
      vertex -4.49948 -0.956393 5
    endloop
  endfacet
  facet normal -0.913546 -0.406735 -0
    outer loop
      vertex -3.72148 -2.70381 14
      vertex -4.39988 -1.18009 5
      vertex -3.72148 -2.70381 0
    endloop
  endfacet
  facet normal -0.913545 -0.406737 -3.75671e-07
    outer loop
      vertex -4.39988 -1.18009 5
      vertex -3.72148 -2.70381 14
      vertex -4.49948 -0.956393 14
    endloop
  endfacet
  facet normal 0 0 1
    outer loop
      vertex 4 0 14
      vertex 4.6 0 14
      vertex 4.20231 1.87099 14
    endloop
  endfacet
  facet normal 0 0 1
    outer loop
      vertex 4.6 0 14
      vertex 4 0 14
      vertex 4.20231 -1.87099 14
    endloop
  endfacet
  facet normal 0 0 1
    outer loop
      vertex 4.20231 1.87099 14
      vertex 3.54182 1.85889 14
      vertex 4 0 14
    endloop
  endfacet
  facet normal 0 0 1
    outer loop
      vertex 3.078 3.41847 14
      vertex 3.54182 1.85889 14
      vertex 4.20231 1.87099 14
    endloop
  endfacet
  facet normal 0 0 1
    outer loop
      vertex 3.078 3.41847 14
      vertex 2.27226 3.29193 14
      vertex 3.54182 1.85889 14
    endloop
  endfacet
  facet normal 0 0 1
    outer loop
      vertex 1.42148 4.37486 14
      vertex 2.27226 3.29193 14
      vertex 3.078 3.41847 14
    endloop
  endfacet
  facet normal 0 0 1
    outer loop
      vertex 1.42148 4.37486 14
      vertex 0.482146 3.97083 14
      vertex 2.27226 3.29193 14
    endloop
  endfacet
  facet normal 0 0 1
    outer loop
      vertex -0.48083 4.5748 14
      vertex 0.482146 3.97083 14
      vertex 1.42148 4.37486 14
    endloop
  endfacet
  facet normal 0 0 1
    outer loop
      vertex -0.48083 4.5748 14
      vertex -1.41842 3.74006 14
      vertex 0.482146 3.97083 14
    endloop
  endfacet
  facet normal -0 0 1
    outer loop
      vertex -2.3 3.98372 14
      vertex -1.41842 3.74006 14
      vertex -0.48083 4.5748 14
    endloop
  endfacet
  facet normal 0 0 1
    outer loop
      vertex -2.3 3.98372 14
      vertex -2.99404 2.65249 14
      vertex -1.41842 3.74006 14
    endloop
  endfacet
  facet normal -0 0 1
    outer loop
      vertex -3.72148 2.70381 14
      vertex -2.99404 2.65249 14
      vertex -2.3 3.98372 14
    endloop
  endfacet
  facet normal 0 0 1
    outer loop
      vertex -3.72148 2.70381 14
      vertex -3.88377 0.957262 14
      vertex -2.99404 2.65249 14
    endloop
  endfacet
  facet normal 0 0 1
    outer loop
      vertex -3.88377 0.957262 14
      vertex -4.49948 0.956393 14
      vertex -3.88377 -0.957262 14
    endloop
  endfacet
  facet normal 0 0 1
    outer loop
      vertex -4.49948 0.956393 14
      vertex -3.88377 0.957262 14
      vertex -3.72148 2.70381 14
    endloop
  endfacet
  facet normal -0 0 1
    outer loop
      vertex 3.54182 -1.85889 14
      vertex 4.20231 -1.87099 14
      vertex 4 0 14
    endloop
  endfacet
  facet normal 0 0 1
    outer loop
      vertex 3.54182 -1.85889 14
      vertex 3.078 -3.41847 14
      vertex 4.20231 -1.87099 14
    endloop
  endfacet
  facet normal -0 0 1
    outer loop
      vertex 2.27226 -3.29193 14
      vertex 3.078 -3.41847 14
      vertex 3.54182 -1.85889 14
    endloop
  endfacet
  facet normal 0 0 1
    outer loop
      vertex 2.27226 -3.29193 14
      vertex 1.42148 -4.37486 14
      vertex 3.078 -3.41847 14
    endloop
  endfacet
  facet normal -0 0 1
    outer loop
      vertex 0.482146 -3.97083 14
      vertex 1.42148 -4.37486 14
      vertex 2.27226 -3.29193 14
    endloop
  endfacet
  facet normal 0 0 1
    outer loop
      vertex 0.482146 -3.97083 14
      vertex -0.48083 -4.5748 14
      vertex 1.42148 -4.37486 14
    endloop
  endfacet
  facet normal 0 0 1
    outer loop
      vertex -1.41842 -3.74006 14
      vertex -0.48083 -4.5748 14
      vertex 0.482146 -3.97083 14
    endloop
  endfacet
  facet normal 0 0 1
    outer loop
      vertex -1.41842 -3.74006 14
      vertex -2.3 -3.98372 14
      vertex -0.48083 -4.5748 14
    endloop
  endfacet
  facet normal 0 0 1
    outer loop
      vertex -2.99404 -2.65249 14
      vertex -2.3 -3.98372 14
      vertex -1.41842 -3.74006 14
    endloop
  endfacet
  facet normal 0 0 1
    outer loop
      vertex -2.99404 -2.65249 14
      vertex -3.72148 -2.70381 14
      vertex -2.3 -3.98372 14
    endloop
  endfacet
  facet normal 0 0 1
    outer loop
      vertex -3.88377 -0.957262 14
      vertex -3.72148 -2.70381 14
      vertex -2.99404 -2.65249 14
    endloop
  endfacet
  facet normal -0 0 1
    outer loop
      vertex -4.49948 -0.956393 14
      vertex -3.88377 -0.957262 14
      vertex -4.49948 0.956393 14
    endloop
  endfacet
  facet normal 0 0 1
    outer loop
      vertex -3.88377 -0.957262 14
      vertex -4.49948 -0.956393 14
      vertex -3.72148 -2.70381 14
    endloop
  endfacet
  facet normal -0.913546 0.406735 0
    outer loop
      vertex -4.39988 1.18009 5
      vertex -3.72148 2.70381 0
      vertex -4.39988 1.18009 0
    endloop
  endfacet
  facet normal -0.913546 0.406735 0
    outer loop
      vertex -3.72148 2.70381 0
      vertex -4.39988 1.18009 5
      vertex -3.72148 2.70381 14
    endloop
  endfacet
  facet normal -0.91354 0.406749 0
    outer loop
      vertex -4.49948 0.956393 14
      vertex -4.39988 1.18009 5
      vertex -4.49948 0.956393 5
    endloop
  endfacet
  facet normal -0.913545 0.406737 -3.75671e-07
    outer loop
      vertex -4.39988 1.18009 5
      vertex -4.49948 0.956393 14
      vertex -3.72148 2.70381 14
    endloop
  endfacet
  facet normal 0.499999 -0.866026 0
    outer loop
      vertex 1.42148 -4.37486 0
      vertex 3.078 -3.41847 14
      vertex 1.42148 -4.37486 14
    endloop
  endfacet
  facet normal 0.499999 -0.866026 0
    outer loop
      vertex 3.078 -3.41847 14
      vertex 1.42148 -4.37486 0
      vertex 3.078 -3.41847 0
    endloop
  endfacet
  facet normal 0.809017 -0.587785 0
    outer loop
      vertex 3.078 -3.41847 14
      vertex 4.20231 -1.87099 0
      vertex 4.20231 -1.87099 14
    endloop
  endfacet
  facet normal 0.809017 -0.587785 0
    outer loop
      vertex 4.20231 -1.87099 0
      vertex 3.078 -3.41847 14
      vertex 3.078 -3.41847 0
    endloop
  endfacet
  facet normal 0.978147 -0.207913 0
    outer loop
      vertex 4.6 0 14
      vertex 4.35122 -1.17041 5
      vertex 4.6 0 5
    endloop
  endfacet
  facet normal 0.978148 -0.207911 -2.63681e-07
    outer loop
      vertex 4.20231 -1.87099 14
      vertex 4.35122 -1.17041 5
      vertex 4.6 0 14
    endloop
  endfacet
  facet normal 0.978148 -0.207908 0
    outer loop
      vertex 4.20231 -1.87099 0
      vertex 4.35122 -1.17041 5
      vertex 4.20231 -1.87099 14
    endloop
  endfacet
  facet normal 0.978148 -0.207908 0
    outer loop
      vertex 4.35122 -1.17041 5
      vertex 4.20231 -1.87099 0
      vertex 4.35122 -1.17041 0
    endloop
  endfacet
  facet normal 0 0 -1
    outer loop
      vertex 0.848528 -5.34853 0
      vertex 1.18015 -4.40022 0
      vertex 1.10865 -4.95922 0
    endloop
  endfacet
  facet normal 0 0 -1
    outer loop
      vertex 1.10865 -4.95922 0
      vertex 1.18015 -4.40022 0
      vertex 1.2 -4.5 0
    endloop
  endfacet
  facet normal 0 0 -1
    outer loop
      vertex 5.60865 -0.45922 0
      vertex 5.60865 0.45922 0
      vertex 5.7 0 0
    endloop
  endfacet
  facet normal 0 0 -1
    outer loop
      vertex 4.35122 -1.17041 0
      vertex 5.60865 -0.45922 0
      vertex 5.34853 -0.848528 0
    endloop
  endfacet
  facet normal -0 0 -1
    outer loop
      vertex 5.60865 -0.45922 0
      vertex 4.35122 -1.17041 0
      vertex 5.60865 0.45922 0
    endloop
  endfacet
  facet normal 0 0 -1
    outer loop
      vertex 4.35122 -1.17041 0
      vertex 5.34853 -0.848528 0
      vertex 4.95922 -1.10865 0
    endloop
  endfacet
  facet normal 0 0 -1
    outer loop
      vertex 4.35122 1.17041 0
      vertex 5.60865 0.45922 0
      vertex 4.35122 -1.17041 0
    endloop
  endfacet
  facet normal 0 0 -1
    outer loop
      vertex 4.35122 -1.17041 0
      vertex 4.95922 -1.10865 0
      vertex 4.5 -1.2 0
    endloop
  endfacet
  facet normal 0 0 -1
    outer loop
      vertex 5.60865 0.45922 0
      vertex 4.35122 1.17041 0
      vertex 5.34853 0.848528 0
    endloop
  endfacet
  facet normal 0 0 -1
    outer loop
      vertex 5.34853 0.848528 0
      vertex 4.35122 1.17041 0
      vertex 4.95922 1.10865 0
    endloop
  endfacet
  facet normal 0 0 -1
    outer loop
      vertex 4.95922 1.10865 0
      vertex 4.35122 1.17041 0
      vertex 4.5 1.2 0
    endloop
  endfacet
  facet normal 0 0 -1
    outer loop
      vertex 3.078 -3.41847 0
      vertex 4.35122 -1.17041 0
      vertex 4.20231 -1.87099 0
    endloop
  endfacet
  facet normal -0 0 -1
    outer loop
      vertex 4.35122 -1.17041 0
      vertex 1.18015 -4.40022 0
      vertex 4.35122 1.17041 0
    endloop
  endfacet
  facet normal 0 0 -1
    outer loop
      vertex 4.35122 -1.17041 0
      vertex 3.078 -3.41847 0
      vertex 1.18015 -4.40022 0
    endloop
  endfacet
  facet normal 0 0 -1
    outer loop
      vertex 1.18015 4.40022 0
      vertex 4.35122 1.17041 0
      vertex 1.18015 -4.40022 0
    endloop
  endfacet
  facet normal 0 0 -1
    outer loop
      vertex 1.18015 -4.40022 0
      vertex 3.078 -3.41847 0
      vertex 1.42148 -4.37486 0
    endloop
  endfacet
  facet normal -0 -0 -1
    outer loop
      vertex 3.078 3.41847 0
      vertex 4.35122 1.17041 0
      vertex 1.18015 4.40022 0
    endloop
  endfacet
  facet normal 0 0 -1
    outer loop
      vertex 4.35122 1.17041 0
      vertex 3.078 3.41847 0
      vertex 4.20231 1.87099 0
    endloop
  endfacet
  facet normal 0 0 -1
    outer loop
      vertex 3.078 3.41847 0
      vertex 1.18015 4.40022 0
      vertex 1.42148 4.37486 0
    endloop
  endfacet
  facet normal 0 0 -1
    outer loop
      vertex 1.18015 4.40022 0
      vertex 1.10865 4.95922 0
      vertex 1.2 4.5 0
    endloop
  endfacet
  facet normal 0 0 -1
    outer loop
      vertex 1.18015 -4.40022 0
      vertex -1.17032 -4.35077 0
      vertex 1.18015 4.40022 0
    endloop
  endfacet
  facet normal -0 0 -1
    outer loop
      vertex 1.18015 -4.40022 0
      vertex 0.848528 -5.34853 0
      vertex -1.17032 -4.35077 0
    endloop
  endfacet
  facet normal 0 0 -1
    outer loop
      vertex -1.17032 4.35077 0
      vertex 1.18015 4.40022 0
      vertex -1.17032 -4.35077 0
    endloop
  endfacet
  facet normal 0 0 -1
    outer loop
      vertex -1.17032 -4.35077 0
      vertex 0.848528 -5.34853 0
      vertex 0.45922 -5.60865 0
    endloop
  endfacet
  facet normal 0 -0 -1
    outer loop
      vertex 0.848528 5.34853 0
      vertex 1.18015 4.40022 0
      vertex -1.17032 4.35077 0
    endloop
  endfacet
  facet normal 0 0 -1
    outer loop
      vertex -1.17032 -4.35077 0
      vertex 0.45922 -5.60865 0
      vertex 0 -5.7 0
    endloop
  endfacet
  facet normal 0 0 -1
    outer loop
      vertex 1.18015 4.40022 0
      vertex 0.848528 5.34853 0
      vertex 1.10865 4.95922 0
    endloop
  endfacet
  facet normal 0 0 -1
    outer loop
      vertex -1.17032 -4.35077 0
      vertex 0 -5.7 0
      vertex -0.45922 -5.60865 0
    endloop
  endfacet
  facet normal -0 0 -1
    outer loop
      vertex 0.848528 5.34853 0
      vertex -1.17032 4.35077 0
      vertex 0.45922 5.60865 0
    endloop
  endfacet
  facet normal 0 0 -1
    outer loop
      vertex -1.17032 -4.35077 0
      vertex -0.45922 -5.60865 0
      vertex -0.848528 -5.34853 0
    endloop
  endfacet
  facet normal -0 0 -1
    outer loop
      vertex 0.45922 5.60865 0
      vertex -1.17032 4.35077 0
      vertex 0 5.7 0
    endloop
  endfacet
  facet normal 0 0 -1
    outer loop
      vertex -1.17032 -4.35077 0
      vertex -0.848528 -5.34853 0
      vertex -1.10865 -4.95922 0
    endloop
  endfacet
  facet normal 0 0 -1
    outer loop
      vertex 0 5.7 0
      vertex -1.17032 4.35077 0
      vertex -0.45922 5.60865 0
    endloop
  endfacet
  facet normal 0 0 -1
    outer loop
      vertex -0.45922 5.60865 0
      vertex -1.17032 4.35077 0
      vertex -0.848528 5.34853 0
    endloop
  endfacet
  facet normal 0 -0 -1
    outer loop
      vertex -1.17032 -4.35077 0
      vertex -1.10865 -4.95922 0
      vertex -1.2 -4.5 0
    endloop
  endfacet
  facet normal 0 0 -1
    outer loop
      vertex -3.72148 -2.70381 0
      vertex -1.17032 -4.35077 0
      vertex -2.3 -3.98372 0
    endloop
  endfacet
  facet normal 0 0 -1
    outer loop
      vertex -1.17032 -4.35077 0
      vertex -4.39988 -1.18009 0
      vertex -1.17032 4.35077 0
    endloop
  endfacet
  facet normal 0 0 -1
    outer loop
      vertex -1.17032 -4.35077 0
      vertex -3.72148 -2.70381 0
      vertex -4.39988 -1.18009 0
    endloop
  endfacet
  facet normal 0 0 -1
    outer loop
      vertex -4.39988 1.18009 0
      vertex -1.17032 4.35077 0
      vertex -4.39988 -1.18009 0
    endloop
  endfacet
  facet normal 0 -0 -1
    outer loop
      vertex -3.72148 2.70381 0
      vertex -1.17032 4.35077 0
      vertex -4.39988 1.18009 0
    endloop
  endfacet
  facet normal 0 0 -1
    outer loop
      vertex -1.17032 4.35077 0
      vertex -3.72148 2.70381 0
      vertex -2.3 3.98372 0
    endloop
  endfacet
  facet normal 0 0 -1
    outer loop
      vertex -4.95922 -1.10865 0
      vertex -4.39988 -1.18009 0
      vertex -4.5 -1.2 0
    endloop
  endfacet
  facet normal 0 0 -1
    outer loop
      vertex -5.34853 -0.848528 0
      vertex -4.39988 -1.18009 0
      vertex -4.95922 -1.10865 0
    endloop
  endfacet
  facet normal 0 0 -1
    outer loop
      vertex -5.60865 -0.45922 0
      vertex -4.39988 -1.18009 0
      vertex -5.34853 -0.848528 0
    endloop
  endfacet
  facet normal -0 0 -1
    outer loop
      vertex -4.39988 1.18009 0
      vertex -4.95922 1.10865 0
      vertex -4.5 1.2 0
    endloop
  endfacet
  facet normal 0 0 -1
    outer loop
      vertex -4.39988 -1.18009 0
      vertex -5.60865 -0.45922 0
      vertex -4.39988 1.18009 0
    endloop
  endfacet
  facet normal 0 0 -1
    outer loop
      vertex -4.39988 1.18009 0
      vertex -5.34853 0.848528 0
      vertex -4.95922 1.10865 0
    endloop
  endfacet
  facet normal 0 0 -1
    outer loop
      vertex -5.60865 0.45922 0
      vertex -4.39988 1.18009 0
      vertex -5.60865 -0.45922 0
    endloop
  endfacet
  facet normal 0 0 -1
    outer loop
      vertex -4.39988 1.18009 0
      vertex -5.60865 0.45922 0
      vertex -5.34853 0.848528 0
    endloop
  endfacet
  facet normal 0 -0 -1
    outer loop
      vertex -5.60865 0.45922 0
      vertex -5.60865 -0.45922 0
      vertex -5.7 0 0
    endloop
  endfacet
  facet normal 0 0 -1
    outer loop
      vertex -0.848528 5.34853 0
      vertex -1.17032 4.35077 0
      vertex -1.10865 4.95922 0
    endloop
  endfacet
  facet normal 0 0 -1
    outer loop
      vertex -1.10865 4.95922 0
      vertex -1.17032 4.35077 0
      vertex -1.2 4.5 0
    endloop
  endfacet
  facet normal -0.669132 -0.743144 0
    outer loop
      vertex -3.72148 -2.70381 0
      vertex -2.3 -3.98372 14
      vertex -3.72148 -2.70381 14
    endloop
  endfacet
  facet normal -0.669132 -0.743144 -0
    outer loop
      vertex -2.3 -3.98372 14
      vertex -3.72148 -2.70381 0
      vertex -2.3 -3.98372 0
    endloop
  endfacet
  facet normal 0.104531 -0.994522 0
    outer loop
      vertex 1.18015 -4.40022 5
      vertex -0.48083 -4.5748 14
      vertex -0.48083 -4.5748 5
    endloop
  endfacet
  facet normal 0.104528 -0.994522 -5.1923e-07
    outer loop
      vertex -0.48083 -4.5748 14
      vertex 1.18015 -4.40022 5
      vertex 1.42148 -4.37486 14
    endloop
  endfacet
  facet normal 0.104509 -0.994524 0
    outer loop
      vertex 1.42148 -4.37486 0
      vertex 1.18015 -4.40022 5
      vertex 1.18015 -4.40022 0
    endloop
  endfacet
  facet normal 0.104509 -0.994524 0
    outer loop
      vertex 1.18015 -4.40022 5
      vertex 1.42148 -4.37486 0
      vertex 1.42148 -4.37486 14
    endloop
  endfacet
  facet normal -0.309015 -0.951057 -2.84977e-07
    outer loop
      vertex -2.3 -3.98372 14
      vertex -1.17032 -4.35077 5
      vertex -0.48083 -4.5748 14
    endloop
  endfacet
  facet normal -0.309013 -0.951058 0
    outer loop
      vertex -2.3 -3.98372 0
      vertex -1.17032 -4.35077 5
      vertex -2.3 -3.98372 14
    endloop
  endfacet
  facet normal -0.309013 -0.951058 -0
    outer loop
      vertex -1.17032 -4.35077 5
      vertex -2.3 -3.98372 0
      vertex -1.17032 -4.35077 0
    endloop
  endfacet
  facet normal -0.309018 -0.951056 -0
    outer loop
      vertex -0.48083 -4.5748 14
      vertex -1.17032 -4.35077 5
      vertex -0.48083 -4.5748 5
    endloop
  endfacet
  facet normal 0.980783 0.195102 0
    outer loop
      vertex 5.7 0 5
      vertex 5.60865 0.45922 0
      vertex 5.60865 0.45922 5
    endloop
  endfacet
  facet normal 0.980783 0.195102 0
    outer loop
      vertex 5.60865 0.45922 0
      vertex 5.7 0 5
      vertex 5.7 0 0
    endloop
  endfacet
  facet normal 0.195102 0.980783 -0
    outer loop
      vertex 4.95922 1.10865 0
      vertex 4.5 1.2 5
      vertex 4.95922 1.10865 5
    endloop
  endfacet
  facet normal 0.195102 0.980783 0
    outer loop
      vertex 4.5 1.2 5
      vertex 4.95922 1.10865 0
      vertex 4.5 1.2 0
    endloop
  endfacet
  facet normal 0.831477 0.555559 0
    outer loop
      vertex 5.60865 0.45922 5
      vertex 5.34853 0.848528 0
      vertex 5.34853 0.848528 5
    endloop
  endfacet
  facet normal 0.831477 0.555559 0
    outer loop
      vertex 5.34853 0.848528 0
      vertex 5.60865 0.45922 5
      vertex 5.60865 0.45922 0
    endloop
  endfacet
  facet normal 0.195102 -0.980783 0
    outer loop
      vertex 4.5 -1.2 0
      vertex 4.95922 -1.10865 5
      vertex 4.5 -1.2 5
    endloop
  endfacet
  facet normal 0.195102 -0.980783 0
    outer loop
      vertex 4.95922 -1.10865 5
      vertex 4.5 -1.2 0
      vertex 4.95922 -1.10865 0
    endloop
  endfacet
  facet normal -0.195064 -0.980791 0
    outer loop
      vertex 4.35122 -1.17041 0
      vertex 4.5 -1.2 5
      vertex 4.35122 -1.17041 5
    endloop
  endfacet
  facet normal -0.195064 -0.980791 -0
    outer loop
      vertex 4.5 -1.2 5
      vertex 4.35122 -1.17041 0
      vertex 4.5 -1.2 0
    endloop
  endfacet
  facet normal 0.55556 0.831476 -0
    outer loop
      vertex 5.34853 0.848528 0
      vertex 4.95922 1.10865 5
      vertex 5.34853 0.848528 5
    endloop
  endfacet
  facet normal 0.55556 0.831476 0
    outer loop
      vertex 4.95922 1.10865 5
      vertex 5.34853 0.848528 0
      vertex 4.95922 1.10865 0
    endloop
  endfacet
  facet normal -0.195064 0.980791 0
    outer loop
      vertex 4.5 1.2 0
      vertex 4.35122 1.17041 5
      vertex 4.5 1.2 5
    endloop
  endfacet
  facet normal -0.195064 0.980791 0
    outer loop
      vertex 4.35122 1.17041 5
      vertex 4.5 1.2 0
      vertex 4.35122 1.17041 0
    endloop
  endfacet
  facet normal 0 0 1
    outer loop
      vertex 4.6 0 5
      vertex 5.7 0 5
      vertex 5.60865 0.45922 5
    endloop
  endfacet
  facet normal 0 0 1
    outer loop
      vertex 4.6 0 5
      vertex 5.60865 0.45922 5
      vertex 5.34853 0.848528 5
    endloop
  endfacet
  facet normal 0 0 1
    outer loop
      vertex 5.7 0 5
      vertex 4.6 0 5
      vertex 5.60865 -0.45922 5
    endloop
  endfacet
  facet normal 0 0 1
    outer loop
      vertex 4.6 0 5
      vertex 5.34853 0.848528 5
      vertex 4.95922 1.10865 5
    endloop
  endfacet
  facet normal 0 0 1
    outer loop
      vertex 5.60865 -0.45922 5
      vertex 4.6 0 5
      vertex 5.34853 -0.848528 5
    endloop
  endfacet
  facet normal 0 0 1
    outer loop
      vertex 5.34853 -0.848528 5
      vertex 4.6 0 5
      vertex 4.95922 -1.10865 5
    endloop
  endfacet
  facet normal 0 0 1
    outer loop
      vertex 4.5 1.2 5
      vertex 4.6 0 5
      vertex 4.95922 1.10865 5
    endloop
  endfacet
  facet normal 0 0 1
    outer loop
      vertex 4.6 0 5
      vertex 4.5 1.2 5
      vertex 4.35122 1.17041 5
    endloop
  endfacet
  facet normal 0 0 1
    outer loop
      vertex 4.6 0 5
      vertex 4.5 -1.2 5
      vertex 4.95922 -1.10865 5
    endloop
  endfacet
  facet normal 0 -0 1
    outer loop
      vertex 4.5 -1.2 5
      vertex 4.6 0 5
      vertex 4.35122 -1.17041 5
    endloop
  endfacet
  facet normal 0.831477 -0.555559 0
    outer loop
      vertex 5.34853 -0.848528 5
      vertex 5.60865 -0.45922 0
      vertex 5.60865 -0.45922 5
    endloop
  endfacet
  facet normal 0.831477 -0.555559 0
    outer loop
      vertex 5.60865 -0.45922 0
      vertex 5.34853 -0.848528 5
      vertex 5.34853 -0.848528 0
    endloop
  endfacet
  facet normal 0.55556 -0.831476 0
    outer loop
      vertex 4.95922 -1.10865 0
      vertex 5.34853 -0.848528 5
      vertex 4.95922 -1.10865 5
    endloop
  endfacet
  facet normal 0.55556 -0.831476 0
    outer loop
      vertex 5.34853 -0.848528 5
      vertex 4.95922 -1.10865 0
      vertex 5.34853 -0.848528 0
    endloop
  endfacet
  facet normal 0.980783 -0.195102 0
    outer loop
      vertex 5.60865 -0.45922 5
      vertex 5.7 0 0
      vertex 5.7 0 5
    endloop
  endfacet
  facet normal 0.980783 -0.195102 0
    outer loop
      vertex 5.7 0 0
      vertex 5.60865 -0.45922 5
      vertex 5.60865 -0.45922 0
    endloop
  endfacet
  facet normal 0.980783 0.195102 0
    outer loop
      vertex 1.2 4.5 5
      vertex 1.10865 4.95922 0
      vertex 1.10865 4.95922 5
    endloop
  endfacet
  facet normal 0.980783 0.195102 0
    outer loop
      vertex 1.10865 4.95922 0
      vertex 1.2 4.5 5
      vertex 1.2 4.5 0
    endloop
  endfacet
  facet normal -0.195102 0.980783 0
    outer loop
      vertex 0 5.7 0
      vertex -0.45922 5.60865 5
      vertex 0 5.7 5
    endloop
  endfacet
  facet normal -0.195102 0.980783 0
    outer loop
      vertex -0.45922 5.60865 5
      vertex 0 5.7 0
      vertex -0.45922 5.60865 0
    endloop
  endfacet
  facet normal -0.98079 -0.195067 0
    outer loop
      vertex -1.17032 4.35077 0
      vertex -1.2 4.5 5
      vertex -1.2 4.5 0
    endloop
  endfacet
  facet normal -0.98079 -0.195067 0
    outer loop
      vertex -1.2 4.5 5
      vertex -1.17032 4.35077 0
      vertex -1.17032 4.35077 5
    endloop
  endfacet
  facet normal 0.555559 0.831477 -0
    outer loop
      vertex 0.848528 5.34853 0
      vertex 0.45922 5.60865 5
      vertex 0.848528 5.34853 5
    endloop
  endfacet
  facet normal 0.555559 0.831477 0
    outer loop
      vertex 0.45922 5.60865 5
      vertex 0.848528 5.34853 0
      vertex 0.45922 5.60865 0
    endloop
  endfacet
  facet normal 0.831476 0.55556 0
    outer loop
      vertex 1.10865 4.95922 5
      vertex 0.848528 5.34853 0
      vertex 0.848528 5.34853 5
    endloop
  endfacet
  facet normal 0.831476 0.55556 0
    outer loop
      vertex 0.848528 5.34853 0
      vertex 1.10865 4.95922 5
      vertex 1.10865 4.95922 0
    endloop
  endfacet
  facet normal 0.195102 0.980783 -0
    outer loop
      vertex 0.45922 5.60865 0
      vertex 0 5.7 5
      vertex 0.45922 5.60865 5
    endloop
  endfacet
  facet normal 0.195102 0.980783 0
    outer loop
      vertex 0 5.7 5
      vertex 0.45922 5.60865 0
      vertex 0 5.7 0
    endloop
  endfacet
  facet normal -0.555559 0.831477 0
    outer loop
      vertex -0.45922 5.60865 0
      vertex -0.848528 5.34853 5
      vertex -0.45922 5.60865 5
    endloop
  endfacet
  facet normal -0.555559 0.831477 0
    outer loop
      vertex -0.848528 5.34853 5
      vertex -0.45922 5.60865 0
      vertex -0.848528 5.34853 0
    endloop
  endfacet
  facet normal -0.831476 0.55556 0
    outer loop
      vertex -1.10865 4.95922 0
      vertex -0.848528 5.34853 5
      vertex -0.848528 5.34853 0
    endloop
  endfacet
  facet normal -0.831476 0.55556 0
    outer loop
      vertex -0.848528 5.34853 5
      vertex -1.10865 4.95922 0
      vertex -1.10865 4.95922 5
    endloop
  endfacet
  facet normal 0 0 1
    outer loop
      vertex 1.10865 4.95922 5
      vertex 1.18015 4.40022 5
      vertex 1.2 4.5 5
    endloop
  endfacet
  facet normal 0 0 1
    outer loop
      vertex -0.48083 4.5748 5
      vertex 1.10865 4.95922 5
      vertex 0.848528 5.34853 5
    endloop
  endfacet
  facet normal 0 0 1
    outer loop
      vertex -0.48083 4.5748 5
      vertex 0.848528 5.34853 5
      vertex 0.45922 5.60865 5
    endloop
  endfacet
  facet normal 0 0 1
    outer loop
      vertex -0.48083 4.5748 5
      vertex 0.45922 5.60865 5
      vertex 0 5.7 5
    endloop
  endfacet
  facet normal 0 0 1
    outer loop
      vertex -0.48083 4.5748 5
      vertex 0 5.7 5
      vertex -0.45922 5.60865 5
    endloop
  endfacet
  facet normal 0 0 1
    outer loop
      vertex 1.10865 4.95922 5
      vertex -0.48083 4.5748 5
      vertex 1.18015 4.40022 5
    endloop
  endfacet
  facet normal -0 0 1
    outer loop
      vertex -0.848528 5.34853 5
      vertex -0.48083 4.5748 5
      vertex -0.45922 5.60865 5
    endloop
  endfacet
  facet normal -0 0 1
    outer loop
      vertex -1.10865 4.95922 5
      vertex -0.48083 4.5748 5
      vertex -0.848528 5.34853 5
    endloop
  endfacet
  facet normal 0 0 1
    outer loop
      vertex -1.2 4.5 5
      vertex -0.48083 4.5748 5
      vertex -1.10865 4.95922 5
    endloop
  endfacet
  facet normal 0 0 1
    outer loop
      vertex -0.48083 4.5748 5
      vertex -1.2 4.5 5
      vertex -1.17032 4.35077 5
    endloop
  endfacet
  facet normal -0.980783 0.195102 0
    outer loop
      vertex -1.2 4.5 0
      vertex -1.10865 4.95922 5
      vertex -1.10865 4.95922 0
    endloop
  endfacet
  facet normal -0.980783 0.195102 0
    outer loop
      vertex -1.10865 4.95922 5
      vertex -1.2 4.5 0
      vertex -1.2 4.5 5
    endloop
  endfacet
  facet normal 0.980781 -0.195114 0
    outer loop
      vertex 1.18015 4.40022 5
      vertex 1.2 4.5 0
      vertex 1.2 4.5 5
    endloop
  endfacet
  facet normal 0.980781 -0.195114 0
    outer loop
      vertex 1.2 4.5 0
      vertex 1.18015 4.40022 5
      vertex 1.18015 4.40022 0
    endloop
  endfacet
  facet normal -0.980783 0.195102 0
    outer loop
      vertex -5.7 0 0
      vertex -5.60865 0.45922 5
      vertex -5.60865 0.45922 0
    endloop
  endfacet
  facet normal -0.980783 0.195102 0
    outer loop
      vertex -5.60865 0.45922 5
      vertex -5.7 0 0
      vertex -5.7 0 5
    endloop
  endfacet
  facet normal 0.195042 0.980795 -0
    outer loop
      vertex -4.39988 1.18009 0
      vertex -4.5 1.2 5
      vertex -4.39988 1.18009 5
    endloop
  endfacet
  facet normal 0.195042 0.980795 0
    outer loop
      vertex -4.5 1.2 5
      vertex -4.39988 1.18009 0
      vertex -4.5 1.2 0
    endloop
  endfacet
  facet normal -0.195102 -0.980783 0
    outer loop
      vertex -4.95922 -1.10865 0
      vertex -4.5 -1.2 5
      vertex -4.95922 -1.10865 5
    endloop
  endfacet
  facet normal -0.195102 -0.980783 -0
    outer loop
      vertex -4.5 -1.2 5
      vertex -4.95922 -1.10865 0
      vertex -4.5 -1.2 0
    endloop
  endfacet
  facet normal -0.195102 0.980783 0
    outer loop
      vertex -4.5 1.2 0
      vertex -4.95922 1.10865 5
      vertex -4.5 1.2 5
    endloop
  endfacet
  facet normal -0.195102 0.980783 0
    outer loop
      vertex -4.95922 1.10865 5
      vertex -4.5 1.2 0
      vertex -4.95922 1.10865 0
    endloop
  endfacet
  facet normal -0.831477 0.555559 0
    outer loop
      vertex -5.60865 0.45922 0
      vertex -5.34853 0.848528 5
      vertex -5.34853 0.848528 0
    endloop
  endfacet
  facet normal -0.831477 0.555559 0
    outer loop
      vertex -5.34853 0.848528 5
      vertex -5.60865 0.45922 0
      vertex -5.60865 0.45922 5
    endloop
  endfacet
  facet normal -0.55556 0.831476 0
    outer loop
      vertex -4.95922 1.10865 0
      vertex -5.34853 0.848528 5
      vertex -4.95922 1.10865 5
    endloop
  endfacet
  facet normal -0.55556 0.831476 0
    outer loop
      vertex -5.34853 0.848528 5
      vertex -4.95922 1.10865 0
      vertex -5.34853 0.848528 0
    endloop
  endfacet
  facet normal 0.195042 -0.980795 0
    outer loop
      vertex -4.5 -1.2 0
      vertex -4.39988 -1.18009 5
      vertex -4.5 -1.2 5
    endloop
  endfacet
  facet normal 0.195042 -0.980795 0
    outer loop
      vertex -4.39988 -1.18009 5
      vertex -4.5 -1.2 0
      vertex -4.39988 -1.18009 0
    endloop
  endfacet
  facet normal -0.980783 -0.195102 0
    outer loop
      vertex -5.60865 -0.45922 0
      vertex -5.7 0 5
      vertex -5.7 0 0
    endloop
  endfacet
  facet normal -0.980783 -0.195102 0
    outer loop
      vertex -5.7 0 5
      vertex -5.60865 -0.45922 0
      vertex -5.60865 -0.45922 5
    endloop
  endfacet
  facet normal -0.55556 -0.831476 0
    outer loop
      vertex -5.34853 -0.848528 0
      vertex -4.95922 -1.10865 5
      vertex -5.34853 -0.848528 5
    endloop
  endfacet
  facet normal -0.55556 -0.831476 -0
    outer loop
      vertex -4.95922 -1.10865 5
      vertex -5.34853 -0.848528 0
      vertex -4.95922 -1.10865 0
    endloop
  endfacet
  facet normal -0.831477 -0.555559 0
    outer loop
      vertex -5.34853 -0.848528 0
      vertex -5.60865 -0.45922 5
      vertex -5.60865 -0.45922 0
    endloop
  endfacet
  facet normal -0.831477 -0.555559 0
    outer loop
      vertex -5.60865 -0.45922 5
      vertex -5.34853 -0.848528 0
      vertex -5.34853 -0.848528 5
    endloop
  endfacet
  facet normal -0 0 1
    outer loop
      vertex -4.95922 1.10865 5
      vertex -4.49948 0.956393 5
      vertex -4.5 1.2 5
    endloop
  endfacet
  facet normal 0 0 1
    outer loop
      vertex -4.5 1.2 5
      vertex -4.49948 0.956393 5
      vertex -4.39988 1.18009 5
    endloop
  endfacet
  facet normal 0 0 1
    outer loop
      vertex -4.49948 -0.956393 5
      vertex -4.5 -1.2 5
      vertex -4.39988 -1.18009 5
    endloop
  endfacet
  facet normal 0 0 1
    outer loop
      vertex -5.34853 0.848528 5
      vertex -4.49948 0.956393 5
      vertex -4.95922 1.10865 5
    endloop
  endfacet
  facet normal 0 0 1
    outer loop
      vertex -5.60865 0.45922 5
      vertex -4.49948 0.956393 5
      vertex -5.34853 0.848528 5
    endloop
  endfacet
  facet normal 0 0 1
    outer loop
      vertex -4.49948 -0.956393 5
      vertex -4.95922 -1.10865 5
      vertex -4.5 -1.2 5
    endloop
  endfacet
  facet normal 0 0 1
    outer loop
      vertex -5.7 0 5
      vertex -4.49948 0.956393 5
      vertex -5.60865 0.45922 5
    endloop
  endfacet
  facet normal 0 0 1
    outer loop
      vertex -4.49948 -0.956393 5
      vertex -5.34853 -0.848528 5
      vertex -4.95922 -1.10865 5
    endloop
  endfacet
  facet normal 0 0 1
    outer loop
      vertex -4.49948 0.956393 5
      vertex -5.7 0 5
      vertex -4.49948 -0.956393 5
    endloop
  endfacet
  facet normal 0 0 1
    outer loop
      vertex -4.49948 -0.956393 5
      vertex -5.60865 -0.45922 5
      vertex -5.34853 -0.848528 5
    endloop
  endfacet
  facet normal 0 0 1
    outer loop
      vertex -4.49948 -0.956393 5
      vertex -5.7 0 5
      vertex -5.60865 -0.45922 5
    endloop
  endfacet
  facet normal 0.980781 0.195114 0
    outer loop
      vertex 1.2 -4.5 5
      vertex 1.18015 -4.40022 0
      vertex 1.18015 -4.40022 5
    endloop
  endfacet
  facet normal 0.980781 0.195114 0
    outer loop
      vertex 1.18015 -4.40022 0
      vertex 1.2 -4.5 5
      vertex 1.2 -4.5 0
    endloop
  endfacet
  facet normal -0.98079 0.195067 0
    outer loop
      vertex -1.2 -4.5 0
      vertex -1.17032 -4.35077 5
      vertex -1.17032 -4.35077 0
    endloop
  endfacet
  facet normal -0.98079 0.195067 0
    outer loop
      vertex -1.17032 -4.35077 5
      vertex -1.2 -4.5 0
      vertex -1.2 -4.5 5
    endloop
  endfacet
  facet normal 0.195102 -0.980783 0
    outer loop
      vertex 0 -5.7 0
      vertex 0.45922 -5.60865 5
      vertex 0 -5.7 5
    endloop
  endfacet
  facet normal 0.195102 -0.980783 0
    outer loop
      vertex 0.45922 -5.60865 5
      vertex 0 -5.7 0
      vertex 0.45922 -5.60865 0
    endloop
  endfacet
  facet normal -0.195102 -0.980783 0
    outer loop
      vertex -0.45922 -5.60865 0
      vertex 0 -5.7 5
      vertex -0.45922 -5.60865 5
    endloop
  endfacet
  facet normal -0.195102 -0.980783 -0
    outer loop
      vertex 0 -5.7 5
      vertex -0.45922 -5.60865 0
      vertex 0 -5.7 0
    endloop
  endfacet
  facet normal -0.980783 -0.195102 0
    outer loop
      vertex -1.10865 -4.95922 0
      vertex -1.2 -4.5 5
      vertex -1.2 -4.5 0
    endloop
  endfacet
  facet normal -0.980783 -0.195102 0
    outer loop
      vertex -1.2 -4.5 5
      vertex -1.10865 -4.95922 0
      vertex -1.10865 -4.95922 5
    endloop
  endfacet
  facet normal -0.555559 -0.831477 0
    outer loop
      vertex -0.848528 -5.34853 0
      vertex -0.45922 -5.60865 5
      vertex -0.848528 -5.34853 5
    endloop
  endfacet
  facet normal -0.555559 -0.831477 -0
    outer loop
      vertex -0.45922 -5.60865 5
      vertex -0.848528 -5.34853 0
      vertex -0.45922 -5.60865 0
    endloop
  endfacet
  facet normal -0.831476 -0.55556 0
    outer loop
      vertex -0.848528 -5.34853 0
      vertex -1.10865 -4.95922 5
      vertex -1.10865 -4.95922 0
    endloop
  endfacet
  facet normal -0.831476 -0.55556 0
    outer loop
      vertex -1.10865 -4.95922 5
      vertex -0.848528 -5.34853 0
      vertex -0.848528 -5.34853 5
    endloop
  endfacet
  facet normal 0 0 1
    outer loop
      vertex 1.18015 -4.40022 5
      vertex 1.10865 -4.95922 5
      vertex 1.2 -4.5 5
    endloop
  endfacet
  facet normal -0 0 1
    outer loop
      vertex -0.48083 -4.5748 5
      vertex 1.10865 -4.95922 5
      vertex 1.18015 -4.40022 5
    endloop
  endfacet
  facet normal 0 0 1
    outer loop
      vertex 1.10865 -4.95922 5
      vertex -0.48083 -4.5748 5
      vertex 0.848528 -5.34853 5
    endloop
  endfacet
  facet normal 0 0 1
    outer loop
      vertex 0.848528 -5.34853 5
      vertex -0.48083 -4.5748 5
      vertex 0.45922 -5.60865 5
    endloop
  endfacet
  facet normal 0 0 1
    outer loop
      vertex 0.45922 -5.60865 5
      vertex -0.48083 -4.5748 5
      vertex 0 -5.7 5
    endloop
  endfacet
  facet normal 0 0 1
    outer loop
      vertex 0 -5.7 5
      vertex -0.48083 -4.5748 5
      vertex -0.45922 -5.60865 5
    endloop
  endfacet
  facet normal 0 0 1
    outer loop
      vertex -0.48083 -4.5748 5
      vertex -0.848528 -5.34853 5
      vertex -0.45922 -5.60865 5
    endloop
  endfacet
  facet normal 0 0 1
    outer loop
      vertex -0.48083 -4.5748 5
      vertex -1.10865 -4.95922 5
      vertex -0.848528 -5.34853 5
    endloop
  endfacet
  facet normal -0 0 1
    outer loop
      vertex -1.2 -4.5 5
      vertex -0.48083 -4.5748 5
      vertex -1.17032 -4.35077 5
    endloop
  endfacet
  facet normal 0 0 1
    outer loop
      vertex -0.48083 -4.5748 5
      vertex -1.2 -4.5 5
      vertex -1.10865 -4.95922 5
    endloop
  endfacet
  facet normal 0.831476 -0.55556 0
    outer loop
      vertex 0.848528 -5.34853 5
      vertex 1.10865 -4.95922 0
      vertex 1.10865 -4.95922 5
    endloop
  endfacet
  facet normal 0.831476 -0.55556 0
    outer loop
      vertex 1.10865 -4.95922 0
      vertex 0.848528 -5.34853 5
      vertex 0.848528 -5.34853 0
    endloop
  endfacet
  facet normal 0.555559 -0.831477 0
    outer loop
      vertex 0.45922 -5.60865 0
      vertex 0.848528 -5.34853 5
      vertex 0.45922 -5.60865 5
    endloop
  endfacet
  facet normal 0.555559 -0.831477 0
    outer loop
      vertex 0.848528 -5.34853 5
      vertex 0.45922 -5.60865 0
      vertex 0.848528 -5.34853 0
    endloop
  endfacet
  facet normal 0.980783 -0.195102 0
    outer loop
      vertex 1.10865 -4.95922 5
      vertex 1.2 -4.5 0
      vertex 1.2 -4.5 5
    endloop
  endfacet
  facet normal 0.980783 -0.195102 0
    outer loop
      vertex 1.2 -4.5 0
      vertex 1.10865 -4.95922 5
      vertex 1.10865 -4.95922 0
    endloop
  endfacet
  facet normal 0.970941 0.239318 0
    outer loop
      vertex 4 0 104
      vertex 3.54182 1.85889 14
      vertex 3.54182 1.85889 104
    endloop
  endfacet
  facet normal 0.970941 0.239318 0
    outer loop
      vertex 3.54182 1.85889 14
      vertex 4 0 104
      vertex 4 0 14
    endloop
  endfacet
  facet normal -1 0 0
    outer loop
      vertex -3.88377 -0.957262 14
      vertex -3.88377 0.957262 104
      vertex -3.88377 0.957262 14
    endloop
  endfacet
  facet normal -1 -0 0
    outer loop
      vertex -3.88377 0.957262 104
      vertex -3.88377 -0.957262 14
      vertex -3.88377 -0.957262 104
    endloop
  endfacet
  facet normal -0.120536 0.992709 0
    outer loop
      vertex 0.482146 3.97083 14
      vertex -1.41842 3.74006 104
      vertex 0.482146 3.97083 104
    endloop
  endfacet
  facet normal -0.120536 0.992709 0
    outer loop
      vertex -1.41842 3.74006 104
      vertex 0.482146 3.97083 14
      vertex -1.41842 3.74006 14
    endloop
  endfacet
  facet normal 0.748511 0.663122 0
    outer loop
      vertex 3.54182 1.85889 104
      vertex 2.27226 3.29193 14
      vertex 2.27226 3.29193 104
    endloop
  endfacet
  facet normal 0.748511 0.663122 0
    outer loop
      vertex 2.27226 3.29193 14
      vertex 3.54182 1.85889 104
      vertex 3.54182 1.85889 14
    endloop
  endfacet
  facet normal -0.568064 0.822984 0
    outer loop
      vertex -1.41842 3.74006 14
      vertex -2.99404 2.65249 104
      vertex -1.41842 3.74006 104
    endloop
  endfacet
  facet normal -0.568064 0.822984 0
    outer loop
      vertex -2.99404 2.65249 104
      vertex -1.41842 3.74006 14
      vertex -2.99404 2.65249 14
    endloop
  endfacet
  facet normal 0.970941 -0.239318 0
    outer loop
      vertex 3.54182 -1.85889 104
      vertex 4 0 14
      vertex 4 0 104
    endloop
  endfacet
  facet normal 0.970941 -0.239318 0
    outer loop
      vertex 4 0 14
      vertex 3.54182 -1.85889 104
      vertex 3.54182 -1.85889 14
    endloop
  endfacet
  facet normal 0.354605 0.935016 -0
    outer loop
      vertex 2.27226 3.29193 14
      vertex 0.482146 3.97083 104
      vertex 2.27226 3.29193 104
    endloop
  endfacet
  facet normal 0.354605 0.935016 0
    outer loop
      vertex 0.482146 3.97083 104
      vertex 2.27226 3.29193 14
      vertex 0.482146 3.97083 14
    endloop
  endfacet
  facet normal -0.885455 -0.464726 0
    outer loop
      vertex -2.99404 -2.65249 14
      vertex -3.88377 -0.957262 104
      vertex -3.88377 -0.957262 14
    endloop
  endfacet
  facet normal -0.885455 -0.464726 0
    outer loop
      vertex -3.88377 -0.957262 104
      vertex -2.99404 -2.65249 14
      vertex -2.99404 -2.65249 104
    endloop
  endfacet
  facet normal 0.748511 -0.663122 0
    outer loop
      vertex 2.27226 -3.29193 104
      vertex 3.54182 -1.85889 14
      vertex 3.54182 -1.85889 104
    endloop
  endfacet
  facet normal 0.748511 -0.663122 0
    outer loop
      vertex 3.54182 -1.85889 14
      vertex 2.27226 -3.29193 104
      vertex 2.27226 -3.29193 14
    endloop
  endfacet
  facet normal -0.885455 0.464726 0
    outer loop
      vertex -3.88377 0.957262 14
      vertex -2.99404 2.65249 104
      vertex -2.99404 2.65249 14
    endloop
  endfacet
  facet normal -0.885455 0.464726 0
    outer loop
      vertex -2.99404 2.65249 104
      vertex -3.88377 0.957262 14
      vertex -3.88377 0.957262 104
    endloop
  endfacet
  facet normal -0.568064 -0.822984 0
    outer loop
      vertex -2.99404 -2.65249 14
      vertex -1.41842 -3.74006 104
      vertex -2.99404 -2.65249 104
    endloop
  endfacet
  facet normal -0.568064 -0.822984 -0
    outer loop
      vertex -1.41842 -3.74006 104
      vertex -2.99404 -2.65249 14
      vertex -1.41842 -3.74006 14
    endloop
  endfacet
  facet normal 0.354605 -0.935016 0
    outer loop
      vertex 0.482146 -3.97083 14
      vertex 2.27226 -3.29193 104
      vertex 0.482146 -3.97083 104
    endloop
  endfacet
  facet normal 0.354605 -0.935016 0
    outer loop
      vertex 2.27226 -3.29193 104
      vertex 0.482146 -3.97083 14
      vertex 2.27226 -3.29193 14
    endloop
  endfacet
  facet normal -0.120536 -0.992709 0
    outer loop
      vertex -1.41842 -3.74006 14
      vertex 0.482146 -3.97083 104
      vertex -1.41842 -3.74006 104
    endloop
  endfacet
  facet normal -0.120536 -0.992709 -0
    outer loop
      vertex 0.482146 -3.97083 104
      vertex -1.41842 -3.74006 14
      vertex 0.482146 -3.97083 14
    endloop
  endfacet
  facet normal -0.0952838 0.784749 0.612446
    outer loop
      vertex 0.434399 3.5776 105.736
      vertex -0.88437 2.33189 107.127
      vertex 0.300613 2.47577 107.127
    endloop
  endfacet
  facet normal 0.73079 0.647423 0.216307
    outer loop
      vertex 3.54182 1.85889 104
      vertex 2.04723 2.96593 105.736
      vertex 3.19107 1.6748 105.736
    endloop
  endfacet
  facet normal 0.767542 -0.189184 0.612445
    outer loop
      vertex 2.49396 0 107.127
      vertex 2.20829 -1.159 107.127
      vertex 3.60388 0 105.736
    endloop
  endfacet
  facet normal 0.730791 0.647423 0.216307
    outer loop
      vertex 2.27226 3.29193 104
      vertex 2.04723 2.96593 105.736
      vertex 3.54182 1.85889 104
    endloop
  endfacet
  facet normal 0.157664 0.415725 0.89572
    outer loop
      vertex 1.41673 2.05249 107.127
      vertex 0.107287 0.883594 107.9
      vertex 0.505625 0.732524 107.9
    endloop
  endfacet
  facet normal 0.157664 -0.415725 0.89572
    outer loop
      vertex 0.505625 -0.732524 107.9
      vertex 0.107287 -0.883594 107.9
      vertex 1.41673 -2.05249 107.127
    endloop
  endfacet
  facet normal 0.280321 0.739142 0.612445
    outer loop
      vertex 0.434399 3.5776 105.736
      vertex 0.300613 2.47577 107.127
      vertex 2.04723 2.96593 105.736
    endloop
  endfacet
  facet normal 0.591711 -0.524208 0.612441
    outer loop
      vertex 2.20829 -1.159 107.127
      vertex 1.41673 -2.05249 107.127
      vertex 2.04723 -2.96593 105.736
    endloop
  endfacet
  facet normal -0.554615 -0.803501 0.216306
    outer loop
      vertex -2.69754 -2.38981 105.736
      vertex -2.99404 -2.65249 104
      vertex -1.27795 -3.36968 105.736
    endloop
  endfacet
  facet normal 0.346212 0.91288 0.216303
    outer loop
      vertex 0.482146 3.97083 104
      vertex 0.434399 3.5776 105.736
      vertex 2.04723 2.96593 105.736
    endloop
  endfacet
  facet normal 0.947955 0.233655 0.216304
    outer loop
      vertex 4 0 104
      vertex 3.19107 1.6748 105.736
      vertex 3.60388 0 105.736
    endloop
  endfacet
  facet normal -0.790515 0 0.612442
    outer loop
      vertex -3.49915 0.862463 105.736
      vertex -2.42149 -0.596843 107.127
      vertex -2.42149 0.596843 107.127
    endloop
  endfacet
  facet normal -0.790515 0 0.612442
    outer loop
      vertex -2.42149 -0.596843 107.127
      vertex -3.49915 0.862463 105.736
      vertex -3.49915 -0.862463 105.736
    endloop
  endfacet
  facet normal 0.280317 -0.739147 0.612441
    outer loop
      vertex 1.41673 -2.05249 107.127
      vertex 0.300613 -2.47577 107.127
      vertex 2.04723 -2.96593 105.736
    endloop
  endfacet
  facet normal 0.332802 0.294836 0.89572
    outer loop
      vertex 1.41673 2.05249 107.127
      vertex 0.505625 0.732524 107.9
      vertex 2.20829 1.159 107.127
    endloop
  endfacet
  facet normal 0.157662 0.415727 0.89572
    outer loop
      vertex 0.300613 2.47577 107.127
      vertex 0.107287 0.883594 107.9
      vertex 1.41673 2.05249 107.127
    endloop
  endfacet
  facet normal 0.59171 0.524208 0.612442
    outer loop
      vertex 3.19107 1.6748 105.736
      vertex 2.04723 2.96593 105.736
      vertex 2.20829 1.159 107.127
    endloop
  endfacet
  facet normal 0.34621 0.912881 0.216306
    outer loop
      vertex 2.27226 3.29193 104
      vertex 0.482146 3.97083 104
      vertex 2.04723 2.96593 105.736
    endloop
  endfacet
  facet normal -0.699967 0.367369 0.612442
    outer loop
      vertex -2.69754 2.38981 105.736
      vertex -3.49915 0.862463 105.736
      vertex -2.42149 0.596843 107.127
    endloop
  endfacet
  facet normal -0.117685 -0.969207 0.216305
    outer loop
      vertex -1.27795 -3.36968 105.736
      vertex -1.41842 -3.74006 104
      vertex 0.434399 -3.5776 105.736
    endloop
  endfacet
  facet normal 0.730791 -0.647423 0.216307
    outer loop
      vertex 3.54182 -1.85889 104
      vertex 2.04723 -2.96593 105.736
      vertex 2.27226 -3.29193 104
    endloop
  endfacet
  facet normal 0.34621 -0.912881 0.216306
    outer loop
      vertex 2.04723 -2.96593 105.736
      vertex 0.482146 -3.97083 104
      vertex 2.27226 -3.29193 104
    endloop
  endfacet
  facet normal 0.947955 0.233652 0.216307
    outer loop
      vertex 3.54182 1.85889 104
      vertex 3.19107 1.6748 105.736
      vertex 4 0 104
    endloop
  endfacet
  facet normal 0.431699 -0.106405 0.89572
    outer loop
      vertex 2.49396 0 107.127
      vertex 0.890083 0 107.9
      vertex 2.20829 -1.159 107.127
    endloop
  endfacet
  facet normal 0.73079 -0.647423 0.216307
    outer loop
      vertex 3.19107 -1.6748 105.736
      vertex 2.04723 -2.96593 105.736
      vertex 3.54182 -1.85889 104
    endloop
  endfacet
  facet normal 0.767543 0.189186 0.612443
    outer loop
      vertex 3.19107 1.6748 105.736
      vertex 2.20829 1.159 107.127
      vertex 3.60388 0 105.736
    endloop
  endfacet
  facet normal 0.4317 0.106404 0.89572
    outer loop
      vertex 2.20829 1.159 107.127
      vertex 0.78813 0.413642 107.9
      vertex 0.890083 0 107.9
    endloop
  endfacet
  facet normal -0.117683 0.969208 0.216303
    outer loop
      vertex 0.482146 3.97083 104
      vertex -1.41842 3.74006 104
      vertex 0.434399 3.5776 105.736
    endloop
  endfacet
  facet normal -0.864494 -0.453719 0.21631
    outer loop
      vertex -3.49915 -0.862463 105.736
      vertex -3.88377 -0.957262 104
      vertex -2.69754 -2.38981 105.736
    endloop
  endfacet
  facet normal -0.39369 -0.206627 0.89572
    outer loop
      vertex -0.666237 -0.590234 107.9
      vertex -2.42149 -0.596843 107.127
      vertex -1.86675 -1.6538 107.127
    endloop
  endfacet
  facet normal -0.699963 -0.367373 0.612446
    outer loop
      vertex -2.42149 -0.596843 107.127
      vertex -2.69754 -2.38981 105.736
      vertex -1.86675 -1.6538 107.127
    endloop
  endfacet
  facet normal 0.591711 0.524208 0.612441
    outer loop
      vertex 2.04723 2.96593 105.736
      vertex 1.41673 2.05249 107.127
      vertex 2.20829 1.159 107.127
    endloop
  endfacet
  facet normal -0.0535939 -0.441377 0.89572
    outer loop
      vertex -0.315627 -0.832242 107.9
      vertex -0.88437 -2.33189 107.127
      vertex 0.107287 -0.883594 107.9
    endloop
  endfacet
  facet normal -0.117683 -0.969208 0.216303
    outer loop
      vertex 0.434399 -3.5776 105.736
      vertex -1.41842 -3.74006 104
      vertex 0.482146 -3.97083 104
    endloop
  endfacet
  facet normal 0.947955 -0.233652 0.216307
    outer loop
      vertex 4 0 104
      vertex 3.19107 -1.6748 105.736
      vertex 3.54182 -1.85889 104
    endloop
  endfacet
  facet normal 0.947955 -0.233655 0.216304
    outer loop
      vertex 3.60388 0 105.736
      vertex 3.19107 -1.6748 105.736
      vertex 4 0 104
    endloop
  endfacet
  facet normal 0.332802 0.294837 0.89572
    outer loop
      vertex 2.20829 1.159 107.127
      vertex 0.505625 0.732524 107.9
      vertex 0.78813 0.413642 107.9
    endloop
  endfacet
  facet normal 0.280317 0.739147 0.612441
    outer loop
      vertex 2.04723 2.96593 105.736
      vertex 0.300613 2.47577 107.127
      vertex 1.41673 2.05249 107.127
    endloop
  endfacet
  facet normal 0.59171 -0.524208 0.612442
    outer loop
      vertex 2.20829 -1.159 107.127
      vertex 2.04723 -2.96593 105.736
      vertex 3.19107 -1.6748 105.736
    endloop
  endfacet
  facet normal 0.767543 -0.189186 0.612443
    outer loop
      vertex 3.60388 0 105.736
      vertex 2.20829 -1.159 107.127
      vertex 3.19107 -1.6748 105.736
    endloop
  endfacet
  facet normal -0.699963 0.367373 0.612446
    outer loop
      vertex -1.86675 1.6538 107.127
      vertex -2.69754 2.38981 105.736
      vertex -2.42149 0.596843 107.127
    endloop
  endfacet
  facet normal -0.864492 -0.453723 0.216305
    outer loop
      vertex -2.69754 -2.38981 105.736
      vertex -3.88377 -0.957262 104
      vertex -2.99404 -2.65249 104
    endloop
  endfacet
  facet normal -0.252572 -0.365914 0.89572
    outer loop
      vertex -0.666237 -0.590234 107.9
      vertex -0.88437 -2.33189 107.127
      vertex -0.315627 -0.832242 107.9
    endloop
  endfacet
  facet normal -0.0535919 -0.441378 0.895719
    outer loop
      vertex 0.107287 -0.883594 107.9
      vertex -0.88437 -2.33189 107.127
      vertex 0.300613 -2.47577 107.127
    endloop
  endfacet
  facet normal -0.0952838 -0.784749 0.612446
    outer loop
      vertex 0.300613 -2.47577 107.127
      vertex -0.88437 -2.33189 107.127
      vertex 0.434399 -3.5776 105.736
    endloop
  endfacet
  facet normal -0.554615 -0.803501 0.216306
    outer loop
      vertex -1.27795 -3.36968 105.736
      vertex -2.99404 -2.65249 104
      vertex -1.41842 -3.74006 104
    endloop
  endfacet
  facet normal 0.431699 0.106405 0.89572
    outer loop
      vertex 2.20829 1.159 107.127
      vertex 0.890083 0 107.9
      vertex 2.49396 0 107.127
    endloop
  endfacet
  facet normal 0.767542 0.189184 0.612445
    outer loop
      vertex 3.60388 0 105.736
      vertex 2.20829 1.159 107.127
      vertex 2.49396 0 107.127
    endloop
  endfacet
  facet normal 0.4317 -0.106404 0.89572
    outer loop
      vertex 0.890083 0 107.9
      vertex 0.78813 -0.413642 107.9
      vertex 2.20829 -1.159 107.127
    endloop
  endfacet
  facet normal 0.332802 -0.294836 0.89572
    outer loop
      vertex 2.20829 -1.159 107.127
      vertex 0.505625 -0.732524 107.9
      vertex 1.41673 -2.05249 107.127
    endloop
  endfacet
  facet normal 0.157662 -0.415727 0.89572
    outer loop
      vertex 1.41673 -2.05249 107.127
      vertex 0.107287 -0.883594 107.9
      vertex 0.300613 -2.47577 107.127
    endloop
  endfacet
  facet normal -0.0952874 0.78475 0.612444
    outer loop
      vertex 0.434399 3.5776 105.736
      vertex -1.27795 3.36968 105.736
      vertex -0.88437 2.33189 107.127
    endloop
  endfacet
  facet normal -0.699967 -0.367369 0.612442
    outer loop
      vertex -2.42149 -0.596843 107.127
      vertex -3.49915 -0.862463 105.736
      vertex -2.69754 -2.38981 105.736
    endloop
  endfacet
  facet normal -0.39369 0.206627 0.89572
    outer loop
      vertex -1.86675 1.6538 107.127
      vertex -2.42149 0.596843 107.127
      vertex -0.666237 0.590234 107.9
    endloop
  endfacet
  facet normal -0.449063 -0.650581 0.612443
    outer loop
      vertex -0.88437 -2.33189 107.127
      vertex -2.69754 -2.38981 105.736
      vertex -1.27795 -3.36968 105.736
    endloop
  endfacet
  facet normal -0.0952874 -0.78475 0.612444
    outer loop
      vertex -0.88437 -2.33189 107.127
      vertex -1.27795 -3.36968 105.736
      vertex 0.434399 -3.5776 105.736
    endloop
  endfacet
  facet normal 0.332802 -0.294837 0.89572
    outer loop
      vertex 0.78813 -0.413642 107.9
      vertex 0.505625 -0.732524 107.9
      vertex 2.20829 -1.159 107.127
    endloop
  endfacet
  facet normal -0.449063 0.650581 0.612443
    outer loop
      vertex -1.27795 3.36968 105.736
      vertex -2.69754 2.38981 105.736
      vertex -0.88437 2.33189 107.127
    endloop
  endfacet
  facet normal -0.864494 0.453719 0.21631
    outer loop
      vertex -2.69754 2.38981 105.736
      vertex -3.88377 0.957262 104
      vertex -3.49915 0.862463 105.736
    endloop
  endfacet
  facet normal -0.976325 0 0.21631
    outer loop
      vertex -3.88377 0.957262 104
      vertex -3.49915 -0.862463 105.736
      vertex -3.49915 0.862463 105.736
    endloop
  endfacet
  facet normal -0.976325 0 0.21631
    outer loop
      vertex -3.49915 -0.862463 105.736
      vertex -3.88377 0.957262 104
      vertex -3.88377 -0.957262 104
    endloop
  endfacet
  facet normal -0.252573 0.365914 0.89572
    outer loop
      vertex -0.88437 2.33189 107.127
      vertex -1.86675 1.6538 107.127
      vertex -0.666237 0.590234 107.9
    endloop
  endfacet
  facet normal -0.449064 0.650579 0.612445
    outer loop
      vertex -0.88437 2.33189 107.127
      vertex -2.69754 2.38981 105.736
      vertex -1.86675 1.6538 107.127
    endloop
  endfacet
  facet normal -0.444619 0 0.89572
    outer loop
      vertex -2.42149 0.596843 107.127
      vertex -0.864219 -0.213011 107.9
      vertex -0.864219 0.213011 107.9
    endloop
  endfacet
  facet normal -0.444619 0 0.89572
    outer loop
      vertex -0.864219 -0.213011 107.9
      vertex -2.42149 0.596843 107.127
      vertex -2.42149 -0.596843 107.127
    endloop
  endfacet
  facet normal -0.39369 -0.206625 0.89572
    outer loop
      vertex -0.864219 -0.213011 107.9
      vertex -2.42149 -0.596843 107.127
      vertex -0.666237 -0.590234 107.9
    endloop
  endfacet
  facet normal -0.554615 0.803501 0.216306
    outer loop
      vertex -1.27795 3.36968 105.736
      vertex -2.99404 2.65249 104
      vertex -2.69754 2.38981 105.736
    endloop
  endfacet
  facet normal 0.346212 -0.91288 0.216303
    outer loop
      vertex 2.04723 -2.96593 105.736
      vertex 0.434399 -3.5776 105.736
      vertex 0.482146 -3.97083 104
    endloop
  endfacet
  facet normal 0.280321 -0.739142 0.612445
    outer loop
      vertex 2.04723 -2.96593 105.736
      vertex 0.300613 -2.47577 107.127
      vertex 0.434399 -3.5776 105.736
    endloop
  endfacet
  facet normal -0.252573 -0.365914 0.89572
    outer loop
      vertex -0.666237 -0.590234 107.9
      vertex -1.86675 -1.6538 107.127
      vertex -0.88437 -2.33189 107.127
    endloop
  endfacet
  facet normal -0.449064 -0.650579 0.612445
    outer loop
      vertex -1.86675 -1.6538 107.127
      vertex -2.69754 -2.38981 105.736
      vertex -0.88437 -2.33189 107.127
    endloop
  endfacet
  facet normal -0.0535939 0.441377 0.89572
    outer loop
      vertex 0.107287 0.883594 107.9
      vertex -0.88437 2.33189 107.127
      vertex -0.315627 0.832242 107.9
    endloop
  endfacet
  facet normal -0.0535919 0.441378 0.895719
    outer loop
      vertex 0.300613 2.47577 107.127
      vertex -0.88437 2.33189 107.127
      vertex 0.107287 0.883594 107.9
    endloop
  endfacet
  facet normal -0.864492 0.453723 0.216305
    outer loop
      vertex -2.99404 2.65249 104
      vertex -3.88377 0.957262 104
      vertex -2.69754 2.38981 105.736
    endloop
  endfacet
  facet normal -0.117685 0.969207 0.216305
    outer loop
      vertex 0.434399 3.5776 105.736
      vertex -1.41842 3.74006 104
      vertex -1.27795 3.36968 105.736
    endloop
  endfacet
  facet normal 0 0 1
    outer loop
      vertex 0.78813 0.413642 107.9
      vertex 0.78813 -0.413642 107.9
      vertex 0.890083 0 107.9
    endloop
  endfacet
  facet normal 0 0 1
    outer loop
      vertex 0.505625 0.732524 107.9
      vertex 0.78813 -0.413642 107.9
      vertex 0.78813 0.413642 107.9
    endloop
  endfacet
  facet normal 0 0 1
    outer loop
      vertex 0.505625 0.732524 107.9
      vertex 0.505625 -0.732524 107.9
      vertex 0.78813 -0.413642 107.9
    endloop
  endfacet
  facet normal 0 0 1
    outer loop
      vertex 0.107287 0.883594 107.9
      vertex 0.505625 -0.732524 107.9
      vertex 0.505625 0.732524 107.9
    endloop
  endfacet
  facet normal 0 0 1
    outer loop
      vertex 0.107287 0.883594 107.9
      vertex 0.107287 -0.883594 107.9
      vertex 0.505625 -0.732524 107.9
    endloop
  endfacet
  facet normal -0 0 1
    outer loop
      vertex -0.315627 0.832242 107.9
      vertex 0.107287 -0.883594 107.9
      vertex 0.107287 0.883594 107.9
    endloop
  endfacet
  facet normal 0 0 1
    outer loop
      vertex -0.315627 0.832242 107.9
      vertex -0.315627 -0.832242 107.9
      vertex 0.107287 -0.883594 107.9
    endloop
  endfacet
  facet normal -0 0 1
    outer loop
      vertex -0.666237 0.590234 107.9
      vertex -0.315627 -0.832242 107.9
      vertex -0.315627 0.832242 107.9
    endloop
  endfacet
  facet normal 0 0 1
    outer loop
      vertex -0.666237 0.590234 107.9
      vertex -0.666237 -0.590234 107.9
      vertex -0.315627 -0.832242 107.9
    endloop
  endfacet
  facet normal -0 0 1
    outer loop
      vertex -0.864219 0.213011 107.9
      vertex -0.666237 -0.590234 107.9
      vertex -0.666237 0.590234 107.9
    endloop
  endfacet
  facet normal 0 0 1
    outer loop
      vertex -0.666237 -0.590234 107.9
      vertex -0.864219 0.213011 107.9
      vertex -0.864219 -0.213011 107.9
    endloop
  endfacet
  facet normal -0.39369 0.206625 0.89572
    outer loop
      vertex -0.666237 0.590234 107.9
      vertex -2.42149 0.596843 107.127
      vertex -0.864219 0.213011 107.9
    endloop
  endfacet
  facet normal -0.252572 0.365914 0.89572
    outer loop
      vertex -0.315627 0.832242 107.9
      vertex -0.88437 2.33189 107.127
      vertex -0.666237 0.590234 107.9
    endloop
  endfacet
  facet normal -0.554615 0.803501 0.216306
    outer loop
      vertex -1.41842 3.74006 104
      vertex -2.99404 2.65249 104
      vertex -1.27795 3.36968 105.736
    endloop
  endfacet
endsolid OpenSCAD_Model
